<ttFont>
<head>
    <!-- Most of this table will be recalculated by the compiler -->
    <tableVersion value="1.0"/>
    <fontRevision value="4.02"/>
    <checkSumAdjustment value="0x370a1e91"/>
    <magicNumber value="0x5f0f3cf5"/>
    <flags value="00000000 00011111"/>
    <unitsPerEm value="2048"/>
    <created value="Wed Nov 16 00:08:57 2016"/>
    <modified value="Sat Aug 19 05:46:10 2017"/>
    <xMin value="-1098"/>
    <yMin value="-479"/>
    <xMax value="2968"/>
    <yMax value="2296"/>
    <macStyle value="00000000 00000000"/>
    <lowestRecPPEM value="8"/>
    <fontDirectionHint value="2"/>
    <indexToLocFormat value="1"/>
    <glyphDataFormat value="0"/>
  </head>
    <TTGlyph name=".notdef" xMin="102" yMin="0" xMax="1143" yMax="1454">
      <contour>
        <pt x="1106" y="1454" on="1"/>
        <pt x="1143" y="1454" on="0"/>
        <pt x="1143" y="1411" on="1"/>
        <pt x="1143" y="59" on="1"/>
        <pt x="1143" y="27" on="0"/>
        <pt x="1111" y="0" on="0"/>
        <pt x="1075" y="0" on="1"/>
        <pt x="158" y="0" on="1"/>
        <pt x="127" y="0" on="0"/>
        <pt x="102" y="24" on="0"/>
        <pt x="102" y="51" on="1"/>
        <pt x="102" y="1407" on="1"/>
        <pt x="102" y="1454" on="0"/>
        <pt x="141" y="1454" on="1"/>
      </contour>
      <contour>
        <pt x="1036" y="1315" on="1"/>
        <pt x="1036" y="1352" on="0"/>
        <pt x="1006" y="1352" on="1"/>
        <pt x="299" y="1352" on="1"/>
        <pt x="1036" y="172" on="1"/>
      </contour>
      <contour>
        <pt x="209" y="145" on="1"/>
        <pt x="209" y="122" on="0"/>
        <pt x="229" y="102" on="0"/>
        <pt x="256" y="102" on="1"/>
        <pt x="950" y="102" on="1"/>
        <pt x="209" y="1270" on="1"/>
      </contour>
    </TTGlyph>
    <TTGlyph name="A" xMin="-4" yMin="0" xMax="1370" yMax="1454">
      <contour>
        <pt x="461" y="1454" on="1"/>
        <pt x="907" y="1454" on="1"/>
        <pt x="1370" y="0" on="1"/>
        <pt x="965" y="0" on="1"/>
        <pt x="877" y="285" on="1"/>
        <pt x="489" y="285" on="1"/>
        <pt x="403" y="0" on="1"/>
        <pt x="-4" y="0" on="1"/>
      </contour>
      <contour>
        <pt x="813" y="551" on="1"/>
        <pt x="684" y="1063" on="1"/>
        <pt x="549" y="551" on="1"/>
      </contour>
    </TTGlyph>
    <TTGlyph name="AE" xMin="-53" yMin="0" xMax="1927" yMax="1454">
      <contour>
        <pt x="829" y="1454" on="1"/>
        <pt x="1909" y="1454" on="1"/>
        <pt x="1909" y="1106" on="1"/>
        <pt x="1331" y="1106" on="1"/>
        <pt x="1331" y="913" on="1"/>
        <pt x="1798" y="913" on="1"/>
        <pt x="1798" y="565" on="1"/>
        <pt x="1331" y="565" on="1"/>
        <pt x="1331" y="348" on="1"/>
        <pt x="1927" y="348" on="1"/>
        <pt x="1927" y="0" on="1"/>
        <pt x="934" y="0" on="1"/>
        <pt x="934" y="285" on="1"/>
        <pt x="522" y="285" on="1"/>
        <pt x="369" y="0" on="1"/>
        <pt x="-53" y="0" on="1"/>
      </contour>
      <contour>
        <pt x="903" y="633" on="1"/>
        <pt x="903" y="1014" on="1"/>
        <pt x="690" y="633" on="1"/>
      </contour>
    </TTGlyph>
    <TTGlyph name="AEacute" xMin="-53" yMin="0" xMax="1927" yMax="1872">
      <contour>
        <pt x="1403" y="1516" on="1"/>
        <pt x="1157" y="1581" on="1"/>
        <pt x="1260" y="1872" on="1"/>
        <pt x="1606" y="1872" on="1"/>
      </contour>
      <contour>
        <pt x="829" y="1454" on="1"/>
        <pt x="1909" y="1454" on="1"/>
        <pt x="1909" y="1106" on="1"/>
        <pt x="1331" y="1106" on="1"/>
        <pt x="1331" y="913" on="1"/>
        <pt x="1798" y="913" on="1"/>
        <pt x="1798" y="565" on="1"/>
        <pt x="1331" y="565" on="1"/>
        <pt x="1331" y="348" on="1"/>
        <pt x="1927" y="348" on="1"/>
        <pt x="1927" y="0" on="1"/>
        <pt x="934" y="0" on="1"/>
        <pt x="934" y="285" on="1"/>
        <pt x="522" y="285" on="1"/>
        <pt x="369" y="0" on="1"/>
        <pt x="-53" y="0" on="1"/>
      </contour>
      <contour>
        <pt x="903" y="633" on="1"/>
        <pt x="903" y="1014" on="1"/>
        <pt x="690" y="633" on="1"/>
      </contour>
    </TTGlyph>
    <TTGlyph name="Aacute" xMin="-4" yMin="0" xMax="1370" yMax="1872">
      <contour>
        <pt x="807" y="1516" on="1"/>
        <pt x="561" y="1581" on="1"/>
        <pt x="664" y="1872" on="1"/>
        <pt x="1010" y="1872" on="1"/>
      </contour>
      <contour>
        <pt x="461" y="1454" on="1"/>
        <pt x="907" y="1454" on="1"/>
        <pt x="1370" y="0" on="1"/>
        <pt x="965" y="0" on="1"/>
        <pt x="877" y="285" on="1"/>
        <pt x="489" y="285" on="1"/>
        <pt x="403" y="0" on="1"/>
        <pt x="-4" y="0" on="1"/>
      </contour>
      <contour>
        <pt x="813" y="551" on="1"/>
        <pt x="684" y="1063" on="1"/>
        <pt x="549" y="551" on="1"/>
      </contour>
    </TTGlyph>
    <TTGlyph name="Abreve" xMin="-4" yMin="0" xMax="1370" yMax="1872">
      <contour>
        <pt x="809" y="1872" on="1"/>
        <pt x="1010" y="1872" on="1"/>
        <pt x="1010" y="1725" on="0"/>
        <pt x="828" y="1540" on="0"/>
        <pt x="540" y="1540" on="0"/>
        <pt x="358" y="1725" on="0"/>
        <pt x="358" y="1872" on="1"/>
        <pt x="559" y="1872" on="1"/>
        <pt x="559" y="1804" on="0"/>
        <pt x="633" y="1706" on="0"/>
        <pt x="684" y="1706" on="1"/>
        <pt x="731" y="1706" on="0"/>
        <pt x="803" y="1800" on="0"/>
      </contour>
      <contour>
        <pt x="461" y="1454" on="1"/>
        <pt x="907" y="1454" on="1"/>
        <pt x="1370" y="0" on="1"/>
        <pt x="965" y="0" on="1"/>
        <pt x="877" y="285" on="1"/>
        <pt x="489" y="285" on="1"/>
        <pt x="403" y="0" on="1"/>
        <pt x="-4" y="0" on="1"/>
      </contour>
      <contour>
        <pt x="813" y="551" on="1"/>
        <pt x="684" y="1063" on="1"/>
        <pt x="549" y="551" on="1"/>
      </contour>
    </TTGlyph>
    <TTGlyph name="Abreveacute" xMin="-4" yMin="0" xMax="1370" yMax="2249">
      <contour>
        <pt x="782" y="1892" on="1"/>
        <pt x="537" y="1958" on="1"/>
        <pt x="639" y="2249" on="1"/>
        <pt x="985" y="2249" on="1"/>
      </contour>
      <contour>
        <pt x="791" y="1872" on="1"/>
        <pt x="991" y="1872" on="1"/>
        <pt x="991" y="1725" on="0"/>
        <pt x="810" y="1540" on="0"/>
        <pt x="522" y="1540" on="0"/>
        <pt x="340" y="1725" on="0"/>
        <pt x="340" y="1872" on="1"/>
        <pt x="541" y="1872" on="1"/>
        <pt x="541" y="1804" on="0"/>
        <pt x="615" y="1706" on="0"/>
        <pt x="666" y="1706" on="1"/>
        <pt x="713" y="1706" on="0"/>
        <pt x="785" y="1800" on="0"/>
      </contour>
      <contour>
        <pt x="461" y="1454" on="1"/>
        <pt x="907" y="1454" on="1"/>
        <pt x="1370" y="0" on="1"/>
        <pt x="965" y="0" on="1"/>
        <pt x="877" y="285" on="1"/>
        <pt x="489" y="285" on="1"/>
        <pt x="403" y="0" on="1"/>
        <pt x="-4" y="0" on="1"/>
      </contour>
      <contour>
        <pt x="813" y="551" on="1"/>
        <pt x="684" y="1063" on="1"/>
        <pt x="549" y="551" on="1"/>
      </contour>
    </TTGlyph>
    <TTGlyph name="Abrevecyrillic" xMin="-4" yMin="0" xMax="1370" yMax="1872">
      <contour>
        <pt x="846" y="1540" on="0"/>
        <pt x="522" y="1540" on="0"/>
        <pt x="317" y="1726" on="0"/>
        <pt x="317" y="1872" on="1"/>
        <pt x="518" y="1872" on="1"/>
        <pt x="518" y="1801" on="0"/>
        <pt x="604" y="1706" on="0"/>
        <pt x="684" y="1706" on="1"/>
        <pt x="759" y="1706" on="0"/>
        <pt x="842" y="1796" on="0"/>
        <pt x="850" y="1872" on="1"/>
        <pt x="1051" y="1872" on="1"/>
        <pt x="1051" y="1726" on="0"/>
      </contour>
      <contour>
        <pt x="461" y="1454" on="1"/>
        <pt x="907" y="1454" on="1"/>
        <pt x="1370" y="0" on="1"/>
        <pt x="965" y="0" on="1"/>
        <pt x="877" y="285" on="1"/>
        <pt x="489" y="285" on="1"/>
        <pt x="403" y="0" on="1"/>
        <pt x="-4" y="0" on="1"/>
      </contour>
      <contour>
        <pt x="813" y="551" on="1"/>
        <pt x="684" y="1063" on="1"/>
        <pt x="549" y="551" on="1"/>
      </contour>
    </TTGlyph>
    <TTGlyph name="Abrevedotbelow" xMin="-4" yMin="-438" xMax="1370" yMax="1872">
      <contour>
        <pt x="809" y="1872" on="1"/>
        <pt x="1010" y="1872" on="1"/>
        <pt x="1010" y="1725" on="0"/>
        <pt x="828" y="1540" on="0"/>
        <pt x="540" y="1540" on="0"/>
        <pt x="358" y="1725" on="0"/>
        <pt x="358" y="1872" on="1"/>
        <pt x="559" y="1872" on="1"/>
        <pt x="559" y="1804" on="0"/>
        <pt x="633" y="1706" on="0"/>
        <pt x="684" y="1706" on="1"/>
        <pt x="731" y="1706" on="0"/>
        <pt x="803" y="1800" on="0"/>
      </contour>
      <contour>
        <pt x="461" y="1454" on="1"/>
        <pt x="907" y="1454" on="1"/>
        <pt x="1370" y="0" on="1"/>
        <pt x="965" y="0" on="1"/>
        <pt x="877" y="285" on="1"/>
        <pt x="489" y="285" on="1"/>
        <pt x="403" y="0" on="1"/>
        <pt x="-4" y="0" on="1"/>
      </contour>
      <contour>
        <pt x="813" y="551" on="1"/>
        <pt x="684" y="1063" on="1"/>
        <pt x="549" y="551" on="1"/>
      </contour>
      <contour>
        <pt x="532" y="-438" on="1"/>
        <pt x="532" y="-131" on="1"/>
        <pt x="881" y="-131" on="1"/>
        <pt x="881" y="-438" on="1"/>
      </contour>
    </TTGlyph>
    <TTGlyph name="Abrevegrave" xMin="-4" yMin="0" xMax="1370" yMax="2290">
      <contour>
        <pt x="360" y="2290" on="1"/>
        <pt x="707" y="2290" on="1"/>
        <pt x="809" y="1999" on="1"/>
        <pt x="563" y="1933" on="1"/>
      </contour>
      <contour>
        <pt x="793" y="1872" on="1"/>
        <pt x="993" y="1872" on="1"/>
        <pt x="993" y="1725" on="0"/>
        <pt x="812" y="1540" on="0"/>
        <pt x="524" y="1540" on="0"/>
        <pt x="342" y="1725" on="0"/>
        <pt x="342" y="1872" on="1"/>
        <pt x="543" y="1872" on="1"/>
        <pt x="543" y="1804" on="0"/>
        <pt x="617" y="1706" on="0"/>
        <pt x="668" y="1706" on="1"/>
        <pt x="715" y="1706" on="0"/>
        <pt x="787" y="1800" on="0"/>
      </contour>
      <contour>
        <pt x="461" y="1454" on="1"/>
        <pt x="907" y="1454" on="1"/>
        <pt x="1370" y="0" on="1"/>
        <pt x="965" y="0" on="1"/>
        <pt x="877" y="285" on="1"/>
        <pt x="489" y="285" on="1"/>
        <pt x="403" y="0" on="1"/>
        <pt x="-4" y="0" on="1"/>
      </contour>
      <contour>
        <pt x="813" y="551" on="1"/>
        <pt x="684" y="1063" on="1"/>
        <pt x="549" y="551" on="1"/>
      </contour>
    </TTGlyph>
    <TTGlyph name="Abrevehookabove" xMin="-4" yMin="0" xMax="1370" yMax="2296">
      <contour>
        <pt x="516" y="2073" on="1"/>
        <pt x="412" y="2175" on="1"/>
        <pt x="528" y="2296" on="0"/>
        <pt x="649" y="2296" on="1"/>
        <pt x="740" y="2296" on="0"/>
        <pt x="850" y="2202" on="0"/>
        <pt x="850" y="2124" on="1"/>
        <pt x="850" y="2070" on="0"/>
        <pt x="814" y="1984" on="0"/>
        <pt x="754" y="1918" on="0"/>
        <pt x="698" y="1872" on="1"/>
        <pt x="606" y="1968" on="1"/>
        <pt x="680" y="2019" on="0"/>
        <pt x="680" y="2066" on="1"/>
        <pt x="680" y="2093" on="0"/>
        <pt x="647" y="2128" on="0"/>
        <pt x="618" y="2128" on="1"/>
        <pt x="599" y="2128" on="0"/>
        <pt x="564" y="2112" on="0"/>
        <pt x="543" y="2096" on="0"/>
      </contour>
      <contour>
        <pt x="813" y="1872" on="1"/>
        <pt x="1014" y="1872" on="1"/>
        <pt x="1014" y="1725" on="0"/>
        <pt x="832" y="1540" on="0"/>
        <pt x="544" y="1540" on="0"/>
        <pt x="362" y="1725" on="0"/>
        <pt x="362" y="1872" on="1"/>
        <pt x="563" y="1872" on="1"/>
        <pt x="563" y="1804" on="0"/>
        <pt x="637" y="1706" on="0"/>
        <pt x="688" y="1706" on="1"/>
        <pt x="735" y="1706" on="0"/>
        <pt x="807" y="1800" on="0"/>
      </contour>
      <contour>
        <pt x="461" y="1454" on="1"/>
        <pt x="907" y="1454" on="1"/>
        <pt x="1370" y="0" on="1"/>
        <pt x="965" y="0" on="1"/>
        <pt x="877" y="285" on="1"/>
        <pt x="489" y="285" on="1"/>
        <pt x="403" y="0" on="1"/>
        <pt x="-4" y="0" on="1"/>
      </contour>
      <contour>
        <pt x="813" y="551" on="1"/>
        <pt x="684" y="1063" on="1"/>
        <pt x="549" y="551" on="1"/>
      </contour>
    </TTGlyph>
    <TTGlyph name="Abrevetilde" xMin="-4" yMin="0" xMax="1370" yMax="2290">
      <contour>
        <pt x="500" y="2064" on="1"/>
        <pt x="474" y="2064" on="0"/>
        <pt x="436" y="2044" on="0"/>
        <pt x="418" y="2018" on="0"/>
        <pt x="408" y="1986" on="0"/>
        <pt x="406" y="1971" on="0"/>
        <pt x="406" y="1966" on="1"/>
        <pt x="199" y="1966" on="1"/>
        <pt x="199" y="1990" on="0"/>
        <pt x="218" y="2065" on="0"/>
        <pt x="263" y="2157" on="0"/>
        <pt x="325" y="2236" on="0"/>
        <pt x="425" y="2290" on="0"/>
        <pt x="483" y="2290" on="1"/>
        <pt x="528" y="2290" on="0"/>
        <pt x="610" y="2257" on="0"/>
        <pt x="662" y="2218" on="0"/>
        <pt x="729" y="2185" on="0"/>
        <pt x="760" y="2185" on="1"/>
        <pt x="785" y="2185" on="0"/>
        <pt x="825" y="2206" on="0"/>
        <pt x="845" y="2234" on="0"/>
        <pt x="858" y="2267" on="0"/>
        <pt x="862" y="2286" on="0"/>
        <pt x="862" y="2290" on="1"/>
        <pt x="1067" y="2290" on="1"/>
        <pt x="1067" y="2273" on="0"/>
        <pt x="1047" y="2203" on="0"/>
        <pt x="1001" y="2108" on="0"/>
        <pt x="937" y="2025" on="0"/>
        <pt x="833" y="1966" on="0"/>
        <pt x="774" y="1966" on="1"/>
        <pt x="732" y="1966" on="0"/>
        <pt x="651" y="1997" on="0"/>
        <pt x="598" y="2033" on="0"/>
        <pt x="530" y="2064" on="0"/>
      </contour>
      <contour>
        <pt x="758" y="1872" on="1"/>
        <pt x="958" y="1872" on="1"/>
        <pt x="958" y="1725" on="0"/>
        <pt x="777" y="1540" on="0"/>
        <pt x="489" y="1540" on="0"/>
        <pt x="307" y="1725" on="0"/>
        <pt x="307" y="1872" on="1"/>
        <pt x="508" y="1872" on="1"/>
        <pt x="508" y="1804" on="0"/>
        <pt x="582" y="1706" on="0"/>
        <pt x="633" y="1706" on="1"/>
        <pt x="680" y="1706" on="0"/>
        <pt x="752" y="1800" on="0"/>
      </contour>
      <contour>
        <pt x="461" y="1454" on="1"/>
        <pt x="907" y="1454" on="1"/>
        <pt x="1370" y="0" on="1"/>
        <pt x="965" y="0" on="1"/>
        <pt x="877" y="285" on="1"/>
        <pt x="489" y="285" on="1"/>
        <pt x="403" y="0" on="1"/>
        <pt x="-4" y="0" on="1"/>
      </contour>
      <contour>
        <pt x="813" y="551" on="1"/>
        <pt x="684" y="1063" on="1"/>
        <pt x="549" y="551" on="1"/>
      </contour>
    </TTGlyph>
    <TTGlyph name="Acircumflex" xMin="-4" yMin="0" xMax="1370" yMax="1872">
      <contour>
        <pt x="313" y="1636" on="1"/>
        <pt x="545" y="1872" on="1"/>
        <pt x="823" y="1872" on="1"/>
        <pt x="1055" y="1636" on="1"/>
        <pt x="858" y="1550" on="1"/>
        <pt x="684" y="1679" on="1"/>
        <pt x="510" y="1550" on="1"/>
      </contour>
      <contour>
        <pt x="461" y="1454" on="1"/>
        <pt x="907" y="1454" on="1"/>
        <pt x="1370" y="0" on="1"/>
        <pt x="965" y="0" on="1"/>
        <pt x="877" y="285" on="1"/>
        <pt x="489" y="285" on="1"/>
        <pt x="403" y="0" on="1"/>
        <pt x="-4" y="0" on="1"/>
      </contour>
      <contour>
        <pt x="813" y="551" on="1"/>
        <pt x="684" y="1063" on="1"/>
        <pt x="549" y="551" on="1"/>
      </contour>
    </TTGlyph>
    <TTGlyph name="Acircumflexacute" xMin="-4" yMin="0" xMax="1370" yMax="2132">
      <contour>
        <pt x="1155" y="1776" on="1"/>
        <pt x="909" y="1841" on="1"/>
        <pt x="1012" y="2132" on="1"/>
        <pt x="1358" y="2132" on="1"/>
      </contour>
      <contour>
        <pt x="313" y="1636" on="1"/>
        <pt x="545" y="1872" on="1"/>
        <pt x="823" y="1872" on="1"/>
        <pt x="1055" y="1636" on="1"/>
        <pt x="858" y="1550" on="1"/>
        <pt x="684" y="1679" on="1"/>
        <pt x="510" y="1550" on="1"/>
      </contour>
      <contour>
        <pt x="461" y="1454" on="1"/>
        <pt x="907" y="1454" on="1"/>
        <pt x="1370" y="0" on="1"/>
        <pt x="965" y="0" on="1"/>
        <pt x="877" y="285" on="1"/>
        <pt x="489" y="285" on="1"/>
        <pt x="403" y="0" on="1"/>
        <pt x="-4" y="0" on="1"/>
      </contour>
      <contour>
        <pt x="813" y="551" on="1"/>
        <pt x="684" y="1063" on="1"/>
        <pt x="549" y="551" on="1"/>
      </contour>
    </TTGlyph>
    <TTGlyph name="Acircumflexdotbelow" xMin="-4" yMin="-438" xMax="1370" yMax="1872">
      <contour>
        <pt x="313" y="1636" on="1"/>
        <pt x="545" y="1872" on="1"/>
        <pt x="823" y="1872" on="1"/>
        <pt x="1055" y="1636" on="1"/>
        <pt x="858" y="1550" on="1"/>
        <pt x="684" y="1679" on="1"/>
        <pt x="510" y="1550" on="1"/>
      </contour>
      <contour>
        <pt x="461" y="1454" on="1"/>
        <pt x="907" y="1454" on="1"/>
        <pt x="1370" y="0" on="1"/>
        <pt x="965" y="0" on="1"/>
        <pt x="877" y="285" on="1"/>
        <pt x="489" y="285" on="1"/>
        <pt x="403" y="0" on="1"/>
        <pt x="-4" y="0" on="1"/>
      </contour>
      <contour>
        <pt x="813" y="551" on="1"/>
        <pt x="684" y="1063" on="1"/>
        <pt x="549" y="551" on="1"/>
      </contour>
      <contour>
        <pt x="532" y="-438" on="1"/>
        <pt x="532" y="-131" on="1"/>
        <pt x="881" y="-131" on="1"/>
        <pt x="881" y="-438" on="1"/>
      </contour>
    </TTGlyph>
    <TTGlyph name="Acircumflexgrave" xMin="-23" yMin="0" xMax="1370" yMax="2134">
      <contour>
        <pt x="-23" y="2134" on="1"/>
        <pt x="324" y="2134" on="1"/>
        <pt x="426" y="1843" on="1"/>
        <pt x="180" y="1778" on="1"/>
      </contour>
      <contour>
        <pt x="293" y="1636" on="1"/>
        <pt x="524" y="1872" on="1"/>
        <pt x="803" y="1872" on="1"/>
        <pt x="1034" y="1636" on="1"/>
        <pt x="838" y="1550" on="1"/>
        <pt x="664" y="1679" on="1"/>
        <pt x="489" y="1550" on="1"/>
      </contour>
      <contour>
        <pt x="461" y="1454" on="1"/>
        <pt x="907" y="1454" on="1"/>
        <pt x="1370" y="0" on="1"/>
        <pt x="965" y="0" on="1"/>
        <pt x="877" y="285" on="1"/>
        <pt x="489" y="285" on="1"/>
        <pt x="403" y="0" on="1"/>
        <pt x="-4" y="0" on="1"/>
      </contour>
      <contour>
        <pt x="813" y="551" on="1"/>
        <pt x="684" y="1063" on="1"/>
        <pt x="549" y="551" on="1"/>
      </contour>
    </TTGlyph>
    <TTGlyph name="Acircumflexhookabove" xMin="-4" yMin="0" xMax="1370" yMax="2154">
      <contour>
        <pt x="903" y="1931" on="1"/>
        <pt x="799" y="2034" on="1"/>
        <pt x="914" y="2154" on="0"/>
        <pt x="1036" y="2154" on="1"/>
        <pt x="1127" y="2154" on="0"/>
        <pt x="1237" y="2060" on="0"/>
        <pt x="1237" y="1904" on="0"/>
        <pt x="1169" y="1800" on="0"/>
        <pt x="1085" y="1731" on="1"/>
        <pt x="993" y="1827" on="1"/>
        <pt x="1067" y="1878" on="0"/>
        <pt x="1067" y="1925" on="1"/>
        <pt x="1067" y="1952" on="0"/>
        <pt x="1034" y="1987" on="0"/>
        <pt x="1006" y="1987" on="1"/>
        <pt x="987" y="1987" on="0"/>
        <pt x="952" y="1971" on="0"/>
        <pt x="930" y="1954" on="0"/>
      </contour>
      <contour>
        <pt x="293" y="1636" on="1"/>
        <pt x="524" y="1872" on="1"/>
        <pt x="803" y="1872" on="1"/>
        <pt x="1034" y="1636" on="1"/>
        <pt x="838" y="1550" on="1"/>
        <pt x="664" y="1679" on="1"/>
        <pt x="489" y="1550" on="1"/>
      </contour>
      <contour>
        <pt x="461" y="1454" on="1"/>
        <pt x="907" y="1454" on="1"/>
        <pt x="1370" y="0" on="1"/>
        <pt x="965" y="0" on="1"/>
        <pt x="877" y="285" on="1"/>
        <pt x="489" y="285" on="1"/>
        <pt x="403" y="0" on="1"/>
        <pt x="-4" y="0" on="1"/>
      </contour>
      <contour>
        <pt x="813" y="551" on="1"/>
        <pt x="684" y="1063" on="1"/>
        <pt x="549" y="551" on="1"/>
      </contour>
    </TTGlyph>
    <TTGlyph name="Acircumflextilde" xMin="-4" yMin="0" xMax="1370" yMax="2290">
      <contour>
        <pt x="545" y="2064" on="1"/>
        <pt x="519" y="2064" on="0"/>
        <pt x="481" y="2044" on="0"/>
        <pt x="463" y="2018" on="0"/>
        <pt x="453" y="1986" on="0"/>
        <pt x="451" y="1971" on="0"/>
        <pt x="451" y="1966" on="1"/>
        <pt x="244" y="1966" on="1"/>
        <pt x="244" y="1990" on="0"/>
        <pt x="263" y="2065" on="0"/>
        <pt x="308" y="2157" on="0"/>
        <pt x="370" y="2236" on="0"/>
        <pt x="470" y="2290" on="0"/>
        <pt x="528" y="2290" on="1"/>
        <pt x="573" y="2290" on="0"/>
        <pt x="655" y="2257" on="0"/>
        <pt x="707" y="2218" on="0"/>
        <pt x="774" y="2185" on="0"/>
        <pt x="805" y="2185" on="1"/>
        <pt x="830" y="2185" on="0"/>
        <pt x="870" y="2206" on="0"/>
        <pt x="890" y="2234" on="0"/>
        <pt x="903" y="2267" on="0"/>
        <pt x="907" y="2286" on="0"/>
        <pt x="907" y="2290" on="1"/>
        <pt x="1112" y="2290" on="1"/>
        <pt x="1112" y="2273" on="0"/>
        <pt x="1092" y="2203" on="0"/>
        <pt x="1046" y="2108" on="0"/>
        <pt x="982" y="2025" on="0"/>
        <pt x="878" y="1966" on="0"/>
        <pt x="819" y="1966" on="1"/>
        <pt x="777" y="1966" on="0"/>
        <pt x="696" y="1997" on="0"/>
        <pt x="643" y="2033" on="0"/>
        <pt x="575" y="2064" on="0"/>
      </contour>
      <contour>
        <pt x="307" y="1636" on="1"/>
        <pt x="539" y="1872" on="1"/>
        <pt x="817" y="1872" on="1"/>
        <pt x="1049" y="1636" on="1"/>
        <pt x="852" y="1550" on="1"/>
        <pt x="678" y="1679" on="1"/>
        <pt x="504" y="1550" on="1"/>
      </contour>
      <contour>
        <pt x="461" y="1454" on="1"/>
        <pt x="907" y="1454" on="1"/>
        <pt x="1370" y="0" on="1"/>
        <pt x="965" y="0" on="1"/>
        <pt x="877" y="285" on="1"/>
        <pt x="489" y="285" on="1"/>
        <pt x="403" y="0" on="1"/>
        <pt x="-4" y="0" on="1"/>
      </contour>
      <contour>
        <pt x="813" y="551" on="1"/>
        <pt x="684" y="1063" on="1"/>
        <pt x="549" y="551" on="1"/>
      </contour>
    </TTGlyph>
    <TTGlyph name="Acyrillic" xMin="-4" yMin="0" xMax="1370" yMax="1454">
      <contour>
        <pt x="461" y="1454" on="1"/>
        <pt x="907" y="1454" on="1"/>
        <pt x="1370" y="0" on="1"/>
        <pt x="965" y="0" on="1"/>
        <pt x="877" y="285" on="1"/>
        <pt x="489" y="285" on="1"/>
        <pt x="403" y="0" on="1"/>
        <pt x="-4" y="0" on="1"/>
      </contour>
      <contour>
        <pt x="813" y="551" on="1"/>
        <pt x="684" y="1063" on="1"/>
        <pt x="549" y="551" on="1"/>
      </contour>
    </TTGlyph>
    <TTGlyph name="Adblgrave" xMin="-4" yMin="0" xMax="1370" yMax="1874">
      <contour>
        <pt x="240" y="1874" on="1"/>
        <pt x="524" y="1874" on="1"/>
        <pt x="606" y="1583" on="1"/>
        <pt x="422" y="1518" on="1"/>
      </contour>
      <contour>
        <pt x="629" y="1874" on="1"/>
        <pt x="913" y="1874" on="1"/>
        <pt x="995" y="1583" on="1"/>
        <pt x="811" y="1518" on="1"/>
      </contour>
      <contour>
        <pt x="461" y="1454" on="1"/>
        <pt x="907" y="1454" on="1"/>
        <pt x="1370" y="0" on="1"/>
        <pt x="965" y="0" on="1"/>
        <pt x="877" y="285" on="1"/>
        <pt x="489" y="285" on="1"/>
        <pt x="403" y="0" on="1"/>
        <pt x="-4" y="0" on="1"/>
      </contour>
      <contour>
        <pt x="813" y="551" on="1"/>
        <pt x="684" y="1063" on="1"/>
        <pt x="549" y="551" on="1"/>
      </contour>
    </TTGlyph>
    <TTGlyph name="Adieresis" xMin="-4" yMin="0" xMax="1370" yMax="1853">
      <contour>
        <pt x="289" y="1567" on="1"/>
        <pt x="289" y="1853" on="1"/>
        <pt x="608" y="1853" on="1"/>
        <pt x="608" y="1567" on="1"/>
      </contour>
      <contour>
        <pt x="760" y="1567" on="1"/>
        <pt x="760" y="1853" on="1"/>
        <pt x="1079" y="1853" on="1"/>
        <pt x="1079" y="1567" on="1"/>
      </contour>
      <contour>
        <pt x="461" y="1454" on="1"/>
        <pt x="907" y="1454" on="1"/>
        <pt x="1370" y="0" on="1"/>
        <pt x="965" y="0" on="1"/>
        <pt x="877" y="285" on="1"/>
        <pt x="489" y="285" on="1"/>
        <pt x="403" y="0" on="1"/>
        <pt x="-4" y="0" on="1"/>
      </contour>
      <contour>
        <pt x="813" y="551" on="1"/>
        <pt x="684" y="1063" on="1"/>
        <pt x="549" y="551" on="1"/>
      </contour>
    </TTGlyph>
    <TTGlyph name="Adieresiscyrillic" xMin="-4" yMin="0" xMax="1370" yMax="1853">
      <contour>
        <pt x="289" y="1567" on="1"/>
        <pt x="289" y="1853" on="1"/>
        <pt x="608" y="1853" on="1"/>
        <pt x="608" y="1567" on="1"/>
      </contour>
      <contour>
        <pt x="760" y="1567" on="1"/>
        <pt x="760" y="1853" on="1"/>
        <pt x="1079" y="1853" on="1"/>
        <pt x="1079" y="1567" on="1"/>
      </contour>
      <contour>
        <pt x="461" y="1454" on="1"/>
        <pt x="907" y="1454" on="1"/>
        <pt x="1370" y="0" on="1"/>
        <pt x="965" y="0" on="1"/>
        <pt x="877" y="285" on="1"/>
        <pt x="489" y="285" on="1"/>
        <pt x="403" y="0" on="1"/>
        <pt x="-4" y="0" on="1"/>
      </contour>
      <contour>
        <pt x="813" y="551" on="1"/>
        <pt x="684" y="1063" on="1"/>
        <pt x="549" y="551" on="1"/>
      </contour>
    </TTGlyph>
    <TTGlyph name="Adotbelow" xMin="-4" yMin="-438" xMax="1370" yMax="1454">
      <contour>
        <pt x="461" y="1454" on="1"/>
        <pt x="907" y="1454" on="1"/>
        <pt x="1370" y="0" on="1"/>
        <pt x="965" y="0" on="1"/>
        <pt x="877" y="285" on="1"/>
        <pt x="489" y="285" on="1"/>
        <pt x="403" y="0" on="1"/>
        <pt x="-4" y="0" on="1"/>
      </contour>
      <contour>
        <pt x="813" y="551" on="1"/>
        <pt x="684" y="1063" on="1"/>
        <pt x="549" y="551" on="1"/>
      </contour>
      <contour>
        <pt x="532" y="-438" on="1"/>
        <pt x="532" y="-131" on="1"/>
        <pt x="881" y="-131" on="1"/>
        <pt x="881" y="-438" on="1"/>
      </contour>
    </TTGlyph>
    <TTGlyph name="Agrave" xMin="-4" yMin="0" xMax="1370" yMax="1872">
      <contour>
        <pt x="377" y="1872" on="1"/>
        <pt x="723" y="1872" on="1"/>
        <pt x="825" y="1581" on="1"/>
        <pt x="580" y="1516" on="1"/>
      </contour>
      <contour>
        <pt x="461" y="1454" on="1"/>
        <pt x="907" y="1454" on="1"/>
        <pt x="1370" y="0" on="1"/>
        <pt x="965" y="0" on="1"/>
        <pt x="877" y="285" on="1"/>
        <pt x="489" y="285" on="1"/>
        <pt x="403" y="0" on="1"/>
        <pt x="-4" y="0" on="1"/>
      </contour>
      <contour>
        <pt x="813" y="551" on="1"/>
        <pt x="684" y="1063" on="1"/>
        <pt x="549" y="551" on="1"/>
      </contour>
    </TTGlyph>
    <TTGlyph name="Ahookabove" xMin="-4" yMin="0" xMax="1370" yMax="1985">
      <contour>
        <pt x="569" y="1761" on="1"/>
        <pt x="465" y="1864" on="1"/>
        <pt x="580" y="1985" on="0"/>
        <pt x="702" y="1985" on="1"/>
        <pt x="793" y="1985" on="0"/>
        <pt x="903" y="1890" on="0"/>
        <pt x="903" y="1812" on="1"/>
        <pt x="903" y="1758" on="0"/>
        <pt x="867" y="1672" on="0"/>
        <pt x="808" y="1607" on="0"/>
        <pt x="752" y="1561" on="1"/>
        <pt x="659" y="1657" on="1"/>
        <pt x="733" y="1708" on="0"/>
        <pt x="733" y="1755" on="1"/>
        <pt x="733" y="1782" on="0"/>
        <pt x="700" y="1817" on="0"/>
        <pt x="672" y="1817" on="1"/>
        <pt x="653" y="1817" on="0"/>
        <pt x="618" y="1801" on="0"/>
        <pt x="596" y="1784" on="0"/>
      </contour>
      <contour>
        <pt x="461" y="1454" on="1"/>
        <pt x="907" y="1454" on="1"/>
        <pt x="1370" y="0" on="1"/>
        <pt x="965" y="0" on="1"/>
        <pt x="877" y="285" on="1"/>
        <pt x="489" y="285" on="1"/>
        <pt x="403" y="0" on="1"/>
        <pt x="-4" y="0" on="1"/>
      </contour>
      <contour>
        <pt x="813" y="551" on="1"/>
        <pt x="684" y="1063" on="1"/>
        <pt x="549" y="551" on="1"/>
      </contour>
    </TTGlyph>
    <TTGlyph name="Aiecyrillic" xMin="-53" yMin="0" xMax="1927" yMax="1454">
      <contour>
        <pt x="829" y="1454" on="1"/>
        <pt x="1909" y="1454" on="1"/>
        <pt x="1909" y="1106" on="1"/>
        <pt x="1331" y="1106" on="1"/>
        <pt x="1331" y="913" on="1"/>
        <pt x="1798" y="913" on="1"/>
        <pt x="1798" y="565" on="1"/>
        <pt x="1331" y="565" on="1"/>
        <pt x="1331" y="348" on="1"/>
        <pt x="1927" y="348" on="1"/>
        <pt x="1927" y="0" on="1"/>
        <pt x="934" y="0" on="1"/>
        <pt x="934" y="285" on="1"/>
        <pt x="522" y="285" on="1"/>
        <pt x="369" y="0" on="1"/>
        <pt x="-53" y="0" on="1"/>
      </contour>
      <contour>
        <pt x="903" y="633" on="1"/>
        <pt x="903" y="1014" on="1"/>
        <pt x="690" y="633" on="1"/>
      </contour>
    </TTGlyph>
    <TTGlyph name="Ainvertedbreve" xMin="-4" yMin="0" xMax="1370" yMax="1872">
      <contour>
        <pt x="559" y="1540" on="1"/>
        <pt x="358" y="1540" on="1"/>
        <pt x="358" y="1687" on="0"/>
        <pt x="540" y="1872" on="0"/>
        <pt x="828" y="1872" on="0"/>
        <pt x="1010" y="1687" on="0"/>
        <pt x="1010" y="1540" on="1"/>
        <pt x="809" y="1540" on="1"/>
        <pt x="803" y="1612" on="0"/>
        <pt x="731" y="1706" on="0"/>
        <pt x="684" y="1706" on="1"/>
        <pt x="633" y="1706" on="0"/>
        <pt x="559" y="1608" on="0"/>
      </contour>
      <contour>
        <pt x="461" y="1454" on="1"/>
        <pt x="907" y="1454" on="1"/>
        <pt x="1370" y="0" on="1"/>
        <pt x="965" y="0" on="1"/>
        <pt x="877" y="285" on="1"/>
        <pt x="489" y="285" on="1"/>
        <pt x="403" y="0" on="1"/>
        <pt x="-4" y="0" on="1"/>
      </contour>
      <contour>
        <pt x="813" y="551" on="1"/>
        <pt x="684" y="1063" on="1"/>
        <pt x="549" y="551" on="1"/>
      </contour>
    </TTGlyph>
    <TTGlyph name="Amacron" xMin="-4" yMin="0" xMax="1370" yMax="1851">
      <contour>
        <pt x="369" y="1620" on="1"/>
        <pt x="369" y="1851" on="1"/>
        <pt x="1004" y="1851" on="1"/>
        <pt x="1004" y="1620" on="1"/>
      </contour>
      <contour>
        <pt x="461" y="1454" on="1"/>
        <pt x="907" y="1454" on="1"/>
        <pt x="1370" y="0" on="1"/>
        <pt x="965" y="0" on="1"/>
        <pt x="877" y="285" on="1"/>
        <pt x="489" y="285" on="1"/>
        <pt x="403" y="0" on="1"/>
        <pt x="-4" y="0" on="1"/>
      </contour>
      <contour>
        <pt x="813" y="551" on="1"/>
        <pt x="684" y="1063" on="1"/>
        <pt x="549" y="551" on="1"/>
      </contour>
    </TTGlyph>
    <TTGlyph name="Aogonek" xMin="-4" yMin="-440" xMax="1370" yMax="1454">
      <contour>
        <pt x="1223" y="-125" on="0"/>
        <pt x="1223" y="-195" on="0"/>
        <pt x="1295" y="-236" on="0"/>
        <pt x="1366" y="-236" on="1"/>
        <pt x="1294" y="-440" on="1"/>
        <pt x="1141" y="-422" on="0"/>
        <pt x="983" y="-311" on="0"/>
        <pt x="983" y="-236" on="1"/>
        <pt x="983" y="-110" on="0"/>
        <pt x="1133" y="0" on="1"/>
        <pt x="965" y="0" on="1"/>
        <pt x="877" y="285" on="1"/>
        <pt x="489" y="285" on="1"/>
        <pt x="403" y="0" on="1"/>
        <pt x="-4" y="0" on="1"/>
        <pt x="461" y="1454" on="1"/>
        <pt x="907" y="1454" on="1"/>
        <pt x="1370" y="0" on="1"/>
        <pt x="1300" y="-41" on="0"/>
      </contour>
      <contour>
        <pt x="549" y="551" on="1"/>
        <pt x="813" y="551" on="1"/>
        <pt x="684" y="1063" on="1"/>
      </contour>
    </TTGlyph>
    <TTGlyph name="Aring" xMin="-4" yMin="0" xMax="1370" yMax="1886">
      <contour>
        <pt x="575" y="1886" on="0"/>
        <pt x="793" y="1886" on="0"/>
        <pt x="924" y="1783" on="0"/>
        <pt x="924" y="1605" on="0"/>
        <pt x="793" y="1501" on="0"/>
        <pt x="575" y="1501" on="0"/>
        <pt x="444" y="1605" on="0"/>
        <pt x="444" y="1783" on="0"/>
      </contour>
      <contour>
        <pt x="602" y="1696" on="1"/>
        <pt x="602" y="1664" on="0"/>
        <pt x="650" y="1616" on="0"/>
        <pt x="684" y="1616" on="1"/>
        <pt x="717" y="1616" on="0"/>
        <pt x="766" y="1665" on="0"/>
        <pt x="766" y="1696" on="1"/>
        <pt x="766" y="1726" on="0"/>
        <pt x="718" y="1772" on="0"/>
        <pt x="650" y="1772" on="0"/>
        <pt x="602" y="1726" on="0"/>
      </contour>
      <contour>
        <pt x="461" y="1454" on="1"/>
        <pt x="907" y="1454" on="1"/>
        <pt x="1370" y="0" on="1"/>
        <pt x="965" y="0" on="1"/>
        <pt x="877" y="285" on="1"/>
        <pt x="489" y="285" on="1"/>
        <pt x="403" y="0" on="1"/>
        <pt x="-4" y="0" on="1"/>
      </contour>
      <contour>
        <pt x="813" y="551" on="1"/>
        <pt x="684" y="1063" on="1"/>
        <pt x="549" y="551" on="1"/>
      </contour>
    </TTGlyph>
    <TTGlyph name="Aringacute" xMin="-4" yMin="0" xMax="1370" yMax="1915">
      <contour>
        <pt x="907" y="1454" on="1"/>
        <pt x="1370" y="0" on="1"/>
        <pt x="965" y="0" on="1"/>
        <pt x="877" y="285" on="1"/>
        <pt x="489" y="285" on="1"/>
        <pt x="403" y="0" on="1"/>
        <pt x="-4" y="0" on="1"/>
        <pt x="461" y="1454" on="1"/>
        <pt x="463" y="1454" on="1"/>
        <pt x="444" y="1494" on="0"/>
        <pt x="444" y="1538" on="1"/>
        <pt x="444" y="1640" on="0"/>
        <pt x="528" y="1692" on="1"/>
        <pt x="618" y="1915" on="1"/>
        <pt x="965" y="1915" on="1"/>
        <pt x="825" y="1700" on="1"/>
        <pt x="872" y="1676" on="0"/>
        <pt x="924" y="1593" on="0"/>
        <pt x="924" y="1538" on="1"/>
        <pt x="924" y="1494" on="0"/>
        <pt x="905" y="1454" on="1"/>
      </contour>
      <contour>
        <pt x="718" y="1616" on="0"/>
        <pt x="650" y="1616" on="0"/>
        <pt x="602" y="1570" on="0"/>
        <pt x="602" y="1540" on="1"/>
        <pt x="602" y="1508" on="0"/>
        <pt x="650" y="1460" on="0"/>
        <pt x="684" y="1460" on="1"/>
        <pt x="717" y="1460" on="0"/>
        <pt x="766" y="1509" on="0"/>
        <pt x="766" y="1540" on="1"/>
        <pt x="766" y="1570" on="0"/>
      </contour>
      <contour>
        <pt x="549" y="551" on="1"/>
        <pt x="813" y="551" on="1"/>
        <pt x="684" y="1063" on="1"/>
      </contour>
    </TTGlyph>
    <TTGlyph name="Atilde" xMin="-4" yMin="0" xMax="1370" yMax="1872">
      <contour>
        <pt x="551" y="1647" on="1"/>
        <pt x="525" y="1647" on="0"/>
        <pt x="487" y="1627" on="0"/>
        <pt x="469" y="1601" on="0"/>
        <pt x="459" y="1568" on="0"/>
        <pt x="457" y="1553" on="0"/>
        <pt x="457" y="1548" on="1"/>
        <pt x="250" y="1548" on="1"/>
        <pt x="250" y="1572" on="0"/>
        <pt x="269" y="1647" on="0"/>
        <pt x="314" y="1739" on="0"/>
        <pt x="377" y="1818" on="0"/>
        <pt x="477" y="1872" on="0"/>
        <pt x="535" y="1872" on="1"/>
        <pt x="580" y="1872" on="0"/>
        <pt x="662" y="1839" on="0"/>
        <pt x="714" y="1800" on="0"/>
        <pt x="780" y="1767" on="0"/>
        <pt x="811" y="1767" on="1"/>
        <pt x="836" y="1767" on="0"/>
        <pt x="876" y="1788" on="0"/>
        <pt x="896" y="1816" on="0"/>
        <pt x="909" y="1849" on="0"/>
        <pt x="913" y="1868" on="0"/>
        <pt x="913" y="1872" on="1"/>
        <pt x="1118" y="1872" on="1"/>
        <pt x="1118" y="1855" on="0"/>
        <pt x="1098" y="1785" on="0"/>
        <pt x="1052" y="1690" on="0"/>
        <pt x="988" y="1607" on="0"/>
        <pt x="884" y="1548" on="0"/>
        <pt x="825" y="1548" on="1"/>
        <pt x="783" y="1548" on="0"/>
        <pt x="702" y="1579" on="0"/>
        <pt x="649" y="1616" on="0"/>
        <pt x="581" y="1647" on="0"/>
      </contour>
      <contour>
        <pt x="461" y="1454" on="1"/>
        <pt x="907" y="1454" on="1"/>
        <pt x="1370" y="0" on="1"/>
        <pt x="965" y="0" on="1"/>
        <pt x="877" y="285" on="1"/>
        <pt x="489" y="285" on="1"/>
        <pt x="403" y="0" on="1"/>
        <pt x="-4" y="0" on="1"/>
      </contour>
      <contour>
        <pt x="813" y="551" on="1"/>
        <pt x="684" y="1063" on="1"/>
        <pt x="549" y="551" on="1"/>
      </contour>
    </TTGlyph>
    <TTGlyph name="B" xMin="125" yMin="0" xMax="1362" yMax="1454">
      <contour>
        <pt x="840" y="0" on="1"/>
        <pt x="125" y="0" on="1"/>
        <pt x="125" y="1454" on="1"/>
        <pt x="969" y="1454" on="1"/>
        <pt x="1067" y="1454" on="0"/>
        <pt x="1222" y="1343" on="0"/>
        <pt x="1300" y="1175" on="0"/>
        <pt x="1300" y="1081" on="1"/>
        <pt x="1300" y="974" on="0"/>
        <pt x="1192" y="789" on="0"/>
        <pt x="1092" y="745" on="1"/>
        <pt x="1221" y="707" on="0"/>
        <pt x="1362" y="521" on="0"/>
        <pt x="1362" y="373" on="1"/>
        <pt x="1362" y="278" on="0"/>
        <pt x="1281" y="132" on="0"/>
        <pt x="1136" y="44" on="0"/>
        <pt x="950" y="0" on="0"/>
      </contour>
      <contour>
        <pt x="524" y="1114" on="1"/>
        <pt x="524" y="891" on="1"/>
        <pt x="797" y="891" on="1"/>
        <pt x="844" y="891" on="0"/>
        <pt x="905" y="942" on="0"/>
        <pt x="905" y="1004" on="1"/>
        <pt x="905" y="1060" on="0"/>
        <pt x="851" y="1114" on="0"/>
        <pt x="809" y="1114" on="1"/>
      </contour>
      <contour>
        <pt x="854" y="580" on="1"/>
        <pt x="524" y="580" on="1"/>
        <pt x="524" y="336" on="1"/>
        <pt x="840" y="336" on="1"/>
        <pt x="891" y="336" on="0"/>
        <pt x="956" y="399" on="0"/>
        <pt x="956" y="455" on="1"/>
        <pt x="956" y="509" on="0"/>
        <pt x="898" y="580" on="0"/>
      </contour>
    </TTGlyph>
    <TTGlyph name="C" xMin="45" yMin="-12" xMax="1399" yMax="1462">
      <contour>
        <pt x="788" y="1462" on="1"/>
        <pt x="993" y="1462" on="0"/>
        <pt x="1307" y="1290" on="0"/>
        <pt x="1384" y="1145" on="1"/>
        <pt x="1079" y="928" on="1"/>
        <pt x="1059" y="979" on="0"/>
        <pt x="991" y="1052" on="0"/>
        <pt x="907" y="1091" on="0"/>
        <pt x="824" y="1108" on="0"/>
        <pt x="780" y="1108" on="1"/>
        <pt x="698" y="1108" on="0"/>
        <pt x="568" y="1041" on="0"/>
        <pt x="491" y="930" on="0"/>
        <pt x="451" y="798" on="0"/>
        <pt x="451" y="727" on="1"/>
        <pt x="451" y="568" on="0"/>
        <pt x="633" y="342" on="0"/>
        <pt x="784" y="342" on="1"/>
        <pt x="843" y="342" on="0"/>
        <pt x="951" y="375" on="0"/>
        <pt x="1050" y="458" on="0"/>
        <pt x="1073" y="520" on="1"/>
        <pt x="1399" y="326" on="1"/>
        <pt x="1358" y="223" on="0"/>
        <pt x="1153" y="65" on="0"/>
        <pt x="903" y="-12" on="0"/>
        <pt x="776" y="-12" on="1"/>
        <pt x="620" y="-12" on="0"/>
        <pt x="343" y="118" on="0"/>
        <pt x="154" y="329" on="0"/>
        <pt x="45" y="600" on="0"/>
        <pt x="45" y="739" on="1"/>
        <pt x="45" y="873" on="0"/>
        <pt x="148" y="1130" on="0"/>
        <pt x="333" y="1336" on="0"/>
        <pt x="619" y="1462" on="0"/>
      </contour>
    </TTGlyph>
    <TTGlyph name="Cacute" xMin="45" yMin="-12" xMax="1399" yMax="1872">
      <contour>
        <pt x="911" y="1516" on="1"/>
        <pt x="666" y="1581" on="1"/>
        <pt x="768" y="1872" on="1"/>
        <pt x="1114" y="1872" on="1"/>
      </contour>
      <contour>
        <pt x="788" y="1462" on="1"/>
        <pt x="993" y="1462" on="0"/>
        <pt x="1307" y="1290" on="0"/>
        <pt x="1384" y="1145" on="1"/>
        <pt x="1079" y="928" on="1"/>
        <pt x="1059" y="979" on="0"/>
        <pt x="991" y="1052" on="0"/>
        <pt x="907" y="1091" on="0"/>
        <pt x="824" y="1108" on="0"/>
        <pt x="780" y="1108" on="1"/>
        <pt x="698" y="1108" on="0"/>
        <pt x="568" y="1041" on="0"/>
        <pt x="491" y="930" on="0"/>
        <pt x="451" y="798" on="0"/>
        <pt x="451" y="727" on="1"/>
        <pt x="451" y="568" on="0"/>
        <pt x="633" y="342" on="0"/>
        <pt x="784" y="342" on="1"/>
        <pt x="843" y="342" on="0"/>
        <pt x="951" y="375" on="0"/>
        <pt x="1050" y="458" on="0"/>
        <pt x="1073" y="520" on="1"/>
        <pt x="1399" y="326" on="1"/>
        <pt x="1358" y="223" on="0"/>
        <pt x="1153" y="65" on="0"/>
        <pt x="903" y="-12" on="0"/>
        <pt x="776" y="-12" on="1"/>
        <pt x="620" y="-12" on="0"/>
        <pt x="343" y="118" on="0"/>
        <pt x="154" y="329" on="0"/>
        <pt x="45" y="600" on="0"/>
        <pt x="45" y="739" on="1"/>
        <pt x="45" y="873" on="0"/>
        <pt x="148" y="1130" on="0"/>
        <pt x="333" y="1336" on="0"/>
        <pt x="619" y="1462" on="0"/>
      </contour>
    </TTGlyph>
    <TTGlyph name="Ccaron" xMin="45" yMin="-12" xMax="1399" yMax="1872">
      <contour>
        <pt x="614" y="1872" on="1"/>
        <pt x="788" y="1743" on="1"/>
        <pt x="963" y="1872" on="1"/>
        <pt x="1159" y="1786" on="1"/>
        <pt x="928" y="1550" on="1"/>
        <pt x="649" y="1550" on="1"/>
        <pt x="418" y="1786" on="1"/>
      </contour>
      <contour>
        <pt x="788" y="1462" on="1"/>
        <pt x="993" y="1462" on="0"/>
        <pt x="1307" y="1290" on="0"/>
        <pt x="1384" y="1145" on="1"/>
        <pt x="1079" y="928" on="1"/>
        <pt x="1059" y="979" on="0"/>
        <pt x="991" y="1052" on="0"/>
        <pt x="907" y="1091" on="0"/>
        <pt x="824" y="1108" on="0"/>
        <pt x="780" y="1108" on="1"/>
        <pt x="698" y="1108" on="0"/>
        <pt x="568" y="1041" on="0"/>
        <pt x="491" y="930" on="0"/>
        <pt x="451" y="798" on="0"/>
        <pt x="451" y="727" on="1"/>
        <pt x="451" y="568" on="0"/>
        <pt x="633" y="342" on="0"/>
        <pt x="784" y="342" on="1"/>
        <pt x="843" y="342" on="0"/>
        <pt x="951" y="375" on="0"/>
        <pt x="1050" y="458" on="0"/>
        <pt x="1073" y="520" on="1"/>
        <pt x="1399" y="326" on="1"/>
        <pt x="1358" y="223" on="0"/>
        <pt x="1153" y="65" on="0"/>
        <pt x="903" y="-12" on="0"/>
        <pt x="776" y="-12" on="1"/>
        <pt x="620" y="-12" on="0"/>
        <pt x="343" y="118" on="0"/>
        <pt x="154" y="329" on="0"/>
        <pt x="45" y="600" on="0"/>
        <pt x="45" y="739" on="1"/>
        <pt x="45" y="873" on="0"/>
        <pt x="148" y="1130" on="0"/>
        <pt x="333" y="1336" on="0"/>
        <pt x="619" y="1462" on="0"/>
      </contour>
    </TTGlyph>
    <TTGlyph name="Ccedilla" xMin="45" yMin="-451" xMax="1399" yMax="1462">
      <contour>
        <pt x="1399" y="326" on="1"/>
        <pt x="1346" y="196" on="0"/>
        <pt x="1064" y="22" on="0"/>
        <pt x="893" y="-4" on="1"/>
        <pt x="993" y="-104" on="0"/>
        <pt x="993" y="-219" on="1"/>
        <pt x="993" y="-317" on="0"/>
        <pt x="866" y="-451" on="0"/>
        <pt x="745" y="-451" on="1"/>
        <pt x="623" y="-451" on="0"/>
        <pt x="492" y="-381" on="1"/>
        <pt x="582" y="-182" on="1"/>
        <pt x="627" y="-221" on="0"/>
        <pt x="680" y="-221" on="1"/>
        <pt x="718" y="-221" on="0"/>
        <pt x="766" y="-178" on="0"/>
        <pt x="766" y="-141" on="1"/>
        <pt x="766" y="-78" on="0"/>
        <pt x="688" y="-6" on="1"/>
        <pt x="548" y="11" on="0"/>
        <pt x="305" y="152" on="0"/>
        <pt x="140" y="357" on="0"/>
        <pt x="45" y="610" on="0"/>
        <pt x="45" y="739" on="1"/>
        <pt x="45" y="873" on="0"/>
        <pt x="148" y="1130" on="0"/>
        <pt x="333" y="1336" on="0"/>
        <pt x="619" y="1462" on="0"/>
        <pt x="788" y="1462" on="1"/>
        <pt x="993" y="1462" on="0"/>
        <pt x="1307" y="1290" on="0"/>
        <pt x="1384" y="1145" on="1"/>
        <pt x="1079" y="928" on="1"/>
        <pt x="1059" y="979" on="0"/>
        <pt x="991" y="1052" on="0"/>
        <pt x="907" y="1091" on="0"/>
        <pt x="824" y="1108" on="0"/>
        <pt x="780" y="1108" on="1"/>
        <pt x="698" y="1108" on="0"/>
        <pt x="568" y="1041" on="0"/>
        <pt x="491" y="930" on="0"/>
        <pt x="451" y="798" on="0"/>
        <pt x="451" y="727" on="1"/>
        <pt x="451" y="568" on="0"/>
        <pt x="633" y="342" on="0"/>
        <pt x="784" y="342" on="1"/>
        <pt x="843" y="342" on="0"/>
        <pt x="951" y="375" on="0"/>
        <pt x="1050" y="458" on="0"/>
        <pt x="1073" y="520" on="1"/>
      </contour>
    </TTGlyph>
    <TTGlyph name="Ccedillaacute" xMin="45" yMin="-451" xMax="1399" yMax="1872">
      <contour>
        <pt x="1114" y="1872" on="1"/>
        <pt x="911" y="1516" on="1"/>
        <pt x="666" y="1581" on="1"/>
        <pt x="768" y="1872" on="1"/>
      </contour>
      <contour>
        <pt x="1399" y="326" on="1"/>
        <pt x="1346" y="196" on="0"/>
        <pt x="1064" y="22" on="0"/>
        <pt x="893" y="-4" on="1"/>
        <pt x="993" y="-104" on="0"/>
        <pt x="993" y="-219" on="1"/>
        <pt x="993" y="-317" on="0"/>
        <pt x="866" y="-451" on="0"/>
        <pt x="745" y="-451" on="1"/>
        <pt x="623" y="-451" on="0"/>
        <pt x="492" y="-381" on="1"/>
        <pt x="582" y="-182" on="1"/>
        <pt x="627" y="-221" on="0"/>
        <pt x="680" y="-221" on="1"/>
        <pt x="718" y="-221" on="0"/>
        <pt x="766" y="-178" on="0"/>
        <pt x="766" y="-141" on="1"/>
        <pt x="766" y="-78" on="0"/>
        <pt x="688" y="-6" on="1"/>
        <pt x="548" y="11" on="0"/>
        <pt x="305" y="152" on="0"/>
        <pt x="140" y="357" on="0"/>
        <pt x="45" y="610" on="0"/>
        <pt x="45" y="739" on="1"/>
        <pt x="45" y="873" on="0"/>
        <pt x="148" y="1130" on="0"/>
        <pt x="333" y="1336" on="0"/>
        <pt x="619" y="1462" on="0"/>
        <pt x="788" y="1462" on="1"/>
        <pt x="993" y="1462" on="0"/>
        <pt x="1307" y="1290" on="0"/>
        <pt x="1384" y="1145" on="1"/>
        <pt x="1079" y="928" on="1"/>
        <pt x="1059" y="979" on="0"/>
        <pt x="991" y="1052" on="0"/>
        <pt x="907" y="1091" on="0"/>
        <pt x="824" y="1108" on="0"/>
        <pt x="780" y="1108" on="1"/>
        <pt x="698" y="1108" on="0"/>
        <pt x="568" y="1041" on="0"/>
        <pt x="491" y="930" on="0"/>
        <pt x="451" y="798" on="0"/>
        <pt x="451" y="727" on="1"/>
        <pt x="451" y="568" on="0"/>
        <pt x="633" y="342" on="0"/>
        <pt x="784" y="342" on="1"/>
        <pt x="843" y="342" on="0"/>
        <pt x="951" y="375" on="0"/>
        <pt x="1050" y="458" on="0"/>
        <pt x="1073" y="520" on="1"/>
      </contour>
    </TTGlyph>
    <TTGlyph name="Ccircumflex" xMin="45" yMin="-12" xMax="1399" yMax="1872">
      <contour>
        <pt x="418" y="1636" on="1"/>
        <pt x="649" y="1872" on="1"/>
        <pt x="928" y="1872" on="1"/>
        <pt x="1159" y="1636" on="1"/>
        <pt x="963" y="1550" on="1"/>
        <pt x="788" y="1679" on="1"/>
        <pt x="614" y="1550" on="1"/>
      </contour>
      <contour>
        <pt x="788" y="1462" on="1"/>
        <pt x="993" y="1462" on="0"/>
        <pt x="1307" y="1290" on="0"/>
        <pt x="1384" y="1145" on="1"/>
        <pt x="1079" y="928" on="1"/>
        <pt x="1059" y="979" on="0"/>
        <pt x="991" y="1052" on="0"/>
        <pt x="907" y="1091" on="0"/>
        <pt x="824" y="1108" on="0"/>
        <pt x="780" y="1108" on="1"/>
        <pt x="698" y="1108" on="0"/>
        <pt x="568" y="1041" on="0"/>
        <pt x="491" y="930" on="0"/>
        <pt x="451" y="798" on="0"/>
        <pt x="451" y="727" on="1"/>
        <pt x="451" y="568" on="0"/>
        <pt x="633" y="342" on="0"/>
        <pt x="784" y="342" on="1"/>
        <pt x="843" y="342" on="0"/>
        <pt x="951" y="375" on="0"/>
        <pt x="1050" y="458" on="0"/>
        <pt x="1073" y="520" on="1"/>
        <pt x="1399" y="326" on="1"/>
        <pt x="1358" y="223" on="0"/>
        <pt x="1153" y="65" on="0"/>
        <pt x="903" y="-12" on="0"/>
        <pt x="776" y="-12" on="1"/>
        <pt x="620" y="-12" on="0"/>
        <pt x="343" y="118" on="0"/>
        <pt x="154" y="329" on="0"/>
        <pt x="45" y="600" on="0"/>
        <pt x="45" y="739" on="1"/>
        <pt x="45" y="873" on="0"/>
        <pt x="148" y="1130" on="0"/>
        <pt x="333" y="1336" on="0"/>
        <pt x="619" y="1462" on="0"/>
      </contour>
    </TTGlyph>
    <TTGlyph name="Cdot" xMin="45" yMin="-12" xMax="1399" yMax="1872">
      <contour>
        <pt x="614" y="1565" on="1"/>
        <pt x="614" y="1872" on="1"/>
        <pt x="963" y="1872" on="1"/>
        <pt x="963" y="1565" on="1"/>
      </contour>
      <contour>
        <pt x="788" y="1462" on="1"/>
        <pt x="993" y="1462" on="0"/>
        <pt x="1307" y="1290" on="0"/>
        <pt x="1384" y="1145" on="1"/>
        <pt x="1079" y="928" on="1"/>
        <pt x="1059" y="979" on="0"/>
        <pt x="991" y="1052" on="0"/>
        <pt x="907" y="1091" on="0"/>
        <pt x="824" y="1108" on="0"/>
        <pt x="780" y="1108" on="1"/>
        <pt x="698" y="1108" on="0"/>
        <pt x="568" y="1041" on="0"/>
        <pt x="491" y="930" on="0"/>
        <pt x="451" y="798" on="0"/>
        <pt x="451" y="727" on="1"/>
        <pt x="451" y="568" on="0"/>
        <pt x="633" y="342" on="0"/>
        <pt x="784" y="342" on="1"/>
        <pt x="843" y="342" on="0"/>
        <pt x="951" y="375" on="0"/>
        <pt x="1050" y="458" on="0"/>
        <pt x="1073" y="520" on="1"/>
        <pt x="1399" y="326" on="1"/>
        <pt x="1358" y="223" on="0"/>
        <pt x="1153" y="65" on="0"/>
        <pt x="903" y="-12" on="0"/>
        <pt x="776" y="-12" on="1"/>
        <pt x="620" y="-12" on="0"/>
        <pt x="343" y="118" on="0"/>
        <pt x="154" y="329" on="0"/>
        <pt x="45" y="600" on="0"/>
        <pt x="45" y="739" on="1"/>
        <pt x="45" y="873" on="0"/>
        <pt x="148" y="1130" on="0"/>
        <pt x="333" y="1336" on="0"/>
        <pt x="619" y="1462" on="0"/>
      </contour>
    </TTGlyph>
    <TTGlyph name="Chedescendercyrillic" xMin="113" yMin="-279" xMax="1485" yMax="1454">
      <contour>
        <pt x="1329" y="348" on="1"/>
        <pt x="1485" y="348" on="1"/>
        <pt x="1485" y="-279" on="1"/>
        <pt x="1147" y="-279" on="1"/>
        <pt x="1147" y="0" on="1"/>
        <pt x="940" y="0" on="1"/>
        <pt x="940" y="516" on="1"/>
        <pt x="930" y="510" on="0"/>
        <pt x="888" y="491" on="0"/>
        <pt x="743" y="459" on="0"/>
        <pt x="659" y="459" on="1"/>
        <pt x="385" y="459" on="0"/>
        <pt x="113" y="702" on="0"/>
        <pt x="113" y="961" on="1"/>
        <pt x="113" y="1454" on="1"/>
        <pt x="502" y="1454" on="1"/>
        <pt x="502" y="1006" on="1"/>
        <pt x="502" y="907" on="0"/>
        <pt x="613" y="817" on="0"/>
        <pt x="758" y="817" on="1"/>
        <pt x="852" y="817" on="0"/>
        <pt x="940" y="854" on="1"/>
        <pt x="940" y="1454" on="1"/>
        <pt x="1329" y="1454" on="1"/>
      </contour>
    </TTGlyph>
    <TTGlyph name="Chedieresiscyrillic" xMin="113" yMin="0" xMax="1329" yMax="1853">
      <contour>
        <pt x="356" y="1567" on="1"/>
        <pt x="356" y="1853" on="1"/>
        <pt x="676" y="1853" on="1"/>
        <pt x="676" y="1567" on="1"/>
      </contour>
      <contour>
        <pt x="827" y="1567" on="1"/>
        <pt x="827" y="1853" on="1"/>
        <pt x="1147" y="1853" on="1"/>
        <pt x="1147" y="1567" on="1"/>
      </contour>
      <contour>
        <pt x="940" y="0" on="1"/>
        <pt x="940" y="516" on="1"/>
        <pt x="930" y="510" on="0"/>
        <pt x="888" y="491" on="0"/>
        <pt x="743" y="459" on="0"/>
        <pt x="659" y="459" on="1"/>
        <pt x="385" y="459" on="0"/>
        <pt x="113" y="702" on="0"/>
        <pt x="113" y="961" on="1"/>
        <pt x="113" y="1454" on="1"/>
        <pt x="502" y="1454" on="1"/>
        <pt x="502" y="1006" on="1"/>
        <pt x="502" y="907" on="0"/>
        <pt x="613" y="817" on="0"/>
        <pt x="758" y="817" on="1"/>
        <pt x="852" y="817" on="0"/>
        <pt x="940" y="854" on="1"/>
        <pt x="940" y="1454" on="1"/>
        <pt x="1329" y="1454" on="1"/>
        <pt x="1329" y="0" on="1"/>
      </contour>
    </TTGlyph>
    <TTGlyph name="Chekhakassiancyrillic" xMin="113" yMin="-279" xMax="1329" yMax="1454">
      <contour>
        <pt x="940" y="1454" on="1"/>
        <pt x="1329" y="1454" on="1"/>
        <pt x="1329" y="0" on="1"/>
        <pt x="1014" y="0" on="1"/>
        <pt x="1014" y="-279" on="1"/>
        <pt x="676" y="-279" on="1"/>
        <pt x="676" y="225" on="1"/>
        <pt x="940" y="225" on="1"/>
        <pt x="940" y="598" on="1"/>
        <pt x="929" y="592" on="0"/>
        <pt x="885" y="573" on="0"/>
        <pt x="729" y="541" on="0"/>
        <pt x="639" y="541" on="1"/>
        <pt x="375" y="541" on="0"/>
        <pt x="113" y="783" on="0"/>
        <pt x="113" y="1042" on="1"/>
        <pt x="113" y="1454" on="1"/>
        <pt x="502" y="1454" on="1"/>
        <pt x="502" y="1087" on="1"/>
        <pt x="502" y="991" on="0"/>
        <pt x="613" y="899" on="0"/>
        <pt x="737" y="899" on="1"/>
        <pt x="842" y="899" on="0"/>
        <pt x="940" y="936" on="1"/>
      </contour>
    </TTGlyph>
    <TTGlyph name="Cheverticalstrokecyrillic" xMin="113" yMin="0" xMax="1329" yMax="1454">
      <contour>
        <pt x="940" y="1454" on="1"/>
        <pt x="1329" y="1454" on="1"/>
        <pt x="1329" y="0" on="1"/>
        <pt x="940" y="0" on="1"/>
        <pt x="940" y="516" on="1"/>
        <pt x="903" y="493" on="0"/>
        <pt x="831" y="477" on="1"/>
        <pt x="831" y="301" on="1"/>
        <pt x="674" y="301" on="1"/>
        <pt x="674" y="459" on="1"/>
        <pt x="659" y="459" on="1"/>
        <pt x="385" y="459" on="0"/>
        <pt x="113" y="702" on="0"/>
        <pt x="113" y="961" on="1"/>
        <pt x="113" y="1454" on="1"/>
        <pt x="502" y="1454" on="1"/>
        <pt x="502" y="1006" on="1"/>
        <pt x="502" y="923" on="0"/>
        <pt x="579" y="832" on="0"/>
        <pt x="674" y="821" on="1"/>
        <pt x="674" y="1034" on="1"/>
        <pt x="831" y="1034" on="1"/>
        <pt x="831" y="823" on="1"/>
        <pt x="887" y="832" on="0"/>
        <pt x="940" y="854" on="1"/>
      </contour>
    </TTGlyph>
    <TTGlyph name="D" xMin="125" yMin="0" xMax="1417" yMax="1454">
      <contour>
        <pt x="125" y="0" on="1"/>
        <pt x="125" y="1454" on="1"/>
        <pt x="684" y="1454" on="1"/>
        <pt x="860" y="1454" on="0"/>
        <pt x="1143" y="1341" on="0"/>
        <pt x="1322" y="1142" on="0"/>
        <pt x="1417" y="881" on="0"/>
        <pt x="1417" y="729" on="1"/>
        <pt x="1417" y="399" on="0"/>
        <pt x="1016" y="0" on="0"/>
        <pt x="684" y="0" on="1"/>
      </contour>
      <contour>
        <pt x="684" y="1106" on="1"/>
        <pt x="524" y="1106" on="1"/>
        <pt x="524" y="348" on="1"/>
        <pt x="684" y="348" on="1"/>
        <pt x="837" y="348" on="0"/>
        <pt x="1012" y="560" on="0"/>
        <pt x="1012" y="729" on="1"/>
        <pt x="1012" y="900" on="0"/>
        <pt x="836" y="1106" on="0"/>
      </contour>
    </TTGlyph>
    <TTGlyph name="Dcaron" xMin="125" yMin="0" xMax="1417" yMax="1872">
      <contour>
        <pt x="475" y="1872" on="1"/>
        <pt x="649" y="1743" on="1"/>
        <pt x="823" y="1872" on="1"/>
        <pt x="1020" y="1786" on="1"/>
        <pt x="788" y="1550" on="1"/>
        <pt x="510" y="1550" on="1"/>
        <pt x="279" y="1786" on="1"/>
      </contour>
      <contour>
        <pt x="125" y="0" on="1"/>
        <pt x="125" y="1454" on="1"/>
        <pt x="684" y="1454" on="1"/>
        <pt x="860" y="1454" on="0"/>
        <pt x="1143" y="1341" on="0"/>
        <pt x="1322" y="1142" on="0"/>
        <pt x="1417" y="881" on="0"/>
        <pt x="1417" y="729" on="1"/>
        <pt x="1417" y="399" on="0"/>
        <pt x="1016" y="0" on="0"/>
        <pt x="684" y="0" on="1"/>
      </contour>
      <contour>
        <pt x="684" y="1106" on="1"/>
        <pt x="524" y="1106" on="1"/>
        <pt x="524" y="348" on="1"/>
        <pt x="684" y="348" on="1"/>
        <pt x="837" y="348" on="0"/>
        <pt x="1012" y="560" on="0"/>
        <pt x="1012" y="729" on="1"/>
        <pt x="1012" y="900" on="0"/>
        <pt x="836" y="1106" on="0"/>
      </contour>
    </TTGlyph>
    <TTGlyph name="Dcroat" xMin="57" yMin="0" xMax="1425" yMax="1454">
      <contour>
        <pt x="692" y="1454" on="1"/>
        <pt x="868" y="1454" on="0"/>
        <pt x="1151" y="1341" on="0"/>
        <pt x="1330" y="1142" on="0"/>
        <pt x="1425" y="881" on="0"/>
        <pt x="1425" y="729" on="1"/>
        <pt x="1425" y="399" on="0"/>
        <pt x="1024" y="0" on="0"/>
        <pt x="692" y="0" on="1"/>
        <pt x="133" y="0" on="1"/>
        <pt x="133" y="588" on="1"/>
        <pt x="57" y="588" on="1"/>
        <pt x="57" y="874" on="1"/>
        <pt x="133" y="874" on="1"/>
        <pt x="133" y="1454" on="1"/>
      </contour>
      <contour>
        <pt x="692" y="348" on="1"/>
        <pt x="845" y="348" on="0"/>
        <pt x="1020" y="560" on="0"/>
        <pt x="1020" y="729" on="1"/>
        <pt x="1020" y="900" on="0"/>
        <pt x="844" y="1106" on="0"/>
        <pt x="692" y="1106" on="1"/>
        <pt x="532" y="1106" on="1"/>
        <pt x="532" y="874" on="1"/>
        <pt x="766" y="874" on="1"/>
        <pt x="766" y="588" on="1"/>
        <pt x="532" y="588" on="1"/>
        <pt x="532" y="348" on="1"/>
      </contour>
    </TTGlyph>
    <TTGlyph name="Ddotbelow" xMin="125" yMin="-438" xMax="1417" yMax="1454">
      <contour>
        <pt x="125" y="0" on="1"/>
        <pt x="125" y="1454" on="1"/>
        <pt x="684" y="1454" on="1"/>
        <pt x="860" y="1454" on="0"/>
        <pt x="1143" y="1341" on="0"/>
        <pt x="1322" y="1142" on="0"/>
        <pt x="1417" y="881" on="0"/>
        <pt x="1417" y="729" on="1"/>
        <pt x="1417" y="399" on="0"/>
        <pt x="1016" y="0" on="0"/>
        <pt x="684" y="0" on="1"/>
      </contour>
      <contour>
        <pt x="684" y="1106" on="1"/>
        <pt x="524" y="1106" on="1"/>
        <pt x="524" y="348" on="1"/>
        <pt x="684" y="348" on="1"/>
        <pt x="837" y="348" on="0"/>
        <pt x="1012" y="560" on="0"/>
        <pt x="1012" y="729" on="1"/>
        <pt x="1012" y="900" on="0"/>
        <pt x="836" y="1106" on="0"/>
      </contour>
      <contour>
        <pt x="559" y="-438" on="1"/>
        <pt x="559" y="-131" on="1"/>
        <pt x="907" y="-131" on="1"/>
        <pt x="907" y="-438" on="1"/>
      </contour>
    </TTGlyph>
    <TTGlyph name="Delta" xMin="10" yMin="0" xMax="1303" yMax="1454">
      <contour>
        <pt x="1303" y="307" on="1"/>
        <pt x="1303" y="0" on="1"/>
        <pt x="10" y="0" on="1"/>
        <pt x="10" y="307" on="1"/>
        <pt x="496" y="1454" on="1"/>
        <pt x="819" y="1454" on="1"/>
      </contour>
      <contour>
        <pt x="930" y="348" on="1"/>
        <pt x="657" y="1018" on="1"/>
        <pt x="397" y="348" on="1"/>
      </contour>
    </TTGlyph>
    <TTGlyph name="Dlinebelow" xMin="125" yMin="-383" xMax="1417" yMax="1454">
      <contour>
        <pt x="125" y="0" on="1"/>
        <pt x="125" y="1454" on="1"/>
        <pt x="684" y="1454" on="1"/>
        <pt x="860" y="1454" on="0"/>
        <pt x="1143" y="1341" on="0"/>
        <pt x="1322" y="1142" on="0"/>
        <pt x="1417" y="881" on="0"/>
        <pt x="1417" y="729" on="1"/>
        <pt x="1417" y="399" on="0"/>
        <pt x="1016" y="0" on="0"/>
        <pt x="684" y="0" on="1"/>
      </contour>
      <contour>
        <pt x="684" y="1106" on="1"/>
        <pt x="524" y="1106" on="1"/>
        <pt x="524" y="348" on="1"/>
        <pt x="684" y="348" on="1"/>
        <pt x="837" y="348" on="0"/>
        <pt x="1012" y="560" on="0"/>
        <pt x="1012" y="729" on="1"/>
        <pt x="1012" y="900" on="0"/>
        <pt x="836" y="1106" on="0"/>
      </contour>
      <contour>
        <pt x="416" y="-383" on="1"/>
        <pt x="416" y="-152" on="1"/>
        <pt x="1051" y="-152" on="1"/>
        <pt x="1051" y="-383" on="1"/>
      </contour>
    </TTGlyph>
    <TTGlyph name="E" xMin="125" yMin="0" xMax="1161" yMax="1454">
      <contour>
        <pt x="1161" y="348" on="1"/>
        <pt x="1161" y="0" on="1"/>
        <pt x="125" y="0" on="1"/>
        <pt x="125" y="1454" on="1"/>
        <pt x="1143" y="1454" on="1"/>
        <pt x="1143" y="1106" on="1"/>
        <pt x="524" y="1106" on="1"/>
        <pt x="524" y="901" on="1"/>
        <pt x="1053" y="901" on="1"/>
        <pt x="1053" y="578" on="1"/>
        <pt x="524" y="578" on="1"/>
        <pt x="524" y="348" on="1"/>
      </contour>
    </TTGlyph>
    <TTGlyph name="Eacute" xMin="125" yMin="0" xMax="1161" yMax="1872">
      <contour>
        <pt x="770" y="1516" on="1"/>
        <pt x="524" y="1581" on="1"/>
        <pt x="627" y="1872" on="1"/>
        <pt x="973" y="1872" on="1"/>
      </contour>
      <contour>
        <pt x="1161" y="348" on="1"/>
        <pt x="1161" y="0" on="1"/>
        <pt x="125" y="0" on="1"/>
        <pt x="125" y="1454" on="1"/>
        <pt x="1143" y="1454" on="1"/>
        <pt x="1143" y="1106" on="1"/>
        <pt x="524" y="1106" on="1"/>
        <pt x="524" y="901" on="1"/>
        <pt x="1053" y="901" on="1"/>
        <pt x="1053" y="578" on="1"/>
        <pt x="524" y="578" on="1"/>
        <pt x="524" y="348" on="1"/>
      </contour>
    </TTGlyph>
    <TTGlyph name="Ebreve" xMin="125" yMin="0" xMax="1161" yMax="1872">
      <contour>
        <pt x="772" y="1872" on="1"/>
        <pt x="973" y="1872" on="1"/>
        <pt x="973" y="1725" on="0"/>
        <pt x="791" y="1540" on="0"/>
        <pt x="503" y="1540" on="0"/>
        <pt x="322" y="1725" on="0"/>
        <pt x="322" y="1872" on="1"/>
        <pt x="522" y="1872" on="1"/>
        <pt x="522" y="1804" on="0"/>
        <pt x="596" y="1706" on="0"/>
        <pt x="647" y="1706" on="1"/>
        <pt x="694" y="1706" on="0"/>
        <pt x="766" y="1800" on="0"/>
      </contour>
      <contour>
        <pt x="1161" y="348" on="1"/>
        <pt x="1161" y="0" on="1"/>
        <pt x="125" y="0" on="1"/>
        <pt x="125" y="1454" on="1"/>
        <pt x="1143" y="1454" on="1"/>
        <pt x="1143" y="1106" on="1"/>
        <pt x="524" y="1106" on="1"/>
        <pt x="524" y="901" on="1"/>
        <pt x="1053" y="901" on="1"/>
        <pt x="1053" y="578" on="1"/>
        <pt x="524" y="578" on="1"/>
        <pt x="524" y="348" on="1"/>
      </contour>
    </TTGlyph>
    <TTGlyph name="Ecaron" xMin="125" yMin="0" xMax="1161" yMax="1872">
      <contour>
        <pt x="473" y="1872" on="1"/>
        <pt x="647" y="1743" on="1"/>
        <pt x="821" y="1872" on="1"/>
        <pt x="1018" y="1786" on="1"/>
        <pt x="786" y="1550" on="1"/>
        <pt x="508" y="1550" on="1"/>
        <pt x="276" y="1786" on="1"/>
      </contour>
      <contour>
        <pt x="1161" y="348" on="1"/>
        <pt x="1161" y="0" on="1"/>
        <pt x="125" y="0" on="1"/>
        <pt x="125" y="1454" on="1"/>
        <pt x="1143" y="1454" on="1"/>
        <pt x="1143" y="1106" on="1"/>
        <pt x="524" y="1106" on="1"/>
        <pt x="524" y="901" on="1"/>
        <pt x="1053" y="901" on="1"/>
        <pt x="1053" y="578" on="1"/>
        <pt x="524" y="578" on="1"/>
        <pt x="524" y="348" on="1"/>
      </contour>
    </TTGlyph>
    <TTGlyph name="Ecedillabreve" xMin="125" yMin="-451" xMax="1161" yMax="1872">
      <contour>
        <pt x="791" y="1540" on="0"/>
        <pt x="503" y="1540" on="0"/>
        <pt x="322" y="1725" on="0"/>
        <pt x="322" y="1872" on="1"/>
        <pt x="522" y="1872" on="1"/>
        <pt x="522" y="1804" on="0"/>
        <pt x="596" y="1706" on="0"/>
        <pt x="647" y="1706" on="1"/>
        <pt x="694" y="1706" on="0"/>
        <pt x="766" y="1800" on="0"/>
        <pt x="772" y="1872" on="1"/>
        <pt x="973" y="1872" on="1"/>
        <pt x="973" y="1725" on="0"/>
      </contour>
      <contour>
        <pt x="1161" y="348" on="1"/>
        <pt x="1161" y="0" on="1"/>
        <pt x="760" y="0" on="1"/>
        <pt x="864" y="-101" on="0"/>
        <pt x="864" y="-219" on="1"/>
        <pt x="864" y="-317" on="0"/>
        <pt x="737" y="-451" on="0"/>
        <pt x="616" y="-451" on="1"/>
        <pt x="493" y="-451" on="0"/>
        <pt x="362" y="-381" on="1"/>
        <pt x="453" y="-182" on="1"/>
        <pt x="498" y="-221" on="0"/>
        <pt x="551" y="-221" on="1"/>
        <pt x="589" y="-221" on="0"/>
        <pt x="637" y="-178" on="0"/>
        <pt x="637" y="-141" on="1"/>
        <pt x="637" y="-73" on="0"/>
        <pt x="551" y="0" on="1"/>
        <pt x="125" y="0" on="1"/>
        <pt x="125" y="1454" on="1"/>
        <pt x="1143" y="1454" on="1"/>
        <pt x="1143" y="1106" on="1"/>
        <pt x="524" y="1106" on="1"/>
        <pt x="524" y="901" on="1"/>
        <pt x="1053" y="901" on="1"/>
        <pt x="1053" y="578" on="1"/>
        <pt x="524" y="578" on="1"/>
        <pt x="524" y="348" on="1"/>
      </contour>
    </TTGlyph>
    <TTGlyph name="Ecircumflex" xMin="125" yMin="0" xMax="1161" yMax="1872">
      <contour>
        <pt x="276" y="1636" on="1"/>
        <pt x="508" y="1872" on="1"/>
        <pt x="786" y="1872" on="1"/>
        <pt x="1018" y="1636" on="1"/>
        <pt x="821" y="1550" on="1"/>
        <pt x="647" y="1679" on="1"/>
        <pt x="473" y="1550" on="1"/>
      </contour>
      <contour>
        <pt x="1161" y="348" on="1"/>
        <pt x="1161" y="0" on="1"/>
        <pt x="125" y="0" on="1"/>
        <pt x="125" y="1454" on="1"/>
        <pt x="1143" y="1454" on="1"/>
        <pt x="1143" y="1106" on="1"/>
        <pt x="524" y="1106" on="1"/>
        <pt x="524" y="901" on="1"/>
        <pt x="1053" y="901" on="1"/>
        <pt x="1053" y="578" on="1"/>
        <pt x="524" y="578" on="1"/>
        <pt x="524" y="348" on="1"/>
      </contour>
    </TTGlyph>
    <TTGlyph name="Ecircumflexacute" xMin="125" yMin="0" xMax="1321" yMax="2132">
      <contour>
        <pt x="1118" y="1776" on="1"/>
        <pt x="872" y="1841" on="1"/>
        <pt x="975" y="2132" on="1"/>
        <pt x="1321" y="2132" on="1"/>
      </contour>
      <contour>
        <pt x="276" y="1636" on="1"/>
        <pt x="508" y="1872" on="1"/>
        <pt x="786" y="1872" on="1"/>
        <pt x="1018" y="1636" on="1"/>
        <pt x="821" y="1550" on="1"/>
        <pt x="647" y="1679" on="1"/>
        <pt x="473" y="1550" on="1"/>
      </contour>
      <contour>
        <pt x="1161" y="348" on="1"/>
        <pt x="1161" y="0" on="1"/>
        <pt x="125" y="0" on="1"/>
        <pt x="125" y="1454" on="1"/>
        <pt x="1143" y="1454" on="1"/>
        <pt x="1143" y="1106" on="1"/>
        <pt x="524" y="1106" on="1"/>
        <pt x="524" y="901" on="1"/>
        <pt x="1053" y="901" on="1"/>
        <pt x="1053" y="578" on="1"/>
        <pt x="524" y="578" on="1"/>
        <pt x="524" y="348" on="1"/>
      </contour>
    </TTGlyph>
    <TTGlyph name="Ecircumflexdotbelow" xMin="125" yMin="-438" xMax="1161" yMax="1872">
      <contour>
        <pt x="276" y="1636" on="1"/>
        <pt x="508" y="1872" on="1"/>
        <pt x="786" y="1872" on="1"/>
        <pt x="1018" y="1636" on="1"/>
        <pt x="821" y="1550" on="1"/>
        <pt x="647" y="1679" on="1"/>
        <pt x="473" y="1550" on="1"/>
      </contour>
      <contour>
        <pt x="1161" y="348" on="1"/>
        <pt x="1161" y="0" on="1"/>
        <pt x="125" y="0" on="1"/>
        <pt x="125" y="1454" on="1"/>
        <pt x="1143" y="1454" on="1"/>
        <pt x="1143" y="1106" on="1"/>
        <pt x="524" y="1106" on="1"/>
        <pt x="524" y="901" on="1"/>
        <pt x="1053" y="901" on="1"/>
        <pt x="1053" y="578" on="1"/>
        <pt x="524" y="578" on="1"/>
        <pt x="524" y="348" on="1"/>
      </contour>
      <contour>
        <pt x="473" y="-438" on="1"/>
        <pt x="473" y="-131" on="1"/>
        <pt x="821" y="-131" on="1"/>
        <pt x="821" y="-438" on="1"/>
      </contour>
    </TTGlyph>
    <TTGlyph name="Ecircumflexgrave" xMin="-59" yMin="0" xMax="1161" yMax="2134">
      <contour>
        <pt x="-59" y="2134" on="1"/>
        <pt x="287" y="2134" on="1"/>
        <pt x="389" y="1843" on="1"/>
        <pt x="143" y="1778" on="1"/>
      </contour>
      <contour>
        <pt x="256" y="1636" on="1"/>
        <pt x="487" y="1872" on="1"/>
        <pt x="766" y="1872" on="1"/>
        <pt x="997" y="1636" on="1"/>
        <pt x="801" y="1550" on="1"/>
        <pt x="627" y="1679" on="1"/>
        <pt x="453" y="1550" on="1"/>
      </contour>
      <contour>
        <pt x="1161" y="348" on="1"/>
        <pt x="1161" y="0" on="1"/>
        <pt x="125" y="0" on="1"/>
        <pt x="125" y="1454" on="1"/>
        <pt x="1143" y="1454" on="1"/>
        <pt x="1143" y="1106" on="1"/>
        <pt x="524" y="1106" on="1"/>
        <pt x="524" y="901" on="1"/>
        <pt x="1053" y="901" on="1"/>
        <pt x="1053" y="578" on="1"/>
        <pt x="524" y="578" on="1"/>
        <pt x="524" y="348" on="1"/>
      </contour>
    </TTGlyph>
    <TTGlyph name="Ecircumflexhookabove" xMin="125" yMin="0" xMax="1200" yMax="2154">
      <contour>
        <pt x="866" y="1931" on="1"/>
        <pt x="762" y="2034" on="1"/>
        <pt x="877" y="2154" on="0"/>
        <pt x="999" y="2154" on="1"/>
        <pt x="1090" y="2154" on="0"/>
        <pt x="1200" y="2060" on="0"/>
        <pt x="1200" y="1982" on="1"/>
        <pt x="1200" y="1928" on="0"/>
        <pt x="1164" y="1842" on="0"/>
        <pt x="1105" y="1777" on="0"/>
        <pt x="1049" y="1731" on="1"/>
        <pt x="956" y="1827" on="1"/>
        <pt x="1030" y="1878" on="0"/>
        <pt x="1030" y="1925" on="1"/>
        <pt x="1030" y="1952" on="0"/>
        <pt x="997" y="1987" on="0"/>
        <pt x="969" y="1987" on="1"/>
        <pt x="950" y="1987" on="0"/>
        <pt x="915" y="1971" on="0"/>
        <pt x="893" y="1954" on="0"/>
      </contour>
      <contour>
        <pt x="256" y="1636" on="1"/>
        <pt x="487" y="1872" on="1"/>
        <pt x="766" y="1872" on="1"/>
        <pt x="997" y="1636" on="1"/>
        <pt x="801" y="1550" on="1"/>
        <pt x="627" y="1679" on="1"/>
        <pt x="453" y="1550" on="1"/>
      </contour>
      <contour>
        <pt x="1161" y="348" on="1"/>
        <pt x="1161" y="0" on="1"/>
        <pt x="125" y="0" on="1"/>
        <pt x="125" y="1454" on="1"/>
        <pt x="1143" y="1454" on="1"/>
        <pt x="1143" y="1106" on="1"/>
        <pt x="524" y="1106" on="1"/>
        <pt x="524" y="901" on="1"/>
        <pt x="1053" y="901" on="1"/>
        <pt x="1053" y="578" on="1"/>
        <pt x="524" y="578" on="1"/>
        <pt x="524" y="348" on="1"/>
      </contour>
    </TTGlyph>
    <TTGlyph name="Ecircumflextilde" xMin="125" yMin="0" xMax="1161" yMax="2290">
      <contour>
        <pt x="508" y="2064" on="1"/>
        <pt x="482" y="2064" on="0"/>
        <pt x="444" y="2044" on="0"/>
        <pt x="426" y="2018" on="0"/>
        <pt x="416" y="1986" on="0"/>
        <pt x="414" y="1971" on="0"/>
        <pt x="414" y="1966" on="1"/>
        <pt x="207" y="1966" on="1"/>
        <pt x="207" y="1990" on="0"/>
        <pt x="226" y="2065" on="0"/>
        <pt x="271" y="2157" on="0"/>
        <pt x="334" y="2236" on="0"/>
        <pt x="434" y="2290" on="0"/>
        <pt x="492" y="2290" on="1"/>
        <pt x="537" y="2290" on="0"/>
        <pt x="619" y="2257" on="0"/>
        <pt x="670" y="2218" on="0"/>
        <pt x="737" y="2185" on="0"/>
        <pt x="768" y="2185" on="1"/>
        <pt x="793" y="2185" on="0"/>
        <pt x="833" y="2206" on="0"/>
        <pt x="853" y="2234" on="0"/>
        <pt x="866" y="2267" on="0"/>
        <pt x="870" y="2286" on="0"/>
        <pt x="870" y="2290" on="1"/>
        <pt x="1075" y="2290" on="1"/>
        <pt x="1075" y="2273" on="0"/>
        <pt x="1055" y="2203" on="0"/>
        <pt x="1009" y="2108" on="0"/>
        <pt x="945" y="2025" on="0"/>
        <pt x="841" y="1966" on="0"/>
        <pt x="782" y="1966" on="1"/>
        <pt x="740" y="1966" on="0"/>
        <pt x="659" y="1997" on="0"/>
        <pt x="606" y="2033" on="0"/>
        <pt x="538" y="2064" on="0"/>
      </contour>
      <contour>
        <pt x="270" y="1636" on="1"/>
        <pt x="502" y="1872" on="1"/>
        <pt x="780" y="1872" on="1"/>
        <pt x="1012" y="1636" on="1"/>
        <pt x="815" y="1550" on="1"/>
        <pt x="641" y="1679" on="1"/>
        <pt x="467" y="1550" on="1"/>
      </contour>
      <contour>
        <pt x="1161" y="348" on="1"/>
        <pt x="1161" y="0" on="1"/>
        <pt x="125" y="0" on="1"/>
        <pt x="125" y="1454" on="1"/>
        <pt x="1143" y="1454" on="1"/>
        <pt x="1143" y="1106" on="1"/>
        <pt x="524" y="1106" on="1"/>
        <pt x="524" y="901" on="1"/>
        <pt x="1053" y="901" on="1"/>
        <pt x="1053" y="578" on="1"/>
        <pt x="524" y="578" on="1"/>
        <pt x="524" y="348" on="1"/>
      </contour>
    </TTGlyph>
    <TTGlyph name="Edblgrave" xMin="125" yMin="0" xMax="1161" yMax="1874">
      <contour>
        <pt x="203" y="1874" on="1"/>
        <pt x="487" y="1874" on="1"/>
        <pt x="569" y="1583" on="1"/>
        <pt x="385" y="1518" on="1"/>
      </contour>
      <contour>
        <pt x="592" y="1874" on="1"/>
        <pt x="877" y="1874" on="1"/>
        <pt x="958" y="1583" on="1"/>
        <pt x="774" y="1518" on="1"/>
      </contour>
      <contour>
        <pt x="1161" y="348" on="1"/>
        <pt x="1161" y="0" on="1"/>
        <pt x="125" y="0" on="1"/>
        <pt x="125" y="1454" on="1"/>
        <pt x="1143" y="1454" on="1"/>
        <pt x="1143" y="1106" on="1"/>
        <pt x="524" y="1106" on="1"/>
        <pt x="524" y="901" on="1"/>
        <pt x="1053" y="901" on="1"/>
        <pt x="1053" y="578" on="1"/>
        <pt x="524" y="578" on="1"/>
        <pt x="524" y="348" on="1"/>
      </contour>
    </TTGlyph>
    <TTGlyph name="Edieresis" xMin="125" yMin="0" xMax="1161" yMax="1853">
      <contour>
        <pt x="252" y="1567" on="1"/>
        <pt x="252" y="1853" on="1"/>
        <pt x="571" y="1853" on="1"/>
        <pt x="571" y="1567" on="1"/>
      </contour>
      <contour>
        <pt x="723" y="1567" on="1"/>
        <pt x="723" y="1853" on="1"/>
        <pt x="1042" y="1853" on="1"/>
        <pt x="1042" y="1567" on="1"/>
      </contour>
      <contour>
        <pt x="1161" y="348" on="1"/>
        <pt x="1161" y="0" on="1"/>
        <pt x="125" y="0" on="1"/>
        <pt x="125" y="1454" on="1"/>
        <pt x="1143" y="1454" on="1"/>
        <pt x="1143" y="1106" on="1"/>
        <pt x="524" y="1106" on="1"/>
        <pt x="524" y="901" on="1"/>
        <pt x="1053" y="901" on="1"/>
        <pt x="1053" y="578" on="1"/>
        <pt x="524" y="578" on="1"/>
        <pt x="524" y="348" on="1"/>
      </contour>
    </TTGlyph>
    <TTGlyph name="Edot" xMin="125" yMin="0" xMax="1161" yMax="1872">
      <contour>
        <pt x="473" y="1565" on="1"/>
        <pt x="473" y="1872" on="1"/>
        <pt x="821" y="1872" on="1"/>
        <pt x="821" y="1565" on="1"/>
      </contour>
      <contour>
        <pt x="1161" y="348" on="1"/>
        <pt x="1161" y="0" on="1"/>
        <pt x="125" y="0" on="1"/>
        <pt x="125" y="1454" on="1"/>
        <pt x="1143" y="1454" on="1"/>
        <pt x="1143" y="1106" on="1"/>
        <pt x="524" y="1106" on="1"/>
        <pt x="524" y="901" on="1"/>
        <pt x="1053" y="901" on="1"/>
        <pt x="1053" y="578" on="1"/>
        <pt x="524" y="578" on="1"/>
        <pt x="524" y="348" on="1"/>
      </contour>
    </TTGlyph>
    <TTGlyph name="Edotbelow" xMin="125" yMin="-438" xMax="1161" yMax="1454">
      <contour>
        <pt x="1161" y="348" on="1"/>
        <pt x="1161" y="0" on="1"/>
        <pt x="125" y="0" on="1"/>
        <pt x="125" y="1454" on="1"/>
        <pt x="1143" y="1454" on="1"/>
        <pt x="1143" y="1106" on="1"/>
        <pt x="524" y="1106" on="1"/>
        <pt x="524" y="901" on="1"/>
        <pt x="1053" y="901" on="1"/>
        <pt x="1053" y="578" on="1"/>
        <pt x="524" y="578" on="1"/>
        <pt x="524" y="348" on="1"/>
      </contour>
      <contour>
        <pt x="473" y="-438" on="1"/>
        <pt x="473" y="-131" on="1"/>
        <pt x="821" y="-131" on="1"/>
        <pt x="821" y="-438" on="1"/>
      </contour>
    </TTGlyph>
    <TTGlyph name="Egrave" xMin="125" yMin="0" xMax="1161" yMax="1872">
      <contour>
        <pt x="340" y="1872" on="1"/>
        <pt x="686" y="1872" on="1"/>
        <pt x="788" y="1581" on="1"/>
        <pt x="543" y="1516" on="1"/>
      </contour>
      <contour>
        <pt x="1161" y="348" on="1"/>
        <pt x="1161" y="0" on="1"/>
        <pt x="125" y="0" on="1"/>
        <pt x="125" y="1454" on="1"/>
        <pt x="1143" y="1454" on="1"/>
        <pt x="1143" y="1106" on="1"/>
        <pt x="524" y="1106" on="1"/>
        <pt x="524" y="901" on="1"/>
        <pt x="1053" y="901" on="1"/>
        <pt x="1053" y="578" on="1"/>
        <pt x="524" y="578" on="1"/>
        <pt x="524" y="348" on="1"/>
      </contour>
    </TTGlyph>
    <TTGlyph name="Ehookabove" xMin="125" yMin="0" xMax="1161" yMax="1985">
      <contour>
        <pt x="532" y="1761" on="1"/>
        <pt x="428" y="1864" on="1"/>
        <pt x="543" y="1985" on="0"/>
        <pt x="666" y="1985" on="1"/>
        <pt x="757" y="1985" on="0"/>
        <pt x="866" y="1890" on="0"/>
        <pt x="866" y="1812" on="1"/>
        <pt x="866" y="1758" on="0"/>
        <pt x="830" y="1672" on="0"/>
        <pt x="771" y="1607" on="0"/>
        <pt x="715" y="1561" on="1"/>
        <pt x="623" y="1657" on="1"/>
        <pt x="696" y="1707" on="0"/>
        <pt x="696" y="1755" on="1"/>
        <pt x="696" y="1782" on="0"/>
        <pt x="663" y="1817" on="0"/>
        <pt x="635" y="1817" on="1"/>
        <pt x="616" y="1817" on="0"/>
        <pt x="581" y="1801" on="0"/>
        <pt x="559" y="1784" on="0"/>
      </contour>
      <contour>
        <pt x="1161" y="348" on="1"/>
        <pt x="1161" y="0" on="1"/>
        <pt x="125" y="0" on="1"/>
        <pt x="125" y="1454" on="1"/>
        <pt x="1143" y="1454" on="1"/>
        <pt x="1143" y="1106" on="1"/>
        <pt x="524" y="1106" on="1"/>
        <pt x="524" y="901" on="1"/>
        <pt x="1053" y="901" on="1"/>
        <pt x="1053" y="578" on="1"/>
        <pt x="524" y="578" on="1"/>
        <pt x="524" y="348" on="1"/>
      </contour>
    </TTGlyph>
    <TTGlyph name="Einvertedbreve" xMin="125" yMin="0" xMax="1161" yMax="1872">
      <contour>
        <pt x="522" y="1540" on="1"/>
        <pt x="322" y="1540" on="1"/>
        <pt x="322" y="1687" on="0"/>
        <pt x="503" y="1872" on="0"/>
        <pt x="791" y="1872" on="0"/>
        <pt x="973" y="1687" on="0"/>
        <pt x="973" y="1540" on="1"/>
        <pt x="772" y="1540" on="1"/>
        <pt x="766" y="1612" on="0"/>
        <pt x="694" y="1706" on="0"/>
        <pt x="647" y="1706" on="1"/>
        <pt x="596" y="1706" on="0"/>
        <pt x="522" y="1608" on="0"/>
      </contour>
      <contour>
        <pt x="1161" y="348" on="1"/>
        <pt x="1161" y="0" on="1"/>
        <pt x="125" y="0" on="1"/>
        <pt x="125" y="1454" on="1"/>
        <pt x="1143" y="1454" on="1"/>
        <pt x="1143" y="1106" on="1"/>
        <pt x="524" y="1106" on="1"/>
        <pt x="524" y="901" on="1"/>
        <pt x="1053" y="901" on="1"/>
        <pt x="1053" y="578" on="1"/>
        <pt x="524" y="578" on="1"/>
        <pt x="524" y="348" on="1"/>
      </contour>
    </TTGlyph>
    <TTGlyph name="Emacron" xMin="125" yMin="0" xMax="1161" yMax="1851">
      <contour>
        <pt x="332" y="1620" on="1"/>
        <pt x="332" y="1851" on="1"/>
        <pt x="967" y="1851" on="1"/>
        <pt x="967" y="1620" on="1"/>
      </contour>
      <contour>
        <pt x="1161" y="348" on="1"/>
        <pt x="1161" y="0" on="1"/>
        <pt x="125" y="0" on="1"/>
        <pt x="125" y="1454" on="1"/>
        <pt x="1143" y="1454" on="1"/>
        <pt x="1143" y="1106" on="1"/>
        <pt x="524" y="1106" on="1"/>
        <pt x="524" y="901" on="1"/>
        <pt x="1053" y="901" on="1"/>
        <pt x="1053" y="578" on="1"/>
        <pt x="524" y="578" on="1"/>
        <pt x="524" y="348" on="1"/>
      </contour>
    </TTGlyph>
    <TTGlyph name="Emacronacute" xMin="125" yMin="0" xMax="1161" yMax="2269">
      <contour>
        <pt x="772" y="1913" on="1"/>
        <pt x="526" y="1978" on="1"/>
        <pt x="629" y="2269" on="1"/>
        <pt x="975" y="2269" on="1"/>
      </contour>
      <contour>
        <pt x="332" y="1620" on="1"/>
        <pt x="332" y="1851" on="1"/>
        <pt x="967" y="1851" on="1"/>
        <pt x="967" y="1620" on="1"/>
      </contour>
      <contour>
        <pt x="1161" y="348" on="1"/>
        <pt x="1161" y="0" on="1"/>
        <pt x="125" y="0" on="1"/>
        <pt x="125" y="1454" on="1"/>
        <pt x="1143" y="1454" on="1"/>
        <pt x="1143" y="1106" on="1"/>
        <pt x="524" y="1106" on="1"/>
        <pt x="524" y="901" on="1"/>
        <pt x="1053" y="901" on="1"/>
        <pt x="1053" y="578" on="1"/>
        <pt x="524" y="578" on="1"/>
        <pt x="524" y="348" on="1"/>
      </contour>
    </TTGlyph>
    <TTGlyph name="Emacrongrave" xMin="125" yMin="0" xMax="1161" yMax="2269">
      <contour>
        <pt x="342" y="2269" on="1"/>
        <pt x="688" y="2269" on="1"/>
        <pt x="791" y="1978" on="1"/>
        <pt x="545" y="1913" on="1"/>
      </contour>
      <contour>
        <pt x="332" y="1620" on="1"/>
        <pt x="332" y="1851" on="1"/>
        <pt x="967" y="1851" on="1"/>
        <pt x="967" y="1620" on="1"/>
      </contour>
      <contour>
        <pt x="1161" y="348" on="1"/>
        <pt x="1161" y="0" on="1"/>
        <pt x="125" y="0" on="1"/>
        <pt x="125" y="1454" on="1"/>
        <pt x="1143" y="1454" on="1"/>
        <pt x="1143" y="1106" on="1"/>
        <pt x="524" y="1106" on="1"/>
        <pt x="524" y="901" on="1"/>
        <pt x="1053" y="901" on="1"/>
        <pt x="1053" y="578" on="1"/>
        <pt x="524" y="578" on="1"/>
        <pt x="524" y="348" on="1"/>
      </contour>
    </TTGlyph>
    <TTGlyph name="Endescendercyrillic" xMin="125" yMin="-279" xMax="1618" yMax="1454">
      <contour>
        <pt x="1411" y="348" on="1"/>
        <pt x="1618" y="348" on="1"/>
        <pt x="1618" y="-279" on="1"/>
        <pt x="1280" y="-279" on="1"/>
        <pt x="1280" y="0" on="1"/>
        <pt x="1012" y="0" on="1"/>
        <pt x="1012" y="569" on="1"/>
        <pt x="524" y="569" on="1"/>
        <pt x="524" y="0" on="1"/>
        <pt x="125" y="0" on="1"/>
        <pt x="125" y="1454" on="1"/>
        <pt x="524" y="1454" on="1"/>
        <pt x="524" y="918" on="1"/>
        <pt x="1012" y="918" on="1"/>
        <pt x="1012" y="1454" on="1"/>
        <pt x="1411" y="1454" on="1"/>
      </contour>
    </TTGlyph>
    <TTGlyph name="Eng" xMin="125" yMin="-428" xMax="1378" yMax="1454">
      <contour>
        <pt x="524" y="702" on="1"/>
        <pt x="524" y="0" on="1"/>
        <pt x="125" y="0" on="1"/>
        <pt x="125" y="1454" on="1"/>
        <pt x="432" y="1454" on="1"/>
        <pt x="979" y="735" on="1"/>
        <pt x="979" y="1452" on="1"/>
        <pt x="1378" y="1452" on="1"/>
        <pt x="1378" y="10" on="1"/>
        <pt x="1378" y="-187" on="0"/>
        <pt x="1139" y="-428" on="0"/>
        <pt x="956" y="-428" on="1"/>
        <pt x="780" y="-428" on="0"/>
        <pt x="651" y="-317" on="1"/>
        <pt x="811" y="-53" on="1"/>
        <pt x="849" y="-94" on="0"/>
        <pt x="907" y="-94" on="1"/>
        <pt x="945" y="-94" on="0"/>
        <pt x="989" y="-47" on="0"/>
        <pt x="989" y="-6" on="1"/>
        <pt x="989" y="90" on="1"/>
      </contour>
    </TTGlyph>
    <TTGlyph name="Enghecyrillic" xMin="125" yMin="0" xMax="1960" yMax="1454">
      <contour>
        <pt x="1960" y="1454" on="1"/>
        <pt x="1960" y="1106" on="1"/>
        <pt x="1411" y="1106" on="1"/>
        <pt x="1411" y="0" on="1"/>
        <pt x="1012" y="0" on="1"/>
        <pt x="1012" y="569" on="1"/>
        <pt x="524" y="569" on="1"/>
        <pt x="524" y="0" on="1"/>
        <pt x="125" y="0" on="1"/>
        <pt x="125" y="1454" on="1"/>
        <pt x="524" y="1454" on="1"/>
        <pt x="524" y="918" on="1"/>
        <pt x="1012" y="918" on="1"/>
        <pt x="1012" y="1454" on="1"/>
      </contour>
    </TTGlyph>
    <TTGlyph name="Eogonek" xMin="125" yMin="-440" xMax="1161" yMax="1454">
      <contour>
        <pt x="1161" y="0" on="1"/>
        <pt x="1091" y="-41" on="0"/>
        <pt x="1014" y="-125" on="0"/>
        <pt x="1014" y="-195" on="0"/>
        <pt x="1086" y="-236" on="0"/>
        <pt x="1157" y="-236" on="1"/>
        <pt x="1085" y="-440" on="1"/>
        <pt x="932" y="-422" on="0"/>
        <pt x="774" y="-311" on="0"/>
        <pt x="774" y="-236" on="1"/>
        <pt x="774" y="-110" on="0"/>
        <pt x="924" y="0" on="1"/>
        <pt x="125" y="0" on="1"/>
        <pt x="125" y="1454" on="1"/>
        <pt x="1143" y="1454" on="1"/>
        <pt x="1143" y="1106" on="1"/>
        <pt x="524" y="1106" on="1"/>
        <pt x="524" y="901" on="1"/>
        <pt x="1053" y="901" on="1"/>
        <pt x="1053" y="578" on="1"/>
        <pt x="524" y="578" on="1"/>
        <pt x="524" y="348" on="1"/>
        <pt x="1161" y="348" on="1"/>
      </contour>
    </TTGlyph>
    <TTGlyph name="Esdescendercyrillic" xMin="45" yMin="-279" xMax="1399" yMax="1462">
      <contour>
        <pt x="1399" y="326" on="1"/>
        <pt x="1350" y="205" on="0"/>
        <pt x="1101" y="38" on="0"/>
        <pt x="944" y="6" on="1"/>
        <pt x="944" y="-279" on="1"/>
        <pt x="616" y="-279" on="1"/>
        <pt x="616" y="6" on="1"/>
        <pt x="449" y="45" on="0"/>
        <pt x="185" y="271" on="0"/>
        <pt x="45" y="576" on="0"/>
        <pt x="45" y="739" on="1"/>
        <pt x="45" y="873" on="0"/>
        <pt x="148" y="1130" on="0"/>
        <pt x="333" y="1336" on="0"/>
        <pt x="619" y="1462" on="0"/>
        <pt x="788" y="1462" on="1"/>
        <pt x="993" y="1462" on="0"/>
        <pt x="1307" y="1290" on="0"/>
        <pt x="1384" y="1145" on="1"/>
        <pt x="1079" y="928" on="1"/>
        <pt x="1059" y="979" on="0"/>
        <pt x="991" y="1052" on="0"/>
        <pt x="907" y="1091" on="0"/>
        <pt x="824" y="1108" on="0"/>
        <pt x="780" y="1108" on="1"/>
        <pt x="698" y="1108" on="0"/>
        <pt x="568" y="1041" on="0"/>
        <pt x="491" y="930" on="0"/>
        <pt x="451" y="798" on="0"/>
        <pt x="451" y="727" on="1"/>
        <pt x="451" y="568" on="0"/>
        <pt x="633" y="342" on="0"/>
        <pt x="784" y="342" on="1"/>
        <pt x="843" y="342" on="0"/>
        <pt x="951" y="375" on="0"/>
        <pt x="1050" y="458" on="0"/>
        <pt x="1073" y="520" on="1"/>
      </contour>
    </TTGlyph>
    <TTGlyph name="Eth" xMin="57" yMin="0" xMax="1425" yMax="1454">
      <contour>
        <pt x="692" y="1454" on="1"/>
        <pt x="868" y="1454" on="0"/>
        <pt x="1151" y="1341" on="0"/>
        <pt x="1330" y="1142" on="0"/>
        <pt x="1425" y="881" on="0"/>
        <pt x="1425" y="729" on="1"/>
        <pt x="1425" y="399" on="0"/>
        <pt x="1024" y="0" on="0"/>
        <pt x="692" y="0" on="1"/>
        <pt x="133" y="0" on="1"/>
        <pt x="133" y="588" on="1"/>
        <pt x="57" y="588" on="1"/>
        <pt x="57" y="874" on="1"/>
        <pt x="133" y="874" on="1"/>
        <pt x="133" y="1454" on="1"/>
      </contour>
      <contour>
        <pt x="692" y="348" on="1"/>
        <pt x="845" y="348" on="0"/>
        <pt x="1020" y="560" on="0"/>
        <pt x="1020" y="729" on="1"/>
        <pt x="1020" y="900" on="0"/>
        <pt x="844" y="1106" on="0"/>
        <pt x="692" y="1106" on="1"/>
        <pt x="532" y="1106" on="1"/>
        <pt x="532" y="874" on="1"/>
        <pt x="766" y="874" on="1"/>
        <pt x="766" y="588" on="1"/>
        <pt x="532" y="588" on="1"/>
        <pt x="532" y="348" on="1"/>
      </contour>
    </TTGlyph>
    <TTGlyph name="Etilde" xMin="125" yMin="0" xMax="1161" yMax="1872">
      <contour>
        <pt x="514" y="1647" on="1"/>
        <pt x="488" y="1647" on="0"/>
        <pt x="450" y="1627" on="0"/>
        <pt x="432" y="1601" on="0"/>
        <pt x="422" y="1568" on="0"/>
        <pt x="420" y="1553" on="0"/>
        <pt x="420" y="1548" on="1"/>
        <pt x="213" y="1548" on="1"/>
        <pt x="213" y="1572" on="0"/>
        <pt x="232" y="1647" on="0"/>
        <pt x="277" y="1739" on="0"/>
        <pt x="340" y="1818" on="0"/>
        <pt x="440" y="1872" on="0"/>
        <pt x="498" y="1872" on="1"/>
        <pt x="543" y="1872" on="0"/>
        <pt x="625" y="1839" on="0"/>
        <pt x="676" y="1800" on="0"/>
        <pt x="743" y="1767" on="0"/>
        <pt x="774" y="1767" on="1"/>
        <pt x="799" y="1767" on="0"/>
        <pt x="839" y="1788" on="0"/>
        <pt x="860" y="1816" on="0"/>
        <pt x="873" y="1849" on="0"/>
        <pt x="877" y="1868" on="0"/>
        <pt x="877" y="1872" on="1"/>
        <pt x="1081" y="1872" on="1"/>
        <pt x="1081" y="1855" on="0"/>
        <pt x="1061" y="1785" on="0"/>
        <pt x="1015" y="1690" on="0"/>
        <pt x="951" y="1607" on="0"/>
        <pt x="847" y="1548" on="0"/>
        <pt x="788" y="1548" on="1"/>
        <pt x="746" y="1548" on="0"/>
        <pt x="665" y="1579" on="0"/>
        <pt x="612" y="1616" on="0"/>
        <pt x="544" y="1647" on="0"/>
      </contour>
      <contour>
        <pt x="1161" y="348" on="1"/>
        <pt x="1161" y="0" on="1"/>
        <pt x="125" y="0" on="1"/>
        <pt x="125" y="1454" on="1"/>
        <pt x="1143" y="1454" on="1"/>
        <pt x="1143" y="1106" on="1"/>
        <pt x="524" y="1106" on="1"/>
        <pt x="524" y="901" on="1"/>
        <pt x="1053" y="901" on="1"/>
        <pt x="1053" y="578" on="1"/>
        <pt x="524" y="578" on="1"/>
        <pt x="524" y="348" on="1"/>
      </contour>
    </TTGlyph>
    <TTGlyph name="Euro" xMin="70" yMin="-12" xMax="1563" yMax="1462">
      <contour>
        <pt x="1237" y="520" on="1"/>
        <pt x="1563" y="326" on="1"/>
        <pt x="1522" y="223" on="0"/>
        <pt x="1317" y="65" on="0"/>
        <pt x="1067" y="-12" on="0"/>
        <pt x="940" y="-12" on="1"/>
        <pt x="711" y="-12" on="0"/>
        <pt x="351" y="250" on="0"/>
        <pt x="268" y="453" on="1"/>
        <pt x="70" y="453" on="1"/>
        <pt x="152" y="657" on="1"/>
        <pt x="213" y="657" on="1"/>
        <pt x="209" y="711" on="0"/>
        <pt x="209" y="739" on="1"/>
        <pt x="209" y="745" on="1"/>
        <pt x="70" y="745" on="1"/>
        <pt x="152" y="950" on="1"/>
        <pt x="242" y="950" on="1"/>
        <pt x="275" y="1055" on="0"/>
        <pt x="400" y="1238" on="0"/>
        <pt x="577" y="1380" on="0"/>
        <pt x="816" y="1462" on="0"/>
        <pt x="952" y="1462" on="1"/>
        <pt x="1157" y="1462" on="0"/>
        <pt x="1471" y="1290" on="0"/>
        <pt x="1548" y="1145" on="1"/>
        <pt x="1243" y="928" on="1"/>
        <pt x="1223" y="979" on="0"/>
        <pt x="1155" y="1052" on="0"/>
        <pt x="1071" y="1091" on="0"/>
        <pt x="988" y="1108" on="0"/>
        <pt x="944" y="1108" on="1"/>
        <pt x="761" y="1108" on="0"/>
        <pt x="670" y="950" on="1"/>
        <pt x="1038" y="950" on="1"/>
        <pt x="956" y="745" on="1"/>
        <pt x="614" y="745" on="1"/>
        <pt x="614" y="727" on="1"/>
        <pt x="614" y="703" on="0"/>
        <pt x="618" y="657" on="1"/>
        <pt x="981" y="657" on="1"/>
        <pt x="899" y="453" on="1"/>
        <pt x="709" y="453" on="1"/>
        <pt x="802" y="342" on="0"/>
        <pt x="948" y="342" on="1"/>
        <pt x="1007" y="342" on="0"/>
        <pt x="1115" y="375" on="0"/>
        <pt x="1214" y="458" on="0"/>
      </contour>
    </TTGlyph>
    <TTGlyph name="F" xMin="125" yMin="0" xMax="1122" yMax="1454">
      <contour>
        <pt x="125" y="0" on="1"/>
        <pt x="125" y="1454" on="1"/>
        <pt x="1122" y="1454" on="1"/>
        <pt x="1122" y="1106" on="1"/>
        <pt x="524" y="1106" on="1"/>
        <pt x="524" y="864" on="1"/>
        <pt x="1012" y="864" on="1"/>
        <pt x="1012" y="541" on="1"/>
        <pt x="524" y="541" on="1"/>
        <pt x="524" y="0" on="1"/>
      </contour>
    </TTGlyph>
    <TTGlyph name="G" xMin="47" yMin="-10" xMax="1442" yMax="1464">
      <contour>
        <pt x="844" y="774" on="1"/>
        <pt x="1442" y="774" on="1"/>
        <pt x="1442" y="0" on="1"/>
        <pt x="1112" y="0" on="1"/>
        <pt x="1112" y="121" on="1"/>
        <pt x="958" y="-10" on="0"/>
        <pt x="754" y="-10" on="1"/>
        <pt x="611" y="-10" on="0"/>
        <pt x="356" y="93" on="0"/>
        <pt x="161" y="280" on="0"/>
        <pt x="47" y="566" on="0"/>
        <pt x="47" y="739" on="1"/>
        <pt x="47" y="890" on="0"/>
        <pt x="163" y="1158" on="0"/>
        <pt x="361" y="1351" on="0"/>
        <pt x="638" y="1464" on="0"/>
        <pt x="793" y="1464" on="1"/>
        <pt x="990" y="1464" on="0"/>
        <pt x="1308" y="1294" on="0"/>
        <pt x="1386" y="1147" on="1"/>
        <pt x="1090" y="920" on="1"/>
        <pt x="1048" y="1006" on="0"/>
        <pt x="874" y="1110" on="0"/>
        <pt x="778" y="1110" on="1"/>
        <pt x="636" y="1110" on="0"/>
        <pt x="453" y="894" on="0"/>
        <pt x="453" y="725" on="1"/>
        <pt x="453" y="554" on="0"/>
        <pt x="638" y="344" on="0"/>
        <pt x="788" y="344" on="1"/>
        <pt x="959" y="344" on="0"/>
        <pt x="1096" y="487" on="1"/>
        <pt x="844" y="487" on="1"/>
      </contour>
    </TTGlyph>
    <TTGlyph name="G.ss11" xMin="45" yMin="-10" xMax="1419" yMax="1464">
      <contour>
        <pt x="45" y="727" on="1"/>
        <pt x="45" y="874" on="0"/>
        <pt x="145" y="1139" on="0"/>
        <pt x="325" y="1343" on="0"/>
        <pt x="601" y="1464" on="0"/>
        <pt x="766" y="1464" on="1"/>
        <pt x="954" y="1464" on="0"/>
        <pt x="1241" y="1311" on="0"/>
        <pt x="1323" y="1167" on="1"/>
        <pt x="1006" y="920" on="1"/>
        <pt x="1000" y="935" on="0"/>
        <pt x="983" y="968" on="0"/>
        <pt x="936" y="1029" on="0"/>
        <pt x="881" y="1075" on="0"/>
        <pt x="792" y="1110" on="0"/>
        <pt x="741" y="1110" on="1"/>
        <pt x="646" y="1110" on="0"/>
        <pt x="511" y="996" on="0"/>
        <pt x="451" y="828" on="0"/>
        <pt x="451" y="729" on="1"/>
        <pt x="451" y="675" on="0"/>
        <pt x="470" y="570" on="0"/>
        <pt x="515" y="465" on="0"/>
        <pt x="582" y="385" on="0"/>
        <pt x="687" y="336" on="0"/>
        <pt x="752" y="336" on="1"/>
        <pt x="843" y="336" on="0"/>
        <pt x="982" y="422" on="0"/>
        <pt x="1010" y="487" on="1"/>
        <pt x="768" y="487" on="1"/>
        <pt x="760" y="815" on="1"/>
        <pt x="1419" y="815" on="1"/>
        <pt x="1419" y="633" on="1"/>
        <pt x="1419" y="502" on="0"/>
        <pt x="1321" y="267" on="0"/>
        <pt x="1148" y="92" on="0"/>
        <pt x="894" y="-10" on="0"/>
        <pt x="745" y="-10" on="1"/>
        <pt x="612" y="-10" on="0"/>
        <pt x="384" y="72" on="0"/>
        <pt x="219" y="213" on="0"/>
        <pt x="102" y="400" on="0"/>
        <pt x="45" y="614" on="0"/>
      </contour>
    </TTGlyph>
    <TTGlyph name="Gbreve" xMin="47" yMin="-10" xMax="1442" yMax="1872">
      <contour>
        <pt x="937" y="1540" on="0"/>
        <pt x="649" y="1540" on="0"/>
        <pt x="467" y="1725" on="0"/>
        <pt x="467" y="1872" on="1"/>
        <pt x="668" y="1872" on="1"/>
        <pt x="668" y="1804" on="0"/>
        <pt x="742" y="1706" on="0"/>
        <pt x="793" y="1706" on="1"/>
        <pt x="840" y="1706" on="0"/>
        <pt x="912" y="1800" on="0"/>
        <pt x="918" y="1872" on="1"/>
        <pt x="1118" y="1872" on="1"/>
        <pt x="1118" y="1725" on="0"/>
      </contour>
      <contour>
        <pt x="844" y="774" on="1"/>
        <pt x="1442" y="774" on="1"/>
        <pt x="1442" y="0" on="1"/>
        <pt x="1112" y="0" on="1"/>
        <pt x="1112" y="121" on="1"/>
        <pt x="958" y="-10" on="0"/>
        <pt x="754" y="-10" on="1"/>
        <pt x="611" y="-10" on="0"/>
        <pt x="356" y="93" on="0"/>
        <pt x="161" y="280" on="0"/>
        <pt x="47" y="566" on="0"/>
        <pt x="47" y="739" on="1"/>
        <pt x="47" y="890" on="0"/>
        <pt x="163" y="1158" on="0"/>
        <pt x="361" y="1351" on="0"/>
        <pt x="638" y="1464" on="0"/>
        <pt x="793" y="1464" on="1"/>
        <pt x="990" y="1464" on="0"/>
        <pt x="1308" y="1294" on="0"/>
        <pt x="1386" y="1147" on="1"/>
        <pt x="1090" y="920" on="1"/>
        <pt x="1048" y="1006" on="0"/>
        <pt x="874" y="1110" on="0"/>
        <pt x="778" y="1110" on="1"/>
        <pt x="636" y="1110" on="0"/>
        <pt x="453" y="894" on="0"/>
        <pt x="453" y="725" on="1"/>
        <pt x="453" y="554" on="0"/>
        <pt x="638" y="344" on="0"/>
        <pt x="788" y="344" on="1"/>
        <pt x="959" y="344" on="0"/>
        <pt x="1096" y="487" on="1"/>
        <pt x="844" y="487" on="1"/>
      </contour>
    </TTGlyph>
    <TTGlyph name="Gcaron" xMin="47" yMin="-10" xMax="1442" yMax="1872">
      <contour>
        <pt x="932" y="1550" on="1"/>
        <pt x="653" y="1550" on="1"/>
        <pt x="422" y="1786" on="1"/>
        <pt x="618" y="1872" on="1"/>
        <pt x="793" y="1743" on="1"/>
        <pt x="967" y="1872" on="1"/>
        <pt x="1163" y="1786" on="1"/>
      </contour>
      <contour>
        <pt x="844" y="774" on="1"/>
        <pt x="1442" y="774" on="1"/>
        <pt x="1442" y="0" on="1"/>
        <pt x="1112" y="0" on="1"/>
        <pt x="1112" y="121" on="1"/>
        <pt x="958" y="-10" on="0"/>
        <pt x="754" y="-10" on="1"/>
        <pt x="611" y="-10" on="0"/>
        <pt x="356" y="93" on="0"/>
        <pt x="161" y="280" on="0"/>
        <pt x="47" y="566" on="0"/>
        <pt x="47" y="739" on="1"/>
        <pt x="47" y="890" on="0"/>
        <pt x="163" y="1158" on="0"/>
        <pt x="361" y="1351" on="0"/>
        <pt x="638" y="1464" on="0"/>
        <pt x="793" y="1464" on="1"/>
        <pt x="990" y="1464" on="0"/>
        <pt x="1308" y="1294" on="0"/>
        <pt x="1386" y="1147" on="1"/>
        <pt x="1090" y="920" on="1"/>
        <pt x="1048" y="1006" on="0"/>
        <pt x="874" y="1110" on="0"/>
        <pt x="778" y="1110" on="1"/>
        <pt x="636" y="1110" on="0"/>
        <pt x="453" y="894" on="0"/>
        <pt x="453" y="725" on="1"/>
        <pt x="453" y="554" on="0"/>
        <pt x="638" y="344" on="0"/>
        <pt x="788" y="344" on="1"/>
        <pt x="959" y="344" on="0"/>
        <pt x="1096" y="487" on="1"/>
        <pt x="844" y="487" on="1"/>
      </contour>
    </TTGlyph>
    <TTGlyph name="Gcedilla" xMin="47" yMin="-436" xMax="1442" yMax="1464">
      <contour>
        <pt x="844" y="774" on="1"/>
        <pt x="1442" y="774" on="1"/>
        <pt x="1442" y="0" on="1"/>
        <pt x="1112" y="0" on="1"/>
        <pt x="1112" y="121" on="1"/>
        <pt x="958" y="-10" on="0"/>
        <pt x="754" y="-10" on="1"/>
        <pt x="611" y="-10" on="0"/>
        <pt x="356" y="93" on="0"/>
        <pt x="161" y="280" on="0"/>
        <pt x="47" y="566" on="0"/>
        <pt x="47" y="739" on="1"/>
        <pt x="47" y="890" on="0"/>
        <pt x="163" y="1158" on="0"/>
        <pt x="361" y="1351" on="0"/>
        <pt x="638" y="1464" on="0"/>
        <pt x="793" y="1464" on="1"/>
        <pt x="990" y="1464" on="0"/>
        <pt x="1308" y="1294" on="0"/>
        <pt x="1386" y="1147" on="1"/>
        <pt x="1090" y="920" on="1"/>
        <pt x="1048" y="1006" on="0"/>
        <pt x="874" y="1110" on="0"/>
        <pt x="778" y="1110" on="1"/>
        <pt x="636" y="1110" on="0"/>
        <pt x="453" y="894" on="0"/>
        <pt x="453" y="725" on="1"/>
        <pt x="453" y="554" on="0"/>
        <pt x="638" y="344" on="0"/>
        <pt x="788" y="344" on="1"/>
        <pt x="959" y="344" on="0"/>
        <pt x="1096" y="487" on="1"/>
        <pt x="844" y="487" on="1"/>
      </contour>
      <contour>
        <pt x="586" y="-311" on="1"/>
        <pt x="586" y="-94" on="1"/>
        <pt x="907" y="-94" on="1"/>
        <pt x="907" y="-311" on="1"/>
        <pt x="797" y="-436" on="1"/>
        <pt x="629" y="-436" on="1"/>
        <pt x="702" y="-311" on="1"/>
      </contour>
    </TTGlyph>
    <TTGlyph name="Gcircumflex" xMin="47" yMin="-10" xMax="1442" yMax="1872">
      <contour>
        <pt x="793" y="1679" on="1"/>
        <pt x="618" y="1550" on="1"/>
        <pt x="422" y="1636" on="1"/>
        <pt x="653" y="1872" on="1"/>
        <pt x="932" y="1872" on="1"/>
        <pt x="1163" y="1636" on="1"/>
        <pt x="967" y="1550" on="1"/>
      </contour>
      <contour>
        <pt x="844" y="774" on="1"/>
        <pt x="1442" y="774" on="1"/>
        <pt x="1442" y="0" on="1"/>
        <pt x="1112" y="0" on="1"/>
        <pt x="1112" y="121" on="1"/>
        <pt x="958" y="-10" on="0"/>
        <pt x="754" y="-10" on="1"/>
        <pt x="611" y="-10" on="0"/>
        <pt x="356" y="93" on="0"/>
        <pt x="161" y="280" on="0"/>
        <pt x="47" y="566" on="0"/>
        <pt x="47" y="739" on="1"/>
        <pt x="47" y="890" on="0"/>
        <pt x="163" y="1158" on="0"/>
        <pt x="361" y="1351" on="0"/>
        <pt x="638" y="1464" on="0"/>
        <pt x="793" y="1464" on="1"/>
        <pt x="990" y="1464" on="0"/>
        <pt x="1308" y="1294" on="0"/>
        <pt x="1386" y="1147" on="1"/>
        <pt x="1090" y="920" on="1"/>
        <pt x="1048" y="1006" on="0"/>
        <pt x="874" y="1110" on="0"/>
        <pt x="778" y="1110" on="1"/>
        <pt x="636" y="1110" on="0"/>
        <pt x="453" y="894" on="0"/>
        <pt x="453" y="725" on="1"/>
        <pt x="453" y="554" on="0"/>
        <pt x="638" y="344" on="0"/>
        <pt x="788" y="344" on="1"/>
        <pt x="959" y="344" on="0"/>
        <pt x="1096" y="487" on="1"/>
        <pt x="844" y="487" on="1"/>
      </contour>
    </TTGlyph>
    <TTGlyph name="Gdot" xMin="47" yMin="-10" xMax="1442" yMax="1872">
      <contour>
        <pt x="967" y="1872" on="1"/>
        <pt x="967" y="1565" on="1"/>
        <pt x="618" y="1565" on="1"/>
        <pt x="618" y="1872" on="1"/>
      </contour>
      <contour>
        <pt x="844" y="774" on="1"/>
        <pt x="1442" y="774" on="1"/>
        <pt x="1442" y="0" on="1"/>
        <pt x="1112" y="0" on="1"/>
        <pt x="1112" y="121" on="1"/>
        <pt x="958" y="-10" on="0"/>
        <pt x="754" y="-10" on="1"/>
        <pt x="611" y="-10" on="0"/>
        <pt x="356" y="93" on="0"/>
        <pt x="161" y="280" on="0"/>
        <pt x="47" y="566" on="0"/>
        <pt x="47" y="739" on="1"/>
        <pt x="47" y="890" on="0"/>
        <pt x="163" y="1158" on="0"/>
        <pt x="361" y="1351" on="0"/>
        <pt x="638" y="1464" on="0"/>
        <pt x="793" y="1464" on="1"/>
        <pt x="990" y="1464" on="0"/>
        <pt x="1308" y="1294" on="0"/>
        <pt x="1386" y="1147" on="1"/>
        <pt x="1090" y="920" on="1"/>
        <pt x="1048" y="1006" on="0"/>
        <pt x="874" y="1110" on="0"/>
        <pt x="778" y="1110" on="1"/>
        <pt x="636" y="1110" on="0"/>
        <pt x="453" y="894" on="0"/>
        <pt x="453" y="725" on="1"/>
        <pt x="453" y="554" on="0"/>
        <pt x="638" y="344" on="0"/>
        <pt x="788" y="344" on="1"/>
        <pt x="959" y="344" on="0"/>
        <pt x="1096" y="487" on="1"/>
        <pt x="844" y="487" on="1"/>
      </contour>
    </TTGlyph>
    <TTGlyph name="Ghemiddlehookcyrillic" xMin="125" yMin="-307" xMax="1421" yMax="1454">
      <contour>
        <pt x="870" y="797" on="1"/>
        <pt x="1136" y="797" on="0"/>
        <pt x="1421" y="502" on="0"/>
        <pt x="1421" y="246" on="1"/>
        <pt x="1421" y="-14" on="0"/>
        <pt x="1139" y="-307" on="0"/>
        <pt x="889" y="-307" on="1"/>
        <pt x="745" y="-307" on="0"/>
        <pt x="614" y="-262" on="1"/>
        <pt x="719" y="59" on="1"/>
        <pt x="786" y="23" on="0"/>
        <pt x="852" y="23" on="1"/>
        <pt x="927" y="23" on="0"/>
        <pt x="1032" y="131" on="0"/>
        <pt x="1032" y="246" on="1"/>
        <pt x="1032" y="469" on="0"/>
        <pt x="803" y="469" on="1"/>
        <pt x="722" y="469" on="0"/>
        <pt x="604" y="422" on="0"/>
        <pt x="524" y="365" on="1"/>
        <pt x="524" y="0" on="1"/>
        <pt x="125" y="0" on="1"/>
        <pt x="125" y="1454" on="1"/>
        <pt x="1073" y="1454" on="1"/>
        <pt x="1073" y="1106" on="1"/>
        <pt x="524" y="1106" on="1"/>
        <pt x="524" y="709" on="1"/>
        <pt x="666" y="797" on="0"/>
      </contour>
    </TTGlyph>
    <TTGlyph name="Ghestrokecyrillic" xMin="20" yMin="0" xMax="1153" yMax="1454">
      <contour>
        <pt x="1153" y="1106" on="1"/>
        <pt x="604" y="1106" on="1"/>
        <pt x="604" y="778" on="1"/>
        <pt x="922" y="778" on="1"/>
        <pt x="922" y="526" on="1"/>
        <pt x="604" y="526" on="1"/>
        <pt x="604" y="0" on="1"/>
        <pt x="205" y="0" on="1"/>
        <pt x="205" y="526" on="1"/>
        <pt x="20" y="526" on="1"/>
        <pt x="20" y="778" on="1"/>
        <pt x="205" y="778" on="1"/>
        <pt x="205" y="1454" on="1"/>
        <pt x="1153" y="1454" on="1"/>
      </contour>
    </TTGlyph>
    <TTGlyph name="Gmacron" xMin="47" yMin="-10" xMax="1442" yMax="1851">
      <contour>
        <pt x="1112" y="1851" on="1"/>
        <pt x="1112" y="1620" on="1"/>
        <pt x="477" y="1620" on="1"/>
        <pt x="477" y="1851" on="1"/>
      </contour>
      <contour>
        <pt x="844" y="774" on="1"/>
        <pt x="1442" y="774" on="1"/>
        <pt x="1442" y="0" on="1"/>
        <pt x="1112" y="0" on="1"/>
        <pt x="1112" y="121" on="1"/>
        <pt x="958" y="-10" on="0"/>
        <pt x="754" y="-10" on="1"/>
        <pt x="611" y="-10" on="0"/>
        <pt x="356" y="93" on="0"/>
        <pt x="161" y="280" on="0"/>
        <pt x="47" y="566" on="0"/>
        <pt x="47" y="739" on="1"/>
        <pt x="47" y="890" on="0"/>
        <pt x="163" y="1158" on="0"/>
        <pt x="361" y="1351" on="0"/>
        <pt x="638" y="1464" on="0"/>
        <pt x="793" y="1464" on="1"/>
        <pt x="990" y="1464" on="0"/>
        <pt x="1308" y="1294" on="0"/>
        <pt x="1386" y="1147" on="1"/>
        <pt x="1090" y="920" on="1"/>
        <pt x="1048" y="1006" on="0"/>
        <pt x="874" y="1110" on="0"/>
        <pt x="778" y="1110" on="1"/>
        <pt x="636" y="1110" on="0"/>
        <pt x="453" y="894" on="0"/>
        <pt x="453" y="725" on="1"/>
        <pt x="453" y="554" on="0"/>
        <pt x="638" y="344" on="0"/>
        <pt x="788" y="344" on="1"/>
        <pt x="959" y="344" on="0"/>
        <pt x="1096" y="487" on="1"/>
        <pt x="844" y="487" on="1"/>
      </contour>
    </TTGlyph>
    <TTGlyph name="H" xMin="125" yMin="0" xMax="1411" yMax="1454">
      <contour>
        <pt x="1411" y="1454" on="1"/>
        <pt x="1411" y="0" on="1"/>
        <pt x="1012" y="0" on="1"/>
        <pt x="1012" y="569" on="1"/>
        <pt x="524" y="569" on="1"/>
        <pt x="524" y="0" on="1"/>
        <pt x="125" y="0" on="1"/>
        <pt x="125" y="1454" on="1"/>
        <pt x="524" y="1454" on="1"/>
        <pt x="524" y="918" on="1"/>
        <pt x="1012" y="918" on="1"/>
        <pt x="1012" y="1454" on="1"/>
      </contour>
    </TTGlyph>
    <TTGlyph name="Hbar" xMin="29" yMin="0" xMax="1520" yMax="1454">
      <contour>
        <pt x="1520" y="1282" on="1"/>
        <pt x="1520" y="1102" on="1"/>
        <pt x="1417" y="1102" on="1"/>
        <pt x="1417" y="0" on="1"/>
        <pt x="1018" y="0" on="1"/>
        <pt x="1018" y="569" on="1"/>
        <pt x="530" y="569" on="1"/>
        <pt x="530" y="0" on="1"/>
        <pt x="131" y="0" on="1"/>
        <pt x="131" y="1102" on="1"/>
        <pt x="29" y="1102" on="1"/>
        <pt x="29" y="1282" on="1"/>
        <pt x="131" y="1282" on="1"/>
        <pt x="131" y="1454" on="1"/>
        <pt x="530" y="1454" on="1"/>
        <pt x="530" y="1282" on="1"/>
        <pt x="1018" y="1282" on="1"/>
        <pt x="1018" y="1454" on="1"/>
        <pt x="1417" y="1454" on="1"/>
        <pt x="1417" y="1282" on="1"/>
      </contour>
      <contour>
        <pt x="1018" y="918" on="1"/>
        <pt x="1018" y="1102" on="1"/>
        <pt x="530" y="1102" on="1"/>
        <pt x="530" y="918" on="1"/>
      </contour>
    </TTGlyph>
    <TTGlyph name="Hbrevebelow" xMin="125" yMin="-436" xMax="1411" yMax="1454">
      <contour>
        <pt x="1411" y="1454" on="1"/>
        <pt x="1411" y="0" on="1"/>
        <pt x="1012" y="0" on="1"/>
        <pt x="1012" y="569" on="1"/>
        <pt x="524" y="569" on="1"/>
        <pt x="524" y="0" on="1"/>
        <pt x="125" y="0" on="1"/>
        <pt x="125" y="1454" on="1"/>
        <pt x="524" y="1454" on="1"/>
        <pt x="524" y="918" on="1"/>
        <pt x="1012" y="918" on="1"/>
        <pt x="1012" y="1454" on="1"/>
      </contour>
      <contour>
        <pt x="893" y="-104" on="1"/>
        <pt x="1094" y="-104" on="1"/>
        <pt x="1094" y="-251" on="0"/>
        <pt x="912" y="-436" on="0"/>
        <pt x="624" y="-436" on="0"/>
        <pt x="442" y="-251" on="0"/>
        <pt x="442" y="-104" on="1"/>
        <pt x="643" y="-104" on="1"/>
        <pt x="643" y="-172" on="0"/>
        <pt x="717" y="-270" on="0"/>
        <pt x="768" y="-270" on="1"/>
        <pt x="815" y="-270" on="0"/>
        <pt x="887" y="-176" on="0"/>
      </contour>
    </TTGlyph>
    <TTGlyph name="Hcircumflex" xMin="125" yMin="0" xMax="1411" yMax="1870">
      <contour>
        <pt x="403" y="1634" on="1"/>
        <pt x="635" y="1870" on="1"/>
        <pt x="913" y="1870" on="1"/>
        <pt x="1145" y="1634" on="1"/>
        <pt x="948" y="1548" on="1"/>
        <pt x="774" y="1677" on="1"/>
        <pt x="600" y="1548" on="1"/>
      </contour>
      <contour>
        <pt x="1411" y="1454" on="1"/>
        <pt x="1411" y="0" on="1"/>
        <pt x="1012" y="0" on="1"/>
        <pt x="1012" y="569" on="1"/>
        <pt x="524" y="569" on="1"/>
        <pt x="524" y="0" on="1"/>
        <pt x="125" y="0" on="1"/>
        <pt x="125" y="1454" on="1"/>
        <pt x="524" y="1454" on="1"/>
        <pt x="524" y="918" on="1"/>
        <pt x="1012" y="918" on="1"/>
        <pt x="1012" y="1454" on="1"/>
      </contour>
    </TTGlyph>
    <TTGlyph name="Hdotbelow" xMin="125" yMin="-438" xMax="1411" yMax="1454">
      <contour>
        <pt x="1411" y="1454" on="1"/>
        <pt x="1411" y="0" on="1"/>
        <pt x="1012" y="0" on="1"/>
        <pt x="1012" y="569" on="1"/>
        <pt x="524" y="569" on="1"/>
        <pt x="524" y="0" on="1"/>
        <pt x="125" y="0" on="1"/>
        <pt x="125" y="1454" on="1"/>
        <pt x="524" y="1454" on="1"/>
        <pt x="524" y="918" on="1"/>
        <pt x="1012" y="918" on="1"/>
        <pt x="1012" y="1454" on="1"/>
      </contour>
      <contour>
        <pt x="594" y="-438" on="1"/>
        <pt x="594" y="-131" on="1"/>
        <pt x="942" y="-131" on="1"/>
        <pt x="942" y="-438" on="1"/>
      </contour>
    </TTGlyph>
    <TTGlyph name="I" xMin="125" yMin="0" xMax="524" yMax="1454">
      <contour>
        <pt x="125" y="0" on="1"/>
        <pt x="125" y="1454" on="1"/>
        <pt x="524" y="1454" on="1"/>
        <pt x="524" y="0" on="1"/>
      </contour>
    </TTGlyph>
    <TTGlyph name="Iacute" xMin="125" yMin="0" xMax="649" yMax="1872">
      <contour>
        <pt x="446" y="1516" on="1"/>
        <pt x="201" y="1581" on="1"/>
        <pt x="303" y="1872" on="1"/>
        <pt x="649" y="1872" on="1"/>
      </contour>
      <contour>
        <pt x="125" y="0" on="1"/>
        <pt x="125" y="1454" on="1"/>
        <pt x="524" y="1454" on="1"/>
        <pt x="524" y="0" on="1"/>
      </contour>
    </TTGlyph>
    <TTGlyph name="Ibreve" xMin="-2" yMin="0" xMax="649" yMax="1872">
      <contour>
        <pt x="449" y="1872" on="1"/>
        <pt x="649" y="1872" on="1"/>
        <pt x="649" y="1725" on="0"/>
        <pt x="468" y="1540" on="0"/>
        <pt x="180" y="1540" on="0"/>
        <pt x="-2" y="1725" on="0"/>
        <pt x="-2" y="1872" on="1"/>
        <pt x="199" y="1872" on="1"/>
        <pt x="199" y="1804" on="0"/>
        <pt x="273" y="1706" on="0"/>
        <pt x="324" y="1706" on="1"/>
        <pt x="371" y="1706" on="0"/>
        <pt x="443" y="1800" on="0"/>
      </contour>
      <contour>
        <pt x="125" y="0" on="1"/>
        <pt x="125" y="1454" on="1"/>
        <pt x="524" y="1454" on="1"/>
        <pt x="524" y="0" on="1"/>
      </contour>
    </TTGlyph>
    <TTGlyph name="Icircumflex" xMin="-47" yMin="0" xMax="694" yMax="1872">
      <contour>
        <pt x="-47" y="1636" on="1"/>
        <pt x="184" y="1872" on="1"/>
        <pt x="463" y="1872" on="1"/>
        <pt x="694" y="1636" on="1"/>
        <pt x="498" y="1550" on="1"/>
        <pt x="324" y="1679" on="1"/>
        <pt x="150" y="1550" on="1"/>
      </contour>
      <contour>
        <pt x="125" y="0" on="1"/>
        <pt x="125" y="1454" on="1"/>
        <pt x="524" y="1454" on="1"/>
        <pt x="524" y="0" on="1"/>
      </contour>
    </TTGlyph>
    <TTGlyph name="Idblgrave" xMin="-121" yMin="0" xMax="635" yMax="1874">
      <contour>
        <pt x="-121" y="1874" on="1"/>
        <pt x="164" y="1874" on="1"/>
        <pt x="246" y="1583" on="1"/>
        <pt x="61" y="1518" on="1"/>
      </contour>
      <contour>
        <pt x="268" y="1874" on="1"/>
        <pt x="553" y="1874" on="1"/>
        <pt x="635" y="1583" on="1"/>
        <pt x="451" y="1518" on="1"/>
      </contour>
      <contour>
        <pt x="125" y="0" on="1"/>
        <pt x="125" y="1454" on="1"/>
        <pt x="524" y="1454" on="1"/>
        <pt x="524" y="0" on="1"/>
      </contour>
    </TTGlyph>
    <TTGlyph name="Idieresis" xMin="-72" yMin="0" xMax="719" yMax="1853">
      <contour>
        <pt x="-72" y="1567" on="1"/>
        <pt x="-72" y="1853" on="1"/>
        <pt x="248" y="1853" on="1"/>
        <pt x="248" y="1567" on="1"/>
      </contour>
      <contour>
        <pt x="399" y="1567" on="1"/>
        <pt x="399" y="1853" on="1"/>
        <pt x="719" y="1853" on="1"/>
        <pt x="719" y="1567" on="1"/>
      </contour>
      <contour>
        <pt x="125" y="0" on="1"/>
        <pt x="125" y="1454" on="1"/>
        <pt x="524" y="1454" on="1"/>
        <pt x="524" y="0" on="1"/>
      </contour>
    </TTGlyph>
    <TTGlyph name="Idieresisacute" xMin="-72" yMin="0" xMax="719" yMax="2271">
      <contour>
        <pt x="446" y="1915" on="1"/>
        <pt x="201" y="1980" on="1"/>
        <pt x="303" y="2271" on="1"/>
        <pt x="649" y="2271" on="1"/>
      </contour>
      <contour>
        <pt x="-72" y="1567" on="1"/>
        <pt x="-72" y="1853" on="1"/>
        <pt x="248" y="1853" on="1"/>
        <pt x="248" y="1567" on="1"/>
      </contour>
      <contour>
        <pt x="399" y="1567" on="1"/>
        <pt x="399" y="1853" on="1"/>
        <pt x="719" y="1853" on="1"/>
        <pt x="719" y="1567" on="1"/>
      </contour>
      <contour>
        <pt x="125" y="0" on="1"/>
        <pt x="125" y="1454" on="1"/>
        <pt x="524" y="1454" on="1"/>
        <pt x="524" y="0" on="1"/>
      </contour>
    </TTGlyph>
    <TTGlyph name="Idieresiscyrillic" xMin="133" yMin="0" xMax="1442" yMax="1853">
      <contour>
        <pt x="393" y="1567" on="1"/>
        <pt x="393" y="1853" on="1"/>
        <pt x="713" y="1853" on="1"/>
        <pt x="713" y="1567" on="1"/>
      </contour>
      <contour>
        <pt x="864" y="1567" on="1"/>
        <pt x="864" y="1853" on="1"/>
        <pt x="1184" y="1853" on="1"/>
        <pt x="1184" y="1567" on="1"/>
      </contour>
      <contour>
        <pt x="133" y="0" on="1"/>
        <pt x="133" y="1454" on="1"/>
        <pt x="532" y="1454" on="1"/>
        <pt x="532" y="565" on="1"/>
        <pt x="1069" y="1454" on="1"/>
        <pt x="1442" y="1454" on="1"/>
        <pt x="1442" y="0" on="1"/>
        <pt x="1042" y="0" on="1"/>
        <pt x="1042" y="864" on="1"/>
        <pt x="512" y="0" on="1"/>
      </contour>
    </TTGlyph>
    <TTGlyph name="Idotaccent" xMin="125" yMin="0" xMax="524" yMax="1872">
      <contour>
        <pt x="150" y="1565" on="1"/>
        <pt x="150" y="1872" on="1"/>
        <pt x="498" y="1872" on="1"/>
        <pt x="498" y="1565" on="1"/>
      </contour>
      <contour>
        <pt x="125" y="0" on="1"/>
        <pt x="125" y="1454" on="1"/>
        <pt x="524" y="1454" on="1"/>
        <pt x="524" y="0" on="1"/>
      </contour>
    </TTGlyph>
    <TTGlyph name="Idotbelow" xMin="125" yMin="-438" xMax="524" yMax="1454">
      <contour>
        <pt x="125" y="0" on="1"/>
        <pt x="125" y="1454" on="1"/>
        <pt x="524" y="1454" on="1"/>
        <pt x="524" y="0" on="1"/>
      </contour>
      <contour>
        <pt x="150" y="-438" on="1"/>
        <pt x="150" y="-131" on="1"/>
        <pt x="498" y="-131" on="1"/>
        <pt x="498" y="-438" on="1"/>
      </contour>
    </TTGlyph>
    <TTGlyph name="Iebrevecyrillic" xMin="125" yMin="0" xMax="1161" yMax="1872">
      <contour>
        <pt x="809" y="1540" on="0"/>
        <pt x="485" y="1540" on="0"/>
        <pt x="281" y="1725" on="0"/>
        <pt x="281" y="1872" on="1"/>
        <pt x="481" y="1872" on="1"/>
        <pt x="481" y="1801" on="0"/>
        <pt x="567" y="1706" on="0"/>
        <pt x="647" y="1706" on="1"/>
        <pt x="722" y="1706" on="0"/>
        <pt x="805" y="1796" on="0"/>
        <pt x="813" y="1872" on="1"/>
        <pt x="1014" y="1872" on="1"/>
        <pt x="1014" y="1726" on="0"/>
      </contour>
      <contour>
        <pt x="1161" y="348" on="1"/>
        <pt x="1161" y="0" on="1"/>
        <pt x="125" y="0" on="1"/>
        <pt x="125" y="1454" on="1"/>
        <pt x="1143" y="1454" on="1"/>
        <pt x="1143" y="1106" on="1"/>
        <pt x="524" y="1106" on="1"/>
        <pt x="524" y="901" on="1"/>
        <pt x="1053" y="901" on="1"/>
        <pt x="1053" y="578" on="1"/>
        <pt x="524" y="578" on="1"/>
        <pt x="524" y="348" on="1"/>
      </contour>
    </TTGlyph>
    <TTGlyph name="Igrave" xMin="16" yMin="0" xMax="524" yMax="1872">
      <contour>
        <pt x="16" y="1872" on="1"/>
        <pt x="362" y="1872" on="1"/>
        <pt x="465" y="1581" on="1"/>
        <pt x="219" y="1516" on="1"/>
      </contour>
      <contour>
        <pt x="125" y="0" on="1"/>
        <pt x="125" y="1454" on="1"/>
        <pt x="524" y="1454" on="1"/>
        <pt x="524" y="0" on="1"/>
      </contour>
    </TTGlyph>
    <TTGlyph name="Ihookabove" xMin="104" yMin="0" xMax="543" yMax="1985">
      <contour>
        <pt x="209" y="1761" on="1"/>
        <pt x="104" y="1864" on="1"/>
        <pt x="220" y="1985" on="0"/>
        <pt x="342" y="1985" on="1"/>
        <pt x="433" y="1985" on="0"/>
        <pt x="543" y="1890" on="0"/>
        <pt x="543" y="1734" on="0"/>
        <pt x="475" y="1630" on="0"/>
        <pt x="391" y="1561" on="1"/>
        <pt x="299" y="1657" on="1"/>
        <pt x="373" y="1708" on="0"/>
        <pt x="373" y="1755" on="1"/>
        <pt x="373" y="1782" on="0"/>
        <pt x="340" y="1817" on="0"/>
        <pt x="311" y="1817" on="1"/>
        <pt x="292" y="1817" on="0"/>
        <pt x="257" y="1800" on="0"/>
        <pt x="237" y="1785" on="0"/>
      </contour>
      <contour>
        <pt x="125" y="0" on="1"/>
        <pt x="125" y="1454" on="1"/>
        <pt x="524" y="1454" on="1"/>
        <pt x="524" y="0" on="1"/>
      </contour>
    </TTGlyph>
    <TTGlyph name="Iinvertedbreve" xMin="-2" yMin="0" xMax="649" yMax="1872">
      <contour>
        <pt x="199" y="1540" on="1"/>
        <pt x="-2" y="1540" on="1"/>
        <pt x="-2" y="1687" on="0"/>
        <pt x="180" y="1872" on="0"/>
        <pt x="468" y="1872" on="0"/>
        <pt x="649" y="1687" on="0"/>
        <pt x="649" y="1540" on="1"/>
        <pt x="449" y="1540" on="1"/>
        <pt x="443" y="1612" on="0"/>
        <pt x="371" y="1706" on="0"/>
        <pt x="324" y="1706" on="1"/>
        <pt x="273" y="1706" on="0"/>
        <pt x="199" y="1608" on="0"/>
      </contour>
      <contour>
        <pt x="125" y="0" on="1"/>
        <pt x="125" y="1454" on="1"/>
        <pt x="524" y="1454" on="1"/>
        <pt x="524" y="0" on="1"/>
      </contour>
    </TTGlyph>
    <TTGlyph name="Imacron" xMin="8" yMin="0" xMax="643" yMax="1851">
      <contour>
        <pt x="8" y="1620" on="1"/>
        <pt x="8" y="1851" on="1"/>
        <pt x="643" y="1851" on="1"/>
        <pt x="643" y="1620" on="1"/>
      </contour>
      <contour>
        <pt x="125" y="0" on="1"/>
        <pt x="125" y="1454" on="1"/>
        <pt x="524" y="1454" on="1"/>
        <pt x="524" y="0" on="1"/>
      </contour>
    </TTGlyph>
    <TTGlyph name="Imacroncyrillic" xMin="133" yMin="0" xMax="1442" yMax="1851">
      <contour>
        <pt x="473" y="1620" on="1"/>
        <pt x="473" y="1851" on="1"/>
        <pt x="1108" y="1851" on="1"/>
        <pt x="1108" y="1620" on="1"/>
      </contour>
      <contour>
        <pt x="133" y="0" on="1"/>
        <pt x="133" y="1454" on="1"/>
        <pt x="532" y="1454" on="1"/>
        <pt x="532" y="565" on="1"/>
        <pt x="1069" y="1454" on="1"/>
        <pt x="1442" y="1454" on="1"/>
        <pt x="1442" y="0" on="1"/>
        <pt x="1042" y="0" on="1"/>
        <pt x="1042" y="864" on="1"/>
        <pt x="512" y="0" on="1"/>
      </contour>
    </TTGlyph>
    <TTGlyph name="Iogonek" xMin="125" yMin="-440" xMax="524" yMax="1454">
      <contour>
        <pt x="524" y="0" on="1"/>
        <pt x="454" y="-41" on="0"/>
        <pt x="377" y="-125" on="0"/>
        <pt x="377" y="-195" on="0"/>
        <pt x="449" y="-236" on="0"/>
        <pt x="520" y="-236" on="1"/>
        <pt x="449" y="-440" on="1"/>
        <pt x="296" y="-422" on="0"/>
        <pt x="137" y="-311" on="0"/>
        <pt x="137" y="-236" on="1"/>
        <pt x="137" y="-110" on="0"/>
        <pt x="287" y="0" on="1"/>
        <pt x="125" y="0" on="1"/>
        <pt x="125" y="1454" on="1"/>
        <pt x="524" y="1454" on="1"/>
      </contour>
    </TTGlyph>
    <TTGlyph name="Itilde" xMin="-111" yMin="0" xMax="758" yMax="1872">
      <contour>
        <pt x="190" y="1647" on="1"/>
        <pt x="164" y="1647" on="0"/>
        <pt x="126" y="1627" on="0"/>
        <pt x="108" y="1601" on="0"/>
        <pt x="98" y="1568" on="0"/>
        <pt x="96" y="1553" on="0"/>
        <pt x="96" y="1548" on="1"/>
        <pt x="-111" y="1548" on="1"/>
        <pt x="-111" y="1572" on="0"/>
        <pt x="-92" y="1647" on="0"/>
        <pt x="-47" y="1739" on="0"/>
        <pt x="16" y="1818" on="0"/>
        <pt x="116" y="1872" on="0"/>
        <pt x="174" y="1872" on="1"/>
        <pt x="219" y="1872" on="0"/>
        <pt x="301" y="1839" on="0"/>
        <pt x="353" y="1800" on="0"/>
        <pt x="420" y="1767" on="0"/>
        <pt x="451" y="1767" on="1"/>
        <pt x="476" y="1767" on="0"/>
        <pt x="516" y="1788" on="0"/>
        <pt x="536" y="1816" on="0"/>
        <pt x="549" y="1849" on="0"/>
        <pt x="553" y="1868" on="0"/>
        <pt x="553" y="1872" on="1"/>
        <pt x="758" y="1872" on="1"/>
        <pt x="758" y="1855" on="0"/>
        <pt x="738" y="1785" on="0"/>
        <pt x="692" y="1690" on="0"/>
        <pt x="628" y="1607" on="0"/>
        <pt x="524" y="1548" on="0"/>
        <pt x="465" y="1548" on="1"/>
        <pt x="412" y="1548" on="0"/>
        <pt x="313" y="1598" on="0"/>
        <pt x="227" y="1647" on="0"/>
      </contour>
      <contour>
        <pt x="125" y="0" on="1"/>
        <pt x="125" y="1454" on="1"/>
        <pt x="524" y="1454" on="1"/>
        <pt x="524" y="0" on="1"/>
      </contour>
    </TTGlyph>
    <TTGlyph name="J" xMin="2" yMin="-23" xMax="911" yMax="1454">
      <contour>
        <pt x="86" y="393" on="1"/>
        <pt x="108" y="377" on="0"/>
        <pt x="241" y="332" on="0"/>
        <pt x="317" y="332" on="1"/>
        <pt x="368" y="332" on="0"/>
        <pt x="437" y="360" on="0"/>
        <pt x="481" y="413" on="0"/>
        <pt x="504" y="511" on="0"/>
        <pt x="512" y="626" on="0"/>
        <pt x="512" y="715" on="1"/>
        <pt x="512" y="1454" on="1"/>
        <pt x="911" y="1454" on="1"/>
        <pt x="911" y="715" on="1"/>
        <pt x="911" y="612" on="0"/>
        <pt x="901" y="457" on="0"/>
        <pt x="870" y="295" on="0"/>
        <pt x="817" y="181" on="0"/>
        <pt x="728" y="77" on="0"/>
        <pt x="604" y="14" on="0"/>
        <pt x="428" y="-23" on="0"/>
        <pt x="317" y="-23" on="1"/>
        <pt x="135" y="-23" on="0"/>
        <pt x="2" y="68" on="1"/>
      </contour>
    </TTGlyph>
    <TTGlyph name="Jcircumflex" xMin="2" yMin="-23" xMax="1087" yMax="1872">
      <contour>
        <pt x="346" y="1636" on="1"/>
        <pt x="578" y="1872" on="1"/>
        <pt x="856" y="1872" on="1"/>
        <pt x="1087" y="1636" on="1"/>
        <pt x="891" y="1550" on="1"/>
        <pt x="717" y="1679" on="1"/>
        <pt x="543" y="1550" on="1"/>
      </contour>
      <contour>
        <pt x="86" y="393" on="1"/>
        <pt x="108" y="377" on="0"/>
        <pt x="241" y="332" on="0"/>
        <pt x="317" y="332" on="1"/>
        <pt x="368" y="332" on="0"/>
        <pt x="437" y="360" on="0"/>
        <pt x="481" y="413" on="0"/>
        <pt x="504" y="511" on="0"/>
        <pt x="512" y="626" on="0"/>
        <pt x="512" y="715" on="1"/>
        <pt x="512" y="1454" on="1"/>
        <pt x="911" y="1454" on="1"/>
        <pt x="911" y="715" on="1"/>
        <pt x="911" y="612" on="0"/>
        <pt x="901" y="457" on="0"/>
        <pt x="870" y="295" on="0"/>
        <pt x="817" y="181" on="0"/>
        <pt x="728" y="77" on="0"/>
        <pt x="604" y="14" on="0"/>
        <pt x="428" y="-23" on="0"/>
        <pt x="317" y="-23" on="1"/>
        <pt x="135" y="-23" on="0"/>
        <pt x="2" y="68" on="1"/>
      </contour>
    </TTGlyph>
    <TTGlyph name="K" xMin="125" yMin="0" xMax="1454" yMax="1454">
      <contour>
        <pt x="125" y="0" on="1"/>
        <pt x="125" y="1454" on="1"/>
        <pt x="524" y="1454" on="1"/>
        <pt x="524" y="901" on="1"/>
        <pt x="967" y="1454" on="1"/>
        <pt x="1417" y="1454" on="1"/>
        <pt x="889" y="803" on="1"/>
        <pt x="1454" y="0" on="1"/>
        <pt x="995" y="0" on="1"/>
        <pt x="635" y="535" on="1"/>
        <pt x="524" y="420" on="1"/>
        <pt x="524" y="0" on="1"/>
      </contour>
    </TTGlyph>
    <TTGlyph name="Kabashkircyrillic" xMin="20" yMin="0" xMax="1640" yMax="1454">
      <contour>
        <pt x="1081" y="752" on="1"/>
        <pt x="1640" y="0" on="1"/>
        <pt x="1157" y="0" on="1"/>
        <pt x="764" y="557" on="1"/>
        <pt x="698" y="557" on="1"/>
        <pt x="698" y="0" on="1"/>
        <pt x="301" y="0" on="1"/>
        <pt x="301" y="1126" on="1"/>
        <pt x="20" y="1126" on="1"/>
        <pt x="20" y="1454" on="1"/>
        <pt x="698" y="1454" on="1"/>
        <pt x="698" y="920" on="1"/>
        <pt x="780" y="920" on="1"/>
        <pt x="1155" y="1454" on="1"/>
        <pt x="1593" y="1454" on="1"/>
      </contour>
    </TTGlyph>
    <TTGlyph name="Kadescendercyrillic" xMin="133" yMin="-279" xMax="1473" yMax="1454">
      <contour>
        <pt x="1214" y="348" on="1"/>
        <pt x="1473" y="348" on="1"/>
        <pt x="1473" y="-279" on="1"/>
        <pt x="1135" y="-279" on="1"/>
        <pt x="1135" y="0" on="1"/>
        <pt x="989" y="0" on="1"/>
        <pt x="596" y="557" on="1"/>
        <pt x="530" y="557" on="1"/>
        <pt x="530" y="0" on="1"/>
        <pt x="133" y="0" on="1"/>
        <pt x="133" y="1454" on="1"/>
        <pt x="530" y="1454" on="1"/>
        <pt x="530" y="920" on="1"/>
        <pt x="612" y="920" on="1"/>
        <pt x="987" y="1454" on="1"/>
        <pt x="1425" y="1454" on="1"/>
        <pt x="913" y="752" on="1"/>
      </contour>
    </TTGlyph>
    <TTGlyph name="Kaverticalstrokecyrillic" xMin="125" yMin="0" xMax="1546" yMax="1454">
      <contour>
        <pt x="1159" y="752" on="1"/>
        <pt x="1546" y="0" on="1"/>
        <pt x="1112" y="0" on="1"/>
        <pt x="831" y="578" on="1"/>
        <pt x="805" y="578" on="1"/>
        <pt x="805" y="365" on="1"/>
        <pt x="647" y="365" on="1"/>
        <pt x="647" y="578" on="1"/>
        <pt x="522" y="578" on="1"/>
        <pt x="522" y="0" on="1"/>
        <pt x="125" y="0" on="1"/>
        <pt x="125" y="1454" on="1"/>
        <pt x="522" y="1454" on="1"/>
        <pt x="522" y="899" on="1"/>
        <pt x="647" y="899" on="1"/>
        <pt x="647" y="1098" on="1"/>
        <pt x="805" y="1098" on="1"/>
        <pt x="805" y="899" on="1"/>
        <pt x="827" y="899" on="1"/>
        <pt x="1090" y="1454" on="1"/>
        <pt x="1499" y="1454" on="1"/>
      </contour>
    </TTGlyph>
    <TTGlyph name="Kcedilla" xMin="125" yMin="-436" xMax="1454" yMax="1454">
      <contour>
        <pt x="125" y="0" on="1"/>
        <pt x="125" y="1454" on="1"/>
        <pt x="524" y="1454" on="1"/>
        <pt x="524" y="901" on="1"/>
        <pt x="967" y="1454" on="1"/>
        <pt x="1417" y="1454" on="1"/>
        <pt x="889" y="803" on="1"/>
        <pt x="1454" y="0" on="1"/>
        <pt x="995" y="0" on="1"/>
        <pt x="635" y="535" on="1"/>
        <pt x="524" y="420" on="1"/>
        <pt x="524" y="0" on="1"/>
      </contour>
      <contour>
        <pt x="633" y="-436" on="1"/>
        <pt x="707" y="-311" on="1"/>
        <pt x="590" y="-311" on="1"/>
        <pt x="590" y="-94" on="1"/>
        <pt x="911" y="-94" on="1"/>
        <pt x="911" y="-311" on="1"/>
        <pt x="801" y="-436" on="1"/>
      </contour>
    </TTGlyph>
    <TTGlyph name="L" xMin="125" yMin="0" xMax="1184" yMax="1454">
      <contour>
        <pt x="125" y="0" on="1"/>
        <pt x="125" y="1454" on="1"/>
        <pt x="524" y="1454" on="1"/>
        <pt x="524" y="348" on="1"/>
        <pt x="1184" y="348" on="1"/>
        <pt x="1184" y="0" on="1"/>
      </contour>
    </TTGlyph>
    <TTGlyph name="Lacute" xMin="125" yMin="0" xMax="1184" yMax="1872">
      <contour>
        <pt x="453" y="1516" on="1"/>
        <pt x="207" y="1581" on="1"/>
        <pt x="309" y="1872" on="1"/>
        <pt x="655" y="1872" on="1"/>
      </contour>
      <contour>
        <pt x="125" y="0" on="1"/>
        <pt x="125" y="1454" on="1"/>
        <pt x="524" y="1454" on="1"/>
        <pt x="524" y="348" on="1"/>
        <pt x="1184" y="348" on="1"/>
        <pt x="1184" y="0" on="1"/>
      </contour>
    </TTGlyph>
    <TTGlyph name="Lcaron" xMin="125" yMin="0" xMax="1184" yMax="1495">
      <contour>
        <pt x="952" y="1139" on="1"/>
        <pt x="707" y="1204" on="1"/>
        <pt x="809" y="1495" on="1"/>
        <pt x="1155" y="1495" on="1"/>
      </contour>
      <contour>
        <pt x="125" y="0" on="1"/>
        <pt x="125" y="1454" on="1"/>
        <pt x="524" y="1454" on="1"/>
        <pt x="524" y="348" on="1"/>
        <pt x="1184" y="348" on="1"/>
        <pt x="1184" y="0" on="1"/>
      </contour>
    </TTGlyph>
    <TTGlyph name="Lcedilla" xMin="125" yMin="-436" xMax="1184" yMax="1454">
      <contour>
        <pt x="125" y="0" on="1"/>
        <pt x="125" y="1454" on="1"/>
        <pt x="524" y="1454" on="1"/>
        <pt x="524" y="348" on="1"/>
        <pt x="1184" y="348" on="1"/>
        <pt x="1184" y="0" on="1"/>
      </contour>
      <contour>
        <pt x="565" y="-436" on="1"/>
        <pt x="639" y="-311" on="1"/>
        <pt x="522" y="-311" on="1"/>
        <pt x="522" y="-94" on="1"/>
        <pt x="844" y="-94" on="1"/>
        <pt x="844" y="-311" on="1"/>
        <pt x="733" y="-436" on="1"/>
      </contour>
    </TTGlyph>
    <TTGlyph name="Ldot" xMin="125" yMin="0" xMax="1184" yMax="1454">
      <contour>
        <pt x="125" y="0" on="1"/>
        <pt x="125" y="1454" on="1"/>
        <pt x="524" y="1454" on="1"/>
        <pt x="524" y="348" on="1"/>
        <pt x="1184" y="348" on="1"/>
        <pt x="1184" y="0" on="1"/>
      </contour>
      <contour>
        <pt x="745" y="649" on="1"/>
        <pt x="745" y="1026" on="1"/>
        <pt x="1061" y="1026" on="1"/>
        <pt x="1061" y="649" on="1"/>
      </contour>
    </TTGlyph>
    <TTGlyph name="Ldotbelow" xMin="125" yMin="-438" xMax="1184" yMax="1454">
      <contour>
        <pt x="125" y="0" on="1"/>
        <pt x="125" y="1454" on="1"/>
        <pt x="524" y="1454" on="1"/>
        <pt x="524" y="348" on="1"/>
        <pt x="1184" y="348" on="1"/>
        <pt x="1184" y="0" on="1"/>
      </contour>
      <contour>
        <pt x="516" y="-438" on="1"/>
        <pt x="516" y="-131" on="1"/>
        <pt x="864" y="-131" on="1"/>
        <pt x="864" y="-438" on="1"/>
      </contour>
    </TTGlyph>
    <TTGlyph name="Llinebelow" xMin="125" yMin="-383" xMax="1184" yMax="1454">
      <contour>
        <pt x="125" y="0" on="1"/>
        <pt x="125" y="1454" on="1"/>
        <pt x="524" y="1454" on="1"/>
        <pt x="524" y="348" on="1"/>
        <pt x="1184" y="348" on="1"/>
        <pt x="1184" y="0" on="1"/>
      </contour>
      <contour>
        <pt x="373" y="-383" on="1"/>
        <pt x="373" y="-152" on="1"/>
        <pt x="1008" y="-152" on="1"/>
        <pt x="1008" y="-383" on="1"/>
      </contour>
    </TTGlyph>
    <TTGlyph name="Lslash" xMin="-35" yMin="0" xMax="1208" yMax="1454">
      <contour>
        <pt x="549" y="348" on="1"/>
        <pt x="1208" y="348" on="1"/>
        <pt x="1208" y="0" on="1"/>
        <pt x="150" y="0" on="1"/>
        <pt x="150" y="563" on="1"/>
        <pt x="53" y="516" on="1"/>
        <pt x="-35" y="723" on="1"/>
        <pt x="150" y="813" on="1"/>
        <pt x="150" y="1454" on="1"/>
        <pt x="549" y="1454" on="1"/>
        <pt x="549" y="1008" on="1"/>
        <pt x="694" y="1079" on="1"/>
        <pt x="782" y="872" on="1"/>
        <pt x="549" y="758" on="1"/>
      </contour>
    </TTGlyph>
    <TTGlyph name="M" xMin="125" yMin="0" xMax="1624" yMax="1454">
      <contour>
        <pt x="1225" y="0" on="1"/>
        <pt x="1225" y="766" on="1"/>
        <pt x="981" y="227" on="1"/>
        <pt x="768" y="227" on="1"/>
        <pt x="524" y="766" on="1"/>
        <pt x="524" y="0" on="1"/>
        <pt x="125" y="0" on="1"/>
        <pt x="125" y="1454" on="1"/>
        <pt x="561" y="1454" on="1"/>
        <pt x="874" y="770" on="1"/>
        <pt x="1190" y="1454" on="1"/>
        <pt x="1624" y="1454" on="1"/>
        <pt x="1624" y="0" on="1"/>
      </contour>
    </TTGlyph>
    <TTGlyph name="Mdotbelow" xMin="125" yMin="-438" xMax="1624" yMax="1454">
      <contour>
        <pt x="1225" y="0" on="1"/>
        <pt x="1225" y="766" on="1"/>
        <pt x="981" y="227" on="1"/>
        <pt x="768" y="227" on="1"/>
        <pt x="524" y="766" on="1"/>
        <pt x="524" y="0" on="1"/>
        <pt x="125" y="0" on="1"/>
        <pt x="125" y="1454" on="1"/>
        <pt x="561" y="1454" on="1"/>
        <pt x="874" y="770" on="1"/>
        <pt x="1190" y="1454" on="1"/>
        <pt x="1624" y="1454" on="1"/>
        <pt x="1624" y="0" on="1"/>
      </contour>
      <contour>
        <pt x="700" y="-438" on="1"/>
        <pt x="700" y="-131" on="1"/>
        <pt x="1049" y="-131" on="1"/>
        <pt x="1049" y="-438" on="1"/>
      </contour>
    </TTGlyph>
    <TTGlyph name="N" xMin="125" yMin="0" xMax="1419" yMax="1454">
      <contour>
        <pt x="524" y="715" on="1"/>
        <pt x="524" y="0" on="1"/>
        <pt x="125" y="0" on="1"/>
        <pt x="125" y="1454" on="1"/>
        <pt x="436" y="1454" on="1"/>
        <pt x="1020" y="715" on="1"/>
        <pt x="1020" y="1454" on="1"/>
        <pt x="1419" y="1454" on="1"/>
        <pt x="1419" y="0" on="1"/>
        <pt x="1102" y="0" on="1"/>
      </contour>
    </TTGlyph>
    <TTGlyph name="Nacute" xMin="125" yMin="0" xMax="1419" yMax="1870">
      <contour>
        <pt x="889" y="1513" on="1"/>
        <pt x="643" y="1579" on="1"/>
        <pt x="745" y="1870" on="1"/>
        <pt x="1092" y="1870" on="1"/>
      </contour>
      <contour>
        <pt x="524" y="715" on="1"/>
        <pt x="524" y="0" on="1"/>
        <pt x="125" y="0" on="1"/>
        <pt x="125" y="1454" on="1"/>
        <pt x="436" y="1454" on="1"/>
        <pt x="1020" y="715" on="1"/>
        <pt x="1020" y="1454" on="1"/>
        <pt x="1419" y="1454" on="1"/>
        <pt x="1419" y="0" on="1"/>
        <pt x="1102" y="0" on="1"/>
      </contour>
    </TTGlyph>
    <TTGlyph name="Ncaron" xMin="125" yMin="0" xMax="1419" yMax="1870">
      <contour>
        <pt x="592" y="1870" on="1"/>
        <pt x="766" y="1741" on="1"/>
        <pt x="940" y="1870" on="1"/>
        <pt x="1137" y="1784" on="1"/>
        <pt x="905" y="1548" on="1"/>
        <pt x="627" y="1548" on="1"/>
        <pt x="395" y="1784" on="1"/>
      </contour>
      <contour>
        <pt x="524" y="715" on="1"/>
        <pt x="524" y="0" on="1"/>
        <pt x="125" y="0" on="1"/>
        <pt x="125" y="1454" on="1"/>
        <pt x="436" y="1454" on="1"/>
        <pt x="1020" y="715" on="1"/>
        <pt x="1020" y="1454" on="1"/>
        <pt x="1419" y="1454" on="1"/>
        <pt x="1419" y="0" on="1"/>
        <pt x="1102" y="0" on="1"/>
      </contour>
    </TTGlyph>
    <TTGlyph name="Ncedilla" xMin="125" yMin="-436" xMax="1419" yMax="1454">
      <contour>
        <pt x="524" y="715" on="1"/>
        <pt x="524" y="0" on="1"/>
        <pt x="125" y="0" on="1"/>
        <pt x="125" y="1454" on="1"/>
        <pt x="436" y="1454" on="1"/>
        <pt x="1020" y="715" on="1"/>
        <pt x="1020" y="1454" on="1"/>
        <pt x="1419" y="1454" on="1"/>
        <pt x="1419" y="0" on="1"/>
        <pt x="1102" y="0" on="1"/>
      </contour>
      <contour>
        <pt x="641" y="-436" on="1"/>
        <pt x="715" y="-311" on="1"/>
        <pt x="598" y="-311" on="1"/>
        <pt x="598" y="-94" on="1"/>
        <pt x="920" y="-94" on="1"/>
        <pt x="920" y="-311" on="1"/>
        <pt x="809" y="-436" on="1"/>
      </contour>
    </TTGlyph>
    <TTGlyph name="Ndotaccent" xMin="125" yMin="0" xMax="1419" yMax="1870">
      <contour>
        <pt x="592" y="1563" on="1"/>
        <pt x="592" y="1870" on="1"/>
        <pt x="940" y="1870" on="1"/>
        <pt x="940" y="1563" on="1"/>
      </contour>
      <contour>
        <pt x="524" y="715" on="1"/>
        <pt x="524" y="0" on="1"/>
        <pt x="125" y="0" on="1"/>
        <pt x="125" y="1454" on="1"/>
        <pt x="436" y="1454" on="1"/>
        <pt x="1020" y="715" on="1"/>
        <pt x="1020" y="1454" on="1"/>
        <pt x="1419" y="1454" on="1"/>
        <pt x="1419" y="0" on="1"/>
        <pt x="1102" y="0" on="1"/>
      </contour>
    </TTGlyph>
    <TTGlyph name="Ndotbelow" xMin="125" yMin="-438" xMax="1419" yMax="1454">
      <contour>
        <pt x="524" y="715" on="1"/>
        <pt x="524" y="0" on="1"/>
        <pt x="125" y="0" on="1"/>
        <pt x="125" y="1454" on="1"/>
        <pt x="436" y="1454" on="1"/>
        <pt x="1020" y="715" on="1"/>
        <pt x="1020" y="1454" on="1"/>
        <pt x="1419" y="1454" on="1"/>
        <pt x="1419" y="0" on="1"/>
        <pt x="1102" y="0" on="1"/>
      </contour>
      <contour>
        <pt x="592" y="-438" on="1"/>
        <pt x="592" y="-131" on="1"/>
        <pt x="940" y="-131" on="1"/>
        <pt x="940" y="-438" on="1"/>
      </contour>
    </TTGlyph>
    <TTGlyph name="Nlinebelow" xMin="125" yMin="-383" xMax="1419" yMax="1454">
      <contour>
        <pt x="524" y="715" on="1"/>
        <pt x="524" y="0" on="1"/>
        <pt x="125" y="0" on="1"/>
        <pt x="125" y="1454" on="1"/>
        <pt x="436" y="1454" on="1"/>
        <pt x="1020" y="715" on="1"/>
        <pt x="1020" y="1454" on="1"/>
        <pt x="1419" y="1454" on="1"/>
        <pt x="1419" y="0" on="1"/>
        <pt x="1102" y="0" on="1"/>
      </contour>
      <contour>
        <pt x="449" y="-383" on="1"/>
        <pt x="449" y="-152" on="1"/>
        <pt x="1083" y="-152" on="1"/>
        <pt x="1083" y="-383" on="1"/>
      </contour>
    </TTGlyph>
    <TTGlyph name="Ntilde" xMin="125" yMin="0" xMax="1419" yMax="1870">
      <contour>
        <pt x="633" y="1645" on="1"/>
        <pt x="607" y="1645" on="0"/>
        <pt x="569" y="1625" on="0"/>
        <pt x="551" y="1599" on="0"/>
        <pt x="541" y="1566" on="0"/>
        <pt x="539" y="1551" on="0"/>
        <pt x="539" y="1546" on="1"/>
        <pt x="332" y="1546" on="1"/>
        <pt x="332" y="1570" on="0"/>
        <pt x="351" y="1645" on="0"/>
        <pt x="396" y="1737" on="0"/>
        <pt x="458" y="1816" on="0"/>
        <pt x="558" y="1870" on="0"/>
        <pt x="616" y="1870" on="1"/>
        <pt x="661" y="1870" on="0"/>
        <pt x="743" y="1837" on="0"/>
        <pt x="795" y="1798" on="0"/>
        <pt x="862" y="1765" on="0"/>
        <pt x="893" y="1765" on="1"/>
        <pt x="918" y="1765" on="0"/>
        <pt x="958" y="1786" on="0"/>
        <pt x="978" y="1814" on="0"/>
        <pt x="991" y="1847" on="0"/>
        <pt x="995" y="1866" on="0"/>
        <pt x="995" y="1870" on="1"/>
        <pt x="1200" y="1870" on="1"/>
        <pt x="1200" y="1853" on="0"/>
        <pt x="1180" y="1783" on="0"/>
        <pt x="1134" y="1688" on="0"/>
        <pt x="1070" y="1605" on="0"/>
        <pt x="966" y="1546" on="0"/>
        <pt x="907" y="1546" on="1"/>
        <pt x="865" y="1546" on="0"/>
        <pt x="784" y="1577" on="0"/>
        <pt x="731" y="1614" on="0"/>
        <pt x="663" y="1645" on="0"/>
      </contour>
      <contour>
        <pt x="524" y="715" on="1"/>
        <pt x="524" y="0" on="1"/>
        <pt x="125" y="0" on="1"/>
        <pt x="125" y="1454" on="1"/>
        <pt x="436" y="1454" on="1"/>
        <pt x="1020" y="715" on="1"/>
        <pt x="1020" y="1454" on="1"/>
        <pt x="1419" y="1454" on="1"/>
        <pt x="1419" y="0" on="1"/>
        <pt x="1102" y="0" on="1"/>
      </contour>
    </TTGlyph>
    <TTGlyph name="O" xMin="45" yMin="-12" xMax="1522" yMax="1462">
      <contour>
        <pt x="45" y="729" on="1"/>
        <pt x="45" y="872" on="0"/>
        <pt x="157" y="1139" on="0"/>
        <pt x="351" y="1341" on="0"/>
        <pt x="630" y="1462" on="0"/>
        <pt x="788" y="1462" on="1"/>
        <pt x="948" y="1462" on="0"/>
        <pt x="1228" y="1335" on="0"/>
        <pt x="1415" y="1126" on="0"/>
        <pt x="1522" y="860" on="0"/>
        <pt x="1522" y="721" on="1"/>
        <pt x="1522" y="579" on="0"/>
        <pt x="1411" y="313" on="0"/>
        <pt x="1218" y="110" on="0"/>
        <pt x="938" y="-12" on="0"/>
        <pt x="780" y="-12" on="1"/>
        <pt x="620" y="-12" on="0"/>
        <pt x="341" y="114" on="0"/>
        <pt x="153" y="322" on="0"/>
        <pt x="45" y="589" on="0"/>
      </contour>
      <contour>
        <pt x="784" y="342" on="1"/>
        <pt x="867" y="342" on="0"/>
        <pt x="998" y="409" on="0"/>
        <pt x="1076" y="521" on="0"/>
        <pt x="1116" y="655" on="0"/>
        <pt x="1116" y="729" on="1"/>
        <pt x="1116" y="831" on="0"/>
        <pt x="1045" y="999" on="0"/>
        <pt x="890" y="1108" on="0"/>
        <pt x="782" y="1108" on="1"/>
        <pt x="699" y="1108" on="0"/>
        <pt x="569" y="1042" on="0"/>
        <pt x="491" y="932" on="0"/>
        <pt x="451" y="798" on="0"/>
        <pt x="451" y="725" on="1"/>
        <pt x="451" y="650" on="0"/>
        <pt x="492" y="515" on="0"/>
        <pt x="572" y="406" on="0"/>
        <pt x="702" y="342" on="0"/>
      </contour>
    </TTGlyph>
    <TTGlyph name="OE" xMin="45" yMin="-10" xMax="2048" yMax="1464">
      <contour>
        <pt x="2048" y="348" on="1"/>
        <pt x="2048" y="0" on="1"/>
        <pt x="1053" y="0" on="1"/>
        <pt x="1053" y="84" on="1"/>
        <pt x="901" y="-10" on="0"/>
        <pt x="739" y="-10" on="1"/>
        <pt x="588" y="-10" on="0"/>
        <pt x="324" y="116" on="0"/>
        <pt x="146" y="322" on="0"/>
        <pt x="45" y="589" on="0"/>
        <pt x="45" y="729" on="1"/>
        <pt x="45" y="921" on="0"/>
        <pt x="224" y="1257" on="0"/>
        <pt x="550" y="1464" on="0"/>
        <pt x="748" y="1464" on="1"/>
        <pt x="908" y="1464" on="0"/>
        <pt x="1053" y="1372" on="1"/>
        <pt x="1053" y="1454" on="1"/>
        <pt x="2030" y="1454" on="1"/>
        <pt x="2030" y="1106" on="1"/>
        <pt x="1452" y="1106" on="1"/>
        <pt x="1452" y="913" on="1"/>
        <pt x="1919" y="913" on="1"/>
        <pt x="1919" y="565" on="1"/>
        <pt x="1452" y="565" on="1"/>
        <pt x="1452" y="348" on="1"/>
      </contour>
      <contour>
        <pt x="1034" y="729" on="1"/>
        <pt x="1034" y="831" on="0"/>
        <pt x="972" y="1000" on="0"/>
        <pt x="835" y="1110" on="0"/>
        <pt x="741" y="1110" on="1"/>
        <pt x="668" y="1110" on="0"/>
        <pt x="554" y="1044" on="0"/>
        <pt x="486" y="933" on="0"/>
        <pt x="451" y="799" on="0"/>
        <pt x="451" y="725" on="1"/>
        <pt x="451" y="624" on="0"/>
        <pt x="512" y="455" on="0"/>
        <pt x="648" y="344" on="0"/>
        <pt x="743" y="344" on="1"/>
        <pt x="816" y="344" on="0"/>
        <pt x="931" y="410" on="0"/>
        <pt x="999" y="521" on="0"/>
        <pt x="1034" y="655" on="0"/>
      </contour>
    </TTGlyph>
    <TTGlyph name="Oacute" xMin="45" yMin="-12" xMax="1522" yMax="1872">
      <contour>
        <pt x="911" y="1516" on="1"/>
        <pt x="666" y="1581" on="1"/>
        <pt x="768" y="1872" on="1"/>
        <pt x="1114" y="1872" on="1"/>
      </contour>
      <contour>
        <pt x="45" y="729" on="1"/>
        <pt x="45" y="872" on="0"/>
        <pt x="157" y="1139" on="0"/>
        <pt x="351" y="1341" on="0"/>
        <pt x="630" y="1462" on="0"/>
        <pt x="788" y="1462" on="1"/>
        <pt x="948" y="1462" on="0"/>
        <pt x="1228" y="1335" on="0"/>
        <pt x="1415" y="1126" on="0"/>
        <pt x="1522" y="860" on="0"/>
        <pt x="1522" y="721" on="1"/>
        <pt x="1522" y="579" on="0"/>
        <pt x="1411" y="313" on="0"/>
        <pt x="1218" y="110" on="0"/>
        <pt x="938" y="-12" on="0"/>
        <pt x="780" y="-12" on="1"/>
        <pt x="620" y="-12" on="0"/>
        <pt x="341" y="114" on="0"/>
        <pt x="153" y="322" on="0"/>
        <pt x="45" y="589" on="0"/>
      </contour>
      <contour>
        <pt x="784" y="342" on="1"/>
        <pt x="867" y="342" on="0"/>
        <pt x="998" y="409" on="0"/>
        <pt x="1076" y="521" on="0"/>
        <pt x="1116" y="655" on="0"/>
        <pt x="1116" y="729" on="1"/>
        <pt x="1116" y="831" on="0"/>
        <pt x="1045" y="999" on="0"/>
        <pt x="890" y="1108" on="0"/>
        <pt x="782" y="1108" on="1"/>
        <pt x="699" y="1108" on="0"/>
        <pt x="569" y="1042" on="0"/>
        <pt x="491" y="932" on="0"/>
        <pt x="451" y="798" on="0"/>
        <pt x="451" y="725" on="1"/>
        <pt x="451" y="650" on="0"/>
        <pt x="492" y="515" on="0"/>
        <pt x="572" y="406" on="0"/>
        <pt x="702" y="342" on="0"/>
      </contour>
    </TTGlyph>
    <TTGlyph name="Obarredcyrillic" xMin="45" yMin="-12" xMax="1522" yMax="1462">
      <contour>
        <pt x="788" y="1462" on="1"/>
        <pt x="948" y="1462" on="0"/>
        <pt x="1228" y="1335" on="0"/>
        <pt x="1415" y="1126" on="0"/>
        <pt x="1522" y="860" on="0"/>
        <pt x="1522" y="721" on="1"/>
        <pt x="1522" y="579" on="0"/>
        <pt x="1411" y="313" on="0"/>
        <pt x="1218" y="110" on="0"/>
        <pt x="938" y="-12" on="0"/>
        <pt x="780" y="-12" on="1"/>
        <pt x="620" y="-12" on="0"/>
        <pt x="341" y="114" on="0"/>
        <pt x="153" y="322" on="0"/>
        <pt x="45" y="589" on="0"/>
        <pt x="45" y="729" on="1"/>
        <pt x="45" y="872" on="0"/>
        <pt x="157" y="1139" on="0"/>
        <pt x="351" y="1341" on="0"/>
        <pt x="630" y="1462" on="0"/>
      </contour>
      <contour>
        <pt x="782" y="1108" on="1"/>
        <pt x="652" y="1108" on="0"/>
        <pt x="490" y="955" on="0"/>
        <pt x="463" y="836" on="1"/>
        <pt x="1106" y="836" on="1"/>
        <pt x="1078" y="958" on="0"/>
        <pt x="913" y="1108" on="0"/>
      </contour>
      <contour>
        <pt x="643" y="342" on="0"/>
        <pt x="925" y="342" on="0"/>
        <pt x="1089" y="518" on="0"/>
        <pt x="1110" y="651" on="1"/>
        <pt x="457" y="651" on="1"/>
        <pt x="476" y="517" on="0"/>
      </contour>
    </TTGlyph>
    <TTGlyph name="Obreve" xMin="45" yMin="-12" xMax="1522" yMax="1872">
      <contour>
        <pt x="913" y="1872" on="1"/>
        <pt x="1114" y="1872" on="1"/>
        <pt x="1114" y="1725" on="0"/>
        <pt x="932" y="1540" on="0"/>
        <pt x="644" y="1540" on="0"/>
        <pt x="463" y="1725" on="0"/>
        <pt x="463" y="1872" on="1"/>
        <pt x="664" y="1872" on="1"/>
        <pt x="664" y="1804" on="0"/>
        <pt x="737" y="1706" on="0"/>
        <pt x="788" y="1706" on="1"/>
        <pt x="835" y="1706" on="0"/>
        <pt x="907" y="1800" on="0"/>
      </contour>
      <contour>
        <pt x="45" y="729" on="1"/>
        <pt x="45" y="872" on="0"/>
        <pt x="157" y="1139" on="0"/>
        <pt x="351" y="1341" on="0"/>
        <pt x="630" y="1462" on="0"/>
        <pt x="788" y="1462" on="1"/>
        <pt x="948" y="1462" on="0"/>
        <pt x="1228" y="1335" on="0"/>
        <pt x="1415" y="1126" on="0"/>
        <pt x="1522" y="860" on="0"/>
        <pt x="1522" y="721" on="1"/>
        <pt x="1522" y="579" on="0"/>
        <pt x="1411" y="313" on="0"/>
        <pt x="1218" y="110" on="0"/>
        <pt x="938" y="-12" on="0"/>
        <pt x="780" y="-12" on="1"/>
        <pt x="620" y="-12" on="0"/>
        <pt x="341" y="114" on="0"/>
        <pt x="153" y="322" on="0"/>
        <pt x="45" y="589" on="0"/>
      </contour>
      <contour>
        <pt x="784" y="342" on="1"/>
        <pt x="867" y="342" on="0"/>
        <pt x="998" y="409" on="0"/>
        <pt x="1076" y="521" on="0"/>
        <pt x="1116" y="655" on="0"/>
        <pt x="1116" y="729" on="1"/>
        <pt x="1116" y="831" on="0"/>
        <pt x="1045" y="999" on="0"/>
        <pt x="890" y="1108" on="0"/>
        <pt x="782" y="1108" on="1"/>
        <pt x="699" y="1108" on="0"/>
        <pt x="569" y="1042" on="0"/>
        <pt x="491" y="932" on="0"/>
        <pt x="451" y="798" on="0"/>
        <pt x="451" y="725" on="1"/>
        <pt x="451" y="650" on="0"/>
        <pt x="492" y="515" on="0"/>
        <pt x="572" y="406" on="0"/>
        <pt x="702" y="342" on="0"/>
      </contour>
    </TTGlyph>
    <TTGlyph name="Ocircumflex" xMin="45" yMin="-12" xMax="1522" yMax="1872">
      <contour>
        <pt x="418" y="1636" on="1"/>
        <pt x="649" y="1872" on="1"/>
        <pt x="928" y="1872" on="1"/>
        <pt x="1159" y="1636" on="1"/>
        <pt x="963" y="1550" on="1"/>
        <pt x="788" y="1679" on="1"/>
        <pt x="614" y="1550" on="1"/>
      </contour>
      <contour>
        <pt x="45" y="729" on="1"/>
        <pt x="45" y="872" on="0"/>
        <pt x="157" y="1139" on="0"/>
        <pt x="351" y="1341" on="0"/>
        <pt x="630" y="1462" on="0"/>
        <pt x="788" y="1462" on="1"/>
        <pt x="948" y="1462" on="0"/>
        <pt x="1228" y="1335" on="0"/>
        <pt x="1415" y="1126" on="0"/>
        <pt x="1522" y="860" on="0"/>
        <pt x="1522" y="721" on="1"/>
        <pt x="1522" y="579" on="0"/>
        <pt x="1411" y="313" on="0"/>
        <pt x="1218" y="110" on="0"/>
        <pt x="938" y="-12" on="0"/>
        <pt x="780" y="-12" on="1"/>
        <pt x="620" y="-12" on="0"/>
        <pt x="341" y="114" on="0"/>
        <pt x="153" y="322" on="0"/>
        <pt x="45" y="589" on="0"/>
      </contour>
      <contour>
        <pt x="784" y="342" on="1"/>
        <pt x="867" y="342" on="0"/>
        <pt x="998" y="409" on="0"/>
        <pt x="1076" y="521" on="0"/>
        <pt x="1116" y="655" on="0"/>
        <pt x="1116" y="729" on="1"/>
        <pt x="1116" y="831" on="0"/>
        <pt x="1045" y="999" on="0"/>
        <pt x="890" y="1108" on="0"/>
        <pt x="782" y="1108" on="1"/>
        <pt x="699" y="1108" on="0"/>
        <pt x="569" y="1042" on="0"/>
        <pt x="491" y="932" on="0"/>
        <pt x="451" y="798" on="0"/>
        <pt x="451" y="725" on="1"/>
        <pt x="451" y="650" on="0"/>
        <pt x="492" y="515" on="0"/>
        <pt x="572" y="406" on="0"/>
        <pt x="702" y="342" on="0"/>
      </contour>
    </TTGlyph>
    <TTGlyph name="Ocircumflexacute" xMin="45" yMin="-12" xMax="1522" yMax="2132">
      <contour>
        <pt x="1260" y="1776" on="1"/>
        <pt x="1014" y="1841" on="1"/>
        <pt x="1116" y="2132" on="1"/>
        <pt x="1462" y="2132" on="1"/>
      </contour>
      <contour>
        <pt x="418" y="1636" on="1"/>
        <pt x="649" y="1872" on="1"/>
        <pt x="928" y="1872" on="1"/>
        <pt x="1159" y="1636" on="1"/>
        <pt x="963" y="1550" on="1"/>
        <pt x="788" y="1679" on="1"/>
        <pt x="614" y="1550" on="1"/>
      </contour>
      <contour>
        <pt x="45" y="729" on="1"/>
        <pt x="45" y="872" on="0"/>
        <pt x="157" y="1139" on="0"/>
        <pt x="351" y="1341" on="0"/>
        <pt x="630" y="1462" on="0"/>
        <pt x="788" y="1462" on="1"/>
        <pt x="948" y="1462" on="0"/>
        <pt x="1228" y="1335" on="0"/>
        <pt x="1415" y="1126" on="0"/>
        <pt x="1522" y="860" on="0"/>
        <pt x="1522" y="721" on="1"/>
        <pt x="1522" y="579" on="0"/>
        <pt x="1411" y="313" on="0"/>
        <pt x="1218" y="110" on="0"/>
        <pt x="938" y="-12" on="0"/>
        <pt x="780" y="-12" on="1"/>
        <pt x="620" y="-12" on="0"/>
        <pt x="341" y="114" on="0"/>
        <pt x="153" y="322" on="0"/>
        <pt x="45" y="589" on="0"/>
      </contour>
      <contour>
        <pt x="784" y="342" on="1"/>
        <pt x="867" y="342" on="0"/>
        <pt x="998" y="409" on="0"/>
        <pt x="1076" y="521" on="0"/>
        <pt x="1116" y="655" on="0"/>
        <pt x="1116" y="729" on="1"/>
        <pt x="1116" y="831" on="0"/>
        <pt x="1045" y="999" on="0"/>
        <pt x="890" y="1108" on="0"/>
        <pt x="782" y="1108" on="1"/>
        <pt x="699" y="1108" on="0"/>
        <pt x="569" y="1042" on="0"/>
        <pt x="491" y="932" on="0"/>
        <pt x="451" y="798" on="0"/>
        <pt x="451" y="725" on="1"/>
        <pt x="451" y="650" on="0"/>
        <pt x="492" y="515" on="0"/>
        <pt x="572" y="406" on="0"/>
        <pt x="702" y="342" on="0"/>
      </contour>
    </TTGlyph>
    <TTGlyph name="Ocircumflexdotbelow" xMin="45" yMin="-438" xMax="1522" yMax="1872">
      <contour>
        <pt x="418" y="1636" on="1"/>
        <pt x="649" y="1872" on="1"/>
        <pt x="928" y="1872" on="1"/>
        <pt x="1159" y="1636" on="1"/>
        <pt x="963" y="1550" on="1"/>
        <pt x="788" y="1679" on="1"/>
        <pt x="614" y="1550" on="1"/>
      </contour>
      <contour>
        <pt x="45" y="729" on="1"/>
        <pt x="45" y="872" on="0"/>
        <pt x="157" y="1139" on="0"/>
        <pt x="351" y="1341" on="0"/>
        <pt x="630" y="1462" on="0"/>
        <pt x="788" y="1462" on="1"/>
        <pt x="948" y="1462" on="0"/>
        <pt x="1228" y="1335" on="0"/>
        <pt x="1415" y="1126" on="0"/>
        <pt x="1522" y="860" on="0"/>
        <pt x="1522" y="721" on="1"/>
        <pt x="1522" y="579" on="0"/>
        <pt x="1411" y="313" on="0"/>
        <pt x="1218" y="110" on="0"/>
        <pt x="938" y="-12" on="0"/>
        <pt x="780" y="-12" on="1"/>
        <pt x="620" y="-12" on="0"/>
        <pt x="341" y="114" on="0"/>
        <pt x="153" y="322" on="0"/>
        <pt x="45" y="589" on="0"/>
      </contour>
      <contour>
        <pt x="784" y="342" on="1"/>
        <pt x="867" y="342" on="0"/>
        <pt x="998" y="409" on="0"/>
        <pt x="1076" y="521" on="0"/>
        <pt x="1116" y="655" on="0"/>
        <pt x="1116" y="729" on="1"/>
        <pt x="1116" y="831" on="0"/>
        <pt x="1045" y="999" on="0"/>
        <pt x="890" y="1108" on="0"/>
        <pt x="782" y="1108" on="1"/>
        <pt x="699" y="1108" on="0"/>
        <pt x="569" y="1042" on="0"/>
        <pt x="491" y="932" on="0"/>
        <pt x="451" y="798" on="0"/>
        <pt x="451" y="725" on="1"/>
        <pt x="451" y="650" on="0"/>
        <pt x="492" y="515" on="0"/>
        <pt x="572" y="406" on="0"/>
        <pt x="702" y="342" on="0"/>
      </contour>
      <contour>
        <pt x="606" y="-438" on="1"/>
        <pt x="606" y="-131" on="1"/>
        <pt x="954" y="-131" on="1"/>
        <pt x="954" y="-438" on="1"/>
      </contour>
    </TTGlyph>
    <TTGlyph name="Ocircumflexgrave" xMin="45" yMin="-12" xMax="1522" yMax="2134">
      <contour>
        <pt x="82" y="2134" on="1"/>
        <pt x="428" y="2134" on="1"/>
        <pt x="530" y="1843" on="1"/>
        <pt x="285" y="1778" on="1"/>
      </contour>
      <contour>
        <pt x="397" y="1636" on="1"/>
        <pt x="629" y="1872" on="1"/>
        <pt x="907" y="1872" on="1"/>
        <pt x="1139" y="1636" on="1"/>
        <pt x="942" y="1550" on="1"/>
        <pt x="768" y="1679" on="1"/>
        <pt x="594" y="1550" on="1"/>
      </contour>
      <contour>
        <pt x="45" y="729" on="1"/>
        <pt x="45" y="872" on="0"/>
        <pt x="157" y="1139" on="0"/>
        <pt x="351" y="1341" on="0"/>
        <pt x="630" y="1462" on="0"/>
        <pt x="788" y="1462" on="1"/>
        <pt x="948" y="1462" on="0"/>
        <pt x="1228" y="1335" on="0"/>
        <pt x="1415" y="1126" on="0"/>
        <pt x="1522" y="860" on="0"/>
        <pt x="1522" y="721" on="1"/>
        <pt x="1522" y="579" on="0"/>
        <pt x="1411" y="313" on="0"/>
        <pt x="1218" y="110" on="0"/>
        <pt x="938" y="-12" on="0"/>
        <pt x="780" y="-12" on="1"/>
        <pt x="620" y="-12" on="0"/>
        <pt x="341" y="114" on="0"/>
        <pt x="153" y="322" on="0"/>
        <pt x="45" y="589" on="0"/>
      </contour>
      <contour>
        <pt x="784" y="342" on="1"/>
        <pt x="867" y="342" on="0"/>
        <pt x="998" y="409" on="0"/>
        <pt x="1076" y="521" on="0"/>
        <pt x="1116" y="655" on="0"/>
        <pt x="1116" y="729" on="1"/>
        <pt x="1116" y="831" on="0"/>
        <pt x="1045" y="999" on="0"/>
        <pt x="890" y="1108" on="0"/>
        <pt x="782" y="1108" on="1"/>
        <pt x="699" y="1108" on="0"/>
        <pt x="569" y="1042" on="0"/>
        <pt x="491" y="932" on="0"/>
        <pt x="451" y="798" on="0"/>
        <pt x="451" y="725" on="1"/>
        <pt x="451" y="650" on="0"/>
        <pt x="492" y="515" on="0"/>
        <pt x="572" y="406" on="0"/>
        <pt x="702" y="342" on="0"/>
      </contour>
    </TTGlyph>
    <TTGlyph name="Ocircumflexhookabove" xMin="45" yMin="-12" xMax="1522" yMax="2154">
      <contour>
        <pt x="1008" y="1931" on="1"/>
        <pt x="903" y="2034" on="1"/>
        <pt x="1018" y="2154" on="0"/>
        <pt x="1141" y="2154" on="1"/>
        <pt x="1232" y="2154" on="0"/>
        <pt x="1341" y="2060" on="0"/>
        <pt x="1341" y="1982" on="1"/>
        <pt x="1341" y="1928" on="0"/>
        <pt x="1305" y="1842" on="0"/>
        <pt x="1246" y="1777" on="0"/>
        <pt x="1190" y="1731" on="1"/>
        <pt x="1098" y="1827" on="1"/>
        <pt x="1171" y="1877" on="0"/>
        <pt x="1171" y="1925" on="1"/>
        <pt x="1171" y="1952" on="0"/>
        <pt x="1138" y="1987" on="0"/>
        <pt x="1110" y="1987" on="1"/>
        <pt x="1091" y="1987" on="0"/>
        <pt x="1056" y="1970" on="0"/>
        <pt x="1036" y="1955" on="0"/>
      </contour>
      <contour>
        <pt x="397" y="1636" on="1"/>
        <pt x="629" y="1872" on="1"/>
        <pt x="907" y="1872" on="1"/>
        <pt x="1139" y="1636" on="1"/>
        <pt x="942" y="1550" on="1"/>
        <pt x="768" y="1679" on="1"/>
        <pt x="594" y="1550" on="1"/>
      </contour>
      <contour>
        <pt x="45" y="729" on="1"/>
        <pt x="45" y="872" on="0"/>
        <pt x="157" y="1139" on="0"/>
        <pt x="351" y="1341" on="0"/>
        <pt x="630" y="1462" on="0"/>
        <pt x="788" y="1462" on="1"/>
        <pt x="948" y="1462" on="0"/>
        <pt x="1228" y="1335" on="0"/>
        <pt x="1415" y="1126" on="0"/>
        <pt x="1522" y="860" on="0"/>
        <pt x="1522" y="721" on="1"/>
        <pt x="1522" y="579" on="0"/>
        <pt x="1411" y="313" on="0"/>
        <pt x="1218" y="110" on="0"/>
        <pt x="938" y="-12" on="0"/>
        <pt x="780" y="-12" on="1"/>
        <pt x="620" y="-12" on="0"/>
        <pt x="341" y="114" on="0"/>
        <pt x="153" y="322" on="0"/>
        <pt x="45" y="589" on="0"/>
      </contour>
      <contour>
        <pt x="784" y="342" on="1"/>
        <pt x="867" y="342" on="0"/>
        <pt x="998" y="409" on="0"/>
        <pt x="1076" y="521" on="0"/>
        <pt x="1116" y="655" on="0"/>
        <pt x="1116" y="729" on="1"/>
        <pt x="1116" y="831" on="0"/>
        <pt x="1045" y="999" on="0"/>
        <pt x="890" y="1108" on="0"/>
        <pt x="782" y="1108" on="1"/>
        <pt x="699" y="1108" on="0"/>
        <pt x="569" y="1042" on="0"/>
        <pt x="491" y="932" on="0"/>
        <pt x="451" y="798" on="0"/>
        <pt x="451" y="725" on="1"/>
        <pt x="451" y="650" on="0"/>
        <pt x="492" y="515" on="0"/>
        <pt x="572" y="406" on="0"/>
        <pt x="702" y="342" on="0"/>
      </contour>
    </TTGlyph>
    <TTGlyph name="Ocircumflextilde" xMin="45" yMin="-12" xMax="1522" yMax="2290">
      <contour>
        <pt x="649" y="2064" on="1"/>
        <pt x="623" y="2064" on="0"/>
        <pt x="585" y="2044" on="0"/>
        <pt x="567" y="2018" on="0"/>
        <pt x="557" y="1986" on="0"/>
        <pt x="555" y="1971" on="0"/>
        <pt x="555" y="1966" on="1"/>
        <pt x="348" y="1966" on="1"/>
        <pt x="348" y="1990" on="0"/>
        <pt x="367" y="2065" on="0"/>
        <pt x="412" y="2157" on="0"/>
        <pt x="475" y="2236" on="0"/>
        <pt x="575" y="2290" on="0"/>
        <pt x="633" y="2290" on="1"/>
        <pt x="678" y="2290" on="0"/>
        <pt x="760" y="2257" on="0"/>
        <pt x="812" y="2218" on="0"/>
        <pt x="878" y="2185" on="0"/>
        <pt x="909" y="2185" on="1"/>
        <pt x="934" y="2185" on="0"/>
        <pt x="974" y="2206" on="0"/>
        <pt x="995" y="2234" on="0"/>
        <pt x="1008" y="2267" on="0"/>
        <pt x="1012" y="2286" on="0"/>
        <pt x="1012" y="2290" on="1"/>
        <pt x="1217" y="2290" on="1"/>
        <pt x="1217" y="2273" on="0"/>
        <pt x="1197" y="2203" on="0"/>
        <pt x="1151" y="2108" on="0"/>
        <pt x="1087" y="2025" on="0"/>
        <pt x="983" y="1966" on="0"/>
        <pt x="924" y="1966" on="1"/>
        <pt x="882" y="1966" on="0"/>
        <pt x="801" y="1997" on="0"/>
        <pt x="747" y="2033" on="0"/>
        <pt x="679" y="2064" on="0"/>
      </contour>
      <contour>
        <pt x="412" y="1636" on="1"/>
        <pt x="643" y="1872" on="1"/>
        <pt x="922" y="1872" on="1"/>
        <pt x="1153" y="1636" on="1"/>
        <pt x="956" y="1550" on="1"/>
        <pt x="782" y="1679" on="1"/>
        <pt x="608" y="1550" on="1"/>
      </contour>
      <contour>
        <pt x="45" y="729" on="1"/>
        <pt x="45" y="872" on="0"/>
        <pt x="157" y="1139" on="0"/>
        <pt x="351" y="1341" on="0"/>
        <pt x="630" y="1462" on="0"/>
        <pt x="788" y="1462" on="1"/>
        <pt x="948" y="1462" on="0"/>
        <pt x="1228" y="1335" on="0"/>
        <pt x="1415" y="1126" on="0"/>
        <pt x="1522" y="860" on="0"/>
        <pt x="1522" y="721" on="1"/>
        <pt x="1522" y="579" on="0"/>
        <pt x="1411" y="313" on="0"/>
        <pt x="1218" y="110" on="0"/>
        <pt x="938" y="-12" on="0"/>
        <pt x="780" y="-12" on="1"/>
        <pt x="620" y="-12" on="0"/>
        <pt x="341" y="114" on="0"/>
        <pt x="153" y="322" on="0"/>
        <pt x="45" y="589" on="0"/>
      </contour>
      <contour>
        <pt x="784" y="342" on="1"/>
        <pt x="867" y="342" on="0"/>
        <pt x="998" y="409" on="0"/>
        <pt x="1076" y="521" on="0"/>
        <pt x="1116" y="655" on="0"/>
        <pt x="1116" y="729" on="1"/>
        <pt x="1116" y="831" on="0"/>
        <pt x="1045" y="999" on="0"/>
        <pt x="890" y="1108" on="0"/>
        <pt x="782" y="1108" on="1"/>
        <pt x="699" y="1108" on="0"/>
        <pt x="569" y="1042" on="0"/>
        <pt x="491" y="932" on="0"/>
        <pt x="451" y="798" on="0"/>
        <pt x="451" y="725" on="1"/>
        <pt x="451" y="650" on="0"/>
        <pt x="492" y="515" on="0"/>
        <pt x="572" y="406" on="0"/>
        <pt x="702" y="342" on="0"/>
      </contour>
    </TTGlyph>
    <TTGlyph name="Odblacute" xMin="45" yMin="-12" xMax="1522" yMax="1874">
      <contour>
        <pt x="659" y="1518" on="1"/>
        <pt x="475" y="1583" on="1"/>
        <pt x="557" y="1874" on="1"/>
        <pt x="842" y="1874" on="1"/>
      </contour>
      <contour>
        <pt x="1049" y="1518" on="1"/>
        <pt x="864" y="1583" on="1"/>
        <pt x="946" y="1874" on="1"/>
        <pt x="1231" y="1874" on="1"/>
      </contour>
      <contour>
        <pt x="45" y="729" on="1"/>
        <pt x="45" y="872" on="0"/>
        <pt x="157" y="1139" on="0"/>
        <pt x="351" y="1341" on="0"/>
        <pt x="630" y="1462" on="0"/>
        <pt x="788" y="1462" on="1"/>
        <pt x="948" y="1462" on="0"/>
        <pt x="1228" y="1335" on="0"/>
        <pt x="1415" y="1126" on="0"/>
        <pt x="1522" y="860" on="0"/>
        <pt x="1522" y="721" on="1"/>
        <pt x="1522" y="579" on="0"/>
        <pt x="1411" y="313" on="0"/>
        <pt x="1218" y="110" on="0"/>
        <pt x="938" y="-12" on="0"/>
        <pt x="780" y="-12" on="1"/>
        <pt x="620" y="-12" on="0"/>
        <pt x="341" y="114" on="0"/>
        <pt x="153" y="322" on="0"/>
        <pt x="45" y="589" on="0"/>
      </contour>
      <contour>
        <pt x="784" y="342" on="1"/>
        <pt x="867" y="342" on="0"/>
        <pt x="998" y="409" on="0"/>
        <pt x="1076" y="521" on="0"/>
        <pt x="1116" y="655" on="0"/>
        <pt x="1116" y="729" on="1"/>
        <pt x="1116" y="831" on="0"/>
        <pt x="1045" y="999" on="0"/>
        <pt x="890" y="1108" on="0"/>
        <pt x="782" y="1108" on="1"/>
        <pt x="699" y="1108" on="0"/>
        <pt x="569" y="1042" on="0"/>
        <pt x="491" y="932" on="0"/>
        <pt x="451" y="798" on="0"/>
        <pt x="451" y="725" on="1"/>
        <pt x="451" y="650" on="0"/>
        <pt x="492" y="515" on="0"/>
        <pt x="572" y="406" on="0"/>
        <pt x="702" y="342" on="0"/>
      </contour>
    </TTGlyph>
    <TTGlyph name="Odblgrave" xMin="45" yMin="-12" xMax="1522" yMax="1874">
      <contour>
        <pt x="344" y="1874" on="1"/>
        <pt x="629" y="1874" on="1"/>
        <pt x="711" y="1583" on="1"/>
        <pt x="526" y="1518" on="1"/>
      </contour>
      <contour>
        <pt x="733" y="1874" on="1"/>
        <pt x="1018" y="1874" on="1"/>
        <pt x="1100" y="1583" on="1"/>
        <pt x="915" y="1518" on="1"/>
      </contour>
      <contour>
        <pt x="45" y="729" on="1"/>
        <pt x="45" y="872" on="0"/>
        <pt x="157" y="1139" on="0"/>
        <pt x="351" y="1341" on="0"/>
        <pt x="630" y="1462" on="0"/>
        <pt x="788" y="1462" on="1"/>
        <pt x="948" y="1462" on="0"/>
        <pt x="1228" y="1335" on="0"/>
        <pt x="1415" y="1126" on="0"/>
        <pt x="1522" y="860" on="0"/>
        <pt x="1522" y="721" on="1"/>
        <pt x="1522" y="579" on="0"/>
        <pt x="1411" y="313" on="0"/>
        <pt x="1218" y="110" on="0"/>
        <pt x="938" y="-12" on="0"/>
        <pt x="780" y="-12" on="1"/>
        <pt x="620" y="-12" on="0"/>
        <pt x="341" y="114" on="0"/>
        <pt x="153" y="322" on="0"/>
        <pt x="45" y="589" on="0"/>
      </contour>
      <contour>
        <pt x="784" y="342" on="1"/>
        <pt x="867" y="342" on="0"/>
        <pt x="998" y="409" on="0"/>
        <pt x="1076" y="521" on="0"/>
        <pt x="1116" y="655" on="0"/>
        <pt x="1116" y="729" on="1"/>
        <pt x="1116" y="831" on="0"/>
        <pt x="1045" y="999" on="0"/>
        <pt x="890" y="1108" on="0"/>
        <pt x="782" y="1108" on="1"/>
        <pt x="699" y="1108" on="0"/>
        <pt x="569" y="1042" on="0"/>
        <pt x="491" y="932" on="0"/>
        <pt x="451" y="798" on="0"/>
        <pt x="451" y="725" on="1"/>
        <pt x="451" y="650" on="0"/>
        <pt x="492" y="515" on="0"/>
        <pt x="572" y="406" on="0"/>
        <pt x="702" y="342" on="0"/>
      </contour>
    </TTGlyph>
    <TTGlyph name="Odieresis" xMin="45" yMin="-12" xMax="1522" yMax="1853">
      <contour>
        <pt x="393" y="1567" on="1"/>
        <pt x="393" y="1853" on="1"/>
        <pt x="713" y="1853" on="1"/>
        <pt x="713" y="1567" on="1"/>
      </contour>
      <contour>
        <pt x="864" y="1567" on="1"/>
        <pt x="864" y="1853" on="1"/>
        <pt x="1184" y="1853" on="1"/>
        <pt x="1184" y="1567" on="1"/>
      </contour>
      <contour>
        <pt x="45" y="729" on="1"/>
        <pt x="45" y="872" on="0"/>
        <pt x="157" y="1139" on="0"/>
        <pt x="351" y="1341" on="0"/>
        <pt x="630" y="1462" on="0"/>
        <pt x="788" y="1462" on="1"/>
        <pt x="948" y="1462" on="0"/>
        <pt x="1228" y="1335" on="0"/>
        <pt x="1415" y="1126" on="0"/>
        <pt x="1522" y="860" on="0"/>
        <pt x="1522" y="721" on="1"/>
        <pt x="1522" y="579" on="0"/>
        <pt x="1411" y="313" on="0"/>
        <pt x="1218" y="110" on="0"/>
        <pt x="938" y="-12" on="0"/>
        <pt x="780" y="-12" on="1"/>
        <pt x="620" y="-12" on="0"/>
        <pt x="341" y="114" on="0"/>
        <pt x="153" y="322" on="0"/>
        <pt x="45" y="589" on="0"/>
      </contour>
      <contour>
        <pt x="784" y="342" on="1"/>
        <pt x="867" y="342" on="0"/>
        <pt x="998" y="409" on="0"/>
        <pt x="1076" y="521" on="0"/>
        <pt x="1116" y="655" on="0"/>
        <pt x="1116" y="729" on="1"/>
        <pt x="1116" y="831" on="0"/>
        <pt x="1045" y="999" on="0"/>
        <pt x="890" y="1108" on="0"/>
        <pt x="782" y="1108" on="1"/>
        <pt x="699" y="1108" on="0"/>
        <pt x="569" y="1042" on="0"/>
        <pt x="491" y="932" on="0"/>
        <pt x="451" y="798" on="0"/>
        <pt x="451" y="725" on="1"/>
        <pt x="451" y="650" on="0"/>
        <pt x="492" y="515" on="0"/>
        <pt x="572" y="406" on="0"/>
        <pt x="702" y="342" on="0"/>
      </contour>
    </TTGlyph>
    <TTGlyph name="Odieresiscyrillic" xMin="45" yMin="-12" xMax="1522" yMax="1853">
      <contour>
        <pt x="393" y="1567" on="1"/>
        <pt x="393" y="1853" on="1"/>
        <pt x="713" y="1853" on="1"/>
        <pt x="713" y="1567" on="1"/>
      </contour>
      <contour>
        <pt x="864" y="1567" on="1"/>
        <pt x="864" y="1853" on="1"/>
        <pt x="1184" y="1853" on="1"/>
        <pt x="1184" y="1567" on="1"/>
      </contour>
      <contour>
        <pt x="45" y="729" on="1"/>
        <pt x="45" y="872" on="0"/>
        <pt x="157" y="1139" on="0"/>
        <pt x="351" y="1341" on="0"/>
        <pt x="630" y="1462" on="0"/>
        <pt x="788" y="1462" on="1"/>
        <pt x="948" y="1462" on="0"/>
        <pt x="1228" y="1335" on="0"/>
        <pt x="1415" y="1126" on="0"/>
        <pt x="1522" y="860" on="0"/>
        <pt x="1522" y="721" on="1"/>
        <pt x="1522" y="579" on="0"/>
        <pt x="1411" y="313" on="0"/>
        <pt x="1218" y="110" on="0"/>
        <pt x="938" y="-12" on="0"/>
        <pt x="780" y="-12" on="1"/>
        <pt x="620" y="-12" on="0"/>
        <pt x="341" y="114" on="0"/>
        <pt x="153" y="322" on="0"/>
        <pt x="45" y="589" on="0"/>
      </contour>
      <contour>
        <pt x="784" y="342" on="1"/>
        <pt x="867" y="342" on="0"/>
        <pt x="998" y="409" on="0"/>
        <pt x="1076" y="521" on="0"/>
        <pt x="1116" y="655" on="0"/>
        <pt x="1116" y="729" on="1"/>
        <pt x="1116" y="831" on="0"/>
        <pt x="1045" y="999" on="0"/>
        <pt x="890" y="1108" on="0"/>
        <pt x="782" y="1108" on="1"/>
        <pt x="699" y="1108" on="0"/>
        <pt x="569" y="1042" on="0"/>
        <pt x="491" y="932" on="0"/>
        <pt x="451" y="798" on="0"/>
        <pt x="451" y="725" on="1"/>
        <pt x="451" y="650" on="0"/>
        <pt x="492" y="515" on="0"/>
        <pt x="572" y="406" on="0"/>
        <pt x="702" y="342" on="0"/>
      </contour>
    </TTGlyph>
    <TTGlyph name="Odieresismacron" xMin="45" yMin="-12" xMax="1522" yMax="2251">
      <contour>
        <pt x="473" y="2019" on="1"/>
        <pt x="473" y="2251" on="1"/>
        <pt x="1108" y="2251" on="1"/>
        <pt x="1108" y="2019" on="1"/>
      </contour>
      <contour>
        <pt x="393" y="1567" on="1"/>
        <pt x="393" y="1853" on="1"/>
        <pt x="713" y="1853" on="1"/>
        <pt x="713" y="1567" on="1"/>
      </contour>
      <contour>
        <pt x="864" y="1567" on="1"/>
        <pt x="864" y="1853" on="1"/>
        <pt x="1184" y="1853" on="1"/>
        <pt x="1184" y="1567" on="1"/>
      </contour>
      <contour>
        <pt x="45" y="729" on="1"/>
        <pt x="45" y="872" on="0"/>
        <pt x="157" y="1139" on="0"/>
        <pt x="351" y="1341" on="0"/>
        <pt x="630" y="1462" on="0"/>
        <pt x="788" y="1462" on="1"/>
        <pt x="948" y="1462" on="0"/>
        <pt x="1228" y="1335" on="0"/>
        <pt x="1415" y="1126" on="0"/>
        <pt x="1522" y="860" on="0"/>
        <pt x="1522" y="721" on="1"/>
        <pt x="1522" y="579" on="0"/>
        <pt x="1411" y="313" on="0"/>
        <pt x="1218" y="110" on="0"/>
        <pt x="938" y="-12" on="0"/>
        <pt x="780" y="-12" on="1"/>
        <pt x="620" y="-12" on="0"/>
        <pt x="341" y="114" on="0"/>
        <pt x="153" y="322" on="0"/>
        <pt x="45" y="589" on="0"/>
      </contour>
      <contour>
        <pt x="784" y="342" on="1"/>
        <pt x="867" y="342" on="0"/>
        <pt x="998" y="409" on="0"/>
        <pt x="1076" y="521" on="0"/>
        <pt x="1116" y="655" on="0"/>
        <pt x="1116" y="729" on="1"/>
        <pt x="1116" y="831" on="0"/>
        <pt x="1045" y="999" on="0"/>
        <pt x="890" y="1108" on="0"/>
        <pt x="782" y="1108" on="1"/>
        <pt x="699" y="1108" on="0"/>
        <pt x="569" y="1042" on="0"/>
        <pt x="491" y="932" on="0"/>
        <pt x="451" y="798" on="0"/>
        <pt x="451" y="725" on="1"/>
        <pt x="451" y="650" on="0"/>
        <pt x="492" y="515" on="0"/>
        <pt x="572" y="406" on="0"/>
        <pt x="702" y="342" on="0"/>
      </contour>
    </TTGlyph>
    <TTGlyph name="Odotabovemacron" xMin="45" yMin="-12" xMax="1522" yMax="2269">
      <contour>
        <pt x="473" y="2038" on="1"/>
        <pt x="473" y="2269" on="1"/>
        <pt x="1108" y="2269" on="1"/>
        <pt x="1108" y="2038" on="1"/>
      </contour>
      <contour>
        <pt x="614" y="1565" on="1"/>
        <pt x="614" y="1872" on="1"/>
        <pt x="963" y="1872" on="1"/>
        <pt x="963" y="1565" on="1"/>
      </contour>
      <contour>
        <pt x="45" y="729" on="1"/>
        <pt x="45" y="872" on="0"/>
        <pt x="157" y="1139" on="0"/>
        <pt x="351" y="1341" on="0"/>
        <pt x="630" y="1462" on="0"/>
        <pt x="788" y="1462" on="1"/>
        <pt x="948" y="1462" on="0"/>
        <pt x="1228" y="1335" on="0"/>
        <pt x="1415" y="1126" on="0"/>
        <pt x="1522" y="860" on="0"/>
        <pt x="1522" y="721" on="1"/>
        <pt x="1522" y="579" on="0"/>
        <pt x="1411" y="313" on="0"/>
        <pt x="1218" y="110" on="0"/>
        <pt x="938" y="-12" on="0"/>
        <pt x="780" y="-12" on="1"/>
        <pt x="620" y="-12" on="0"/>
        <pt x="341" y="114" on="0"/>
        <pt x="153" y="322" on="0"/>
        <pt x="45" y="589" on="0"/>
      </contour>
      <contour>
        <pt x="784" y="342" on="1"/>
        <pt x="867" y="342" on="0"/>
        <pt x="998" y="409" on="0"/>
        <pt x="1076" y="521" on="0"/>
        <pt x="1116" y="655" on="0"/>
        <pt x="1116" y="729" on="1"/>
        <pt x="1116" y="831" on="0"/>
        <pt x="1045" y="999" on="0"/>
        <pt x="890" y="1108" on="0"/>
        <pt x="782" y="1108" on="1"/>
        <pt x="699" y="1108" on="0"/>
        <pt x="569" y="1042" on="0"/>
        <pt x="491" y="932" on="0"/>
        <pt x="451" y="798" on="0"/>
        <pt x="451" y="725" on="1"/>
        <pt x="451" y="650" on="0"/>
        <pt x="492" y="515" on="0"/>
        <pt x="572" y="406" on="0"/>
        <pt x="702" y="342" on="0"/>
      </contour>
    </TTGlyph>
    <TTGlyph name="Odotbelow" xMin="45" yMin="-438" xMax="1522" yMax="1462">
      <contour>
        <pt x="45" y="729" on="1"/>
        <pt x="45" y="872" on="0"/>
        <pt x="157" y="1139" on="0"/>
        <pt x="351" y="1341" on="0"/>
        <pt x="630" y="1462" on="0"/>
        <pt x="788" y="1462" on="1"/>
        <pt x="948" y="1462" on="0"/>
        <pt x="1228" y="1335" on="0"/>
        <pt x="1415" y="1126" on="0"/>
        <pt x="1522" y="860" on="0"/>
        <pt x="1522" y="721" on="1"/>
        <pt x="1522" y="579" on="0"/>
        <pt x="1411" y="313" on="0"/>
        <pt x="1218" y="110" on="0"/>
        <pt x="938" y="-12" on="0"/>
        <pt x="780" y="-12" on="1"/>
        <pt x="620" y="-12" on="0"/>
        <pt x="341" y="114" on="0"/>
        <pt x="153" y="322" on="0"/>
        <pt x="45" y="589" on="0"/>
      </contour>
      <contour>
        <pt x="784" y="342" on="1"/>
        <pt x="867" y="342" on="0"/>
        <pt x="998" y="409" on="0"/>
        <pt x="1076" y="521" on="0"/>
        <pt x="1116" y="655" on="0"/>
        <pt x="1116" y="729" on="1"/>
        <pt x="1116" y="831" on="0"/>
        <pt x="1045" y="999" on="0"/>
        <pt x="890" y="1108" on="0"/>
        <pt x="782" y="1108" on="1"/>
        <pt x="699" y="1108" on="0"/>
        <pt x="569" y="1042" on="0"/>
        <pt x="491" y="932" on="0"/>
        <pt x="451" y="798" on="0"/>
        <pt x="451" y="725" on="1"/>
        <pt x="451" y="650" on="0"/>
        <pt x="492" y="515" on="0"/>
        <pt x="572" y="406" on="0"/>
        <pt x="702" y="342" on="0"/>
      </contour>
      <contour>
        <pt x="606" y="-438" on="1"/>
        <pt x="606" y="-131" on="1"/>
        <pt x="954" y="-131" on="1"/>
        <pt x="954" y="-438" on="1"/>
      </contour>
    </TTGlyph>
    <TTGlyph name="Ograve" xMin="45" yMin="-12" xMax="1522" yMax="1872">
      <contour>
        <pt x="481" y="1872" on="1"/>
        <pt x="827" y="1872" on="1"/>
        <pt x="930" y="1581" on="1"/>
        <pt x="684" y="1516" on="1"/>
      </contour>
      <contour>
        <pt x="45" y="729" on="1"/>
        <pt x="45" y="872" on="0"/>
        <pt x="157" y="1139" on="0"/>
        <pt x="351" y="1341" on="0"/>
        <pt x="630" y="1462" on="0"/>
        <pt x="788" y="1462" on="1"/>
        <pt x="948" y="1462" on="0"/>
        <pt x="1228" y="1335" on="0"/>
        <pt x="1415" y="1126" on="0"/>
        <pt x="1522" y="860" on="0"/>
        <pt x="1522" y="721" on="1"/>
        <pt x="1522" y="579" on="0"/>
        <pt x="1411" y="313" on="0"/>
        <pt x="1218" y="110" on="0"/>
        <pt x="938" y="-12" on="0"/>
        <pt x="780" y="-12" on="1"/>
        <pt x="620" y="-12" on="0"/>
        <pt x="341" y="114" on="0"/>
        <pt x="153" y="322" on="0"/>
        <pt x="45" y="589" on="0"/>
      </contour>
      <contour>
        <pt x="784" y="342" on="1"/>
        <pt x="867" y="342" on="0"/>
        <pt x="998" y="409" on="0"/>
        <pt x="1076" y="521" on="0"/>
        <pt x="1116" y="655" on="0"/>
        <pt x="1116" y="729" on="1"/>
        <pt x="1116" y="831" on="0"/>
        <pt x="1045" y="999" on="0"/>
        <pt x="890" y="1108" on="0"/>
        <pt x="782" y="1108" on="1"/>
        <pt x="699" y="1108" on="0"/>
        <pt x="569" y="1042" on="0"/>
        <pt x="491" y="932" on="0"/>
        <pt x="451" y="798" on="0"/>
        <pt x="451" y="725" on="1"/>
        <pt x="451" y="650" on="0"/>
        <pt x="492" y="515" on="0"/>
        <pt x="572" y="406" on="0"/>
        <pt x="702" y="342" on="0"/>
      </contour>
    </TTGlyph>
    <TTGlyph name="Ohm" xMin="61" yMin="0" xMax="1561" yMax="1464">
      <contour>
        <pt x="61" y="266" on="1"/>
        <pt x="367" y="266" on="1"/>
        <pt x="233" y="343" on="0"/>
        <pt x="82" y="606" on="0"/>
        <pt x="82" y="768" on="1"/>
        <pt x="82" y="904" on="0"/>
        <pt x="194" y="1158" on="0"/>
        <pt x="385" y="1349" on="0"/>
        <pt x="658" y="1464" on="0"/>
        <pt x="964" y="1464" on="0"/>
        <pt x="1237" y="1349" on="0"/>
        <pt x="1428" y="1158" on="0"/>
        <pt x="1540" y="904" on="0"/>
        <pt x="1540" y="768" on="1"/>
        <pt x="1540" y="606" on="0"/>
        <pt x="1389" y="343" on="0"/>
        <pt x="1255" y="266" on="1"/>
        <pt x="1561" y="266" on="1"/>
        <pt x="1561" y="0" on="1"/>
        <pt x="887" y="0" on="1"/>
        <pt x="887" y="266" on="1"/>
        <pt x="1005" y="317" on="0"/>
        <pt x="1149" y="603" on="0"/>
        <pt x="1149" y="768" on="1"/>
        <pt x="1149" y="855" on="0"/>
        <pt x="1070" y="1010" on="0"/>
        <pt x="912" y="1112" on="0"/>
        <pt x="710" y="1112" on="0"/>
        <pt x="552" y="1010" on="0"/>
        <pt x="473" y="855" on="0"/>
        <pt x="473" y="768" on="1"/>
        <pt x="473" y="603" on="0"/>
        <pt x="617" y="317" on="0"/>
        <pt x="735" y="266" on="1"/>
        <pt x="735" y="0" on="1"/>
        <pt x="61" y="0" on="1"/>
      </contour>
    </TTGlyph>
    <TTGlyph name="Ohookabove" xMin="45" yMin="-12" xMax="1522" yMax="1985">
      <contour>
        <pt x="674" y="1761" on="1"/>
        <pt x="569" y="1864" on="1"/>
        <pt x="684" y="1985" on="0"/>
        <pt x="807" y="1985" on="1"/>
        <pt x="898" y="1985" on="0"/>
        <pt x="1008" y="1890" on="0"/>
        <pt x="1008" y="1734" on="0"/>
        <pt x="940" y="1630" on="0"/>
        <pt x="856" y="1561" on="1"/>
        <pt x="764" y="1657" on="1"/>
        <pt x="838" y="1708" on="0"/>
        <pt x="838" y="1755" on="1"/>
        <pt x="838" y="1782" on="0"/>
        <pt x="805" y="1817" on="0"/>
        <pt x="776" y="1817" on="1"/>
        <pt x="757" y="1817" on="0"/>
        <pt x="722" y="1800" on="0"/>
        <pt x="702" y="1785" on="0"/>
      </contour>
      <contour>
        <pt x="45" y="729" on="1"/>
        <pt x="45" y="872" on="0"/>
        <pt x="157" y="1139" on="0"/>
        <pt x="351" y="1341" on="0"/>
        <pt x="630" y="1462" on="0"/>
        <pt x="788" y="1462" on="1"/>
        <pt x="948" y="1462" on="0"/>
        <pt x="1228" y="1335" on="0"/>
        <pt x="1415" y="1126" on="0"/>
        <pt x="1522" y="860" on="0"/>
        <pt x="1522" y="721" on="1"/>
        <pt x="1522" y="579" on="0"/>
        <pt x="1411" y="313" on="0"/>
        <pt x="1218" y="110" on="0"/>
        <pt x="938" y="-12" on="0"/>
        <pt x="780" y="-12" on="1"/>
        <pt x="620" y="-12" on="0"/>
        <pt x="341" y="114" on="0"/>
        <pt x="153" y="322" on="0"/>
        <pt x="45" y="589" on="0"/>
      </contour>
      <contour>
        <pt x="784" y="342" on="1"/>
        <pt x="867" y="342" on="0"/>
        <pt x="998" y="409" on="0"/>
        <pt x="1076" y="521" on="0"/>
        <pt x="1116" y="655" on="0"/>
        <pt x="1116" y="729" on="1"/>
        <pt x="1116" y="831" on="0"/>
        <pt x="1045" y="999" on="0"/>
        <pt x="890" y="1108" on="0"/>
        <pt x="782" y="1108" on="1"/>
        <pt x="699" y="1108" on="0"/>
        <pt x="569" y="1042" on="0"/>
        <pt x="491" y="932" on="0"/>
        <pt x="451" y="798" on="0"/>
        <pt x="451" y="725" on="1"/>
        <pt x="451" y="650" on="0"/>
        <pt x="492" y="515" on="0"/>
        <pt x="572" y="406" on="0"/>
        <pt x="702" y="342" on="0"/>
      </contour>
    </TTGlyph>
    <TTGlyph name="Ohorn" xMin="45" yMin="-12" xMax="1522" yMax="1645">
      <contour>
        <pt x="1270" y="1280" on="1"/>
        <pt x="1390" y="1173" on="0"/>
        <pt x="1522" y="878" on="0"/>
        <pt x="1522" y="721" on="1"/>
        <pt x="1522" y="579" on="0"/>
        <pt x="1411" y="313" on="0"/>
        <pt x="1218" y="110" on="0"/>
        <pt x="938" y="-12" on="0"/>
        <pt x="780" y="-12" on="1"/>
        <pt x="620" y="-12" on="0"/>
        <pt x="341" y="114" on="0"/>
        <pt x="153" y="322" on="0"/>
        <pt x="45" y="589" on="0"/>
        <pt x="45" y="729" on="1"/>
        <pt x="45" y="872" on="0"/>
        <pt x="157" y="1139" on="0"/>
        <pt x="351" y="1341" on="0"/>
        <pt x="630" y="1462" on="0"/>
        <pt x="788" y="1462" on="1"/>
        <pt x="845" y="1462" on="0"/>
        <pt x="913" y="1452" on="1"/>
        <pt x="989" y="1452" on="0"/>
        <pt x="1083" y="1472" on="0"/>
        <pt x="1110" y="1499" on="1"/>
        <pt x="1121" y="1510" on="0"/>
        <pt x="1135" y="1535" on="0"/>
        <pt x="1142" y="1572" on="0"/>
        <pt x="1144" y="1590" on="0"/>
        <pt x="1145" y="1640" on="0"/>
        <pt x="1145" y="1645" on="1"/>
        <pt x="1409" y="1645" on="1"/>
        <pt x="1409" y="1590" on="0"/>
        <pt x="1405" y="1527" on="0"/>
        <pt x="1387" y="1425" on="0"/>
        <pt x="1341" y="1340" on="0"/>
        <pt x="1303" y="1305" on="1"/>
        <pt x="1294" y="1296" on="0"/>
      </contour>
      <contour>
        <pt x="784" y="342" on="1"/>
        <pt x="867" y="342" on="0"/>
        <pt x="998" y="409" on="0"/>
        <pt x="1076" y="521" on="0"/>
        <pt x="1116" y="655" on="0"/>
        <pt x="1116" y="729" on="1"/>
        <pt x="1116" y="831" on="0"/>
        <pt x="1045" y="999" on="0"/>
        <pt x="890" y="1108" on="0"/>
        <pt x="782" y="1108" on="1"/>
        <pt x="699" y="1108" on="0"/>
        <pt x="569" y="1042" on="0"/>
        <pt x="491" y="932" on="0"/>
        <pt x="451" y="798" on="0"/>
        <pt x="451" y="725" on="1"/>
        <pt x="451" y="650" on="0"/>
        <pt x="492" y="515" on="0"/>
        <pt x="572" y="406" on="0"/>
        <pt x="702" y="342" on="0"/>
      </contour>
    </TTGlyph>
    <TTGlyph name="Ohornacute" xMin="45" yMin="-12" xMax="1522" yMax="1872">
      <contour>
        <pt x="1114" y="1872" on="1"/>
        <pt x="911" y="1516" on="1"/>
        <pt x="666" y="1581" on="1"/>
        <pt x="768" y="1872" on="1"/>
      </contour>
      <contour>
        <pt x="1270" y="1280" on="1"/>
        <pt x="1390" y="1173" on="0"/>
        <pt x="1522" y="878" on="0"/>
        <pt x="1522" y="721" on="1"/>
        <pt x="1522" y="579" on="0"/>
        <pt x="1411" y="313" on="0"/>
        <pt x="1218" y="110" on="0"/>
        <pt x="938" y="-12" on="0"/>
        <pt x="780" y="-12" on="1"/>
        <pt x="620" y="-12" on="0"/>
        <pt x="341" y="114" on="0"/>
        <pt x="153" y="322" on="0"/>
        <pt x="45" y="589" on="0"/>
        <pt x="45" y="729" on="1"/>
        <pt x="45" y="872" on="0"/>
        <pt x="157" y="1139" on="0"/>
        <pt x="351" y="1341" on="0"/>
        <pt x="630" y="1462" on="0"/>
        <pt x="788" y="1462" on="1"/>
        <pt x="845" y="1462" on="0"/>
        <pt x="913" y="1452" on="1"/>
        <pt x="989" y="1452" on="0"/>
        <pt x="1083" y="1472" on="0"/>
        <pt x="1110" y="1499" on="1"/>
        <pt x="1121" y="1510" on="0"/>
        <pt x="1135" y="1535" on="0"/>
        <pt x="1142" y="1572" on="0"/>
        <pt x="1144" y="1590" on="0"/>
        <pt x="1145" y="1640" on="0"/>
        <pt x="1145" y="1645" on="1"/>
        <pt x="1409" y="1645" on="1"/>
        <pt x="1409" y="1590" on="0"/>
        <pt x="1405" y="1527" on="0"/>
        <pt x="1387" y="1425" on="0"/>
        <pt x="1341" y="1340" on="0"/>
        <pt x="1303" y="1305" on="1"/>
        <pt x="1294" y="1296" on="0"/>
      </contour>
      <contour>
        <pt x="784" y="342" on="1"/>
        <pt x="867" y="342" on="0"/>
        <pt x="998" y="409" on="0"/>
        <pt x="1076" y="521" on="0"/>
        <pt x="1116" y="655" on="0"/>
        <pt x="1116" y="729" on="1"/>
        <pt x="1116" y="831" on="0"/>
        <pt x="1045" y="999" on="0"/>
        <pt x="890" y="1108" on="0"/>
        <pt x="782" y="1108" on="1"/>
        <pt x="699" y="1108" on="0"/>
        <pt x="569" y="1042" on="0"/>
        <pt x="491" y="932" on="0"/>
        <pt x="451" y="798" on="0"/>
        <pt x="451" y="725" on="1"/>
        <pt x="451" y="650" on="0"/>
        <pt x="492" y="515" on="0"/>
        <pt x="572" y="406" on="0"/>
        <pt x="702" y="342" on="0"/>
      </contour>
    </TTGlyph>
    <TTGlyph name="Ohorndotbelow" xMin="45" yMin="-438" xMax="1522" yMax="1645">
      <contour>
        <pt x="1270" y="1280" on="1"/>
        <pt x="1390" y="1173" on="0"/>
        <pt x="1522" y="878" on="0"/>
        <pt x="1522" y="721" on="1"/>
        <pt x="1522" y="579" on="0"/>
        <pt x="1411" y="313" on="0"/>
        <pt x="1218" y="110" on="0"/>
        <pt x="938" y="-12" on="0"/>
        <pt x="780" y="-12" on="1"/>
        <pt x="620" y="-12" on="0"/>
        <pt x="341" y="114" on="0"/>
        <pt x="153" y="322" on="0"/>
        <pt x="45" y="589" on="0"/>
        <pt x="45" y="729" on="1"/>
        <pt x="45" y="872" on="0"/>
        <pt x="157" y="1139" on="0"/>
        <pt x="351" y="1341" on="0"/>
        <pt x="630" y="1462" on="0"/>
        <pt x="788" y="1462" on="1"/>
        <pt x="845" y="1462" on="0"/>
        <pt x="913" y="1452" on="1"/>
        <pt x="989" y="1452" on="0"/>
        <pt x="1083" y="1472" on="0"/>
        <pt x="1110" y="1499" on="1"/>
        <pt x="1121" y="1510" on="0"/>
        <pt x="1135" y="1535" on="0"/>
        <pt x="1142" y="1572" on="0"/>
        <pt x="1144" y="1590" on="0"/>
        <pt x="1145" y="1640" on="0"/>
        <pt x="1145" y="1645" on="1"/>
        <pt x="1409" y="1645" on="1"/>
        <pt x="1409" y="1590" on="0"/>
        <pt x="1405" y="1527" on="0"/>
        <pt x="1387" y="1425" on="0"/>
        <pt x="1341" y="1340" on="0"/>
        <pt x="1303" y="1305" on="1"/>
        <pt x="1294" y="1296" on="0"/>
      </contour>
      <contour>
        <pt x="784" y="342" on="1"/>
        <pt x="867" y="342" on="0"/>
        <pt x="998" y="409" on="0"/>
        <pt x="1076" y="521" on="0"/>
        <pt x="1116" y="655" on="0"/>
        <pt x="1116" y="729" on="1"/>
        <pt x="1116" y="831" on="0"/>
        <pt x="1045" y="999" on="0"/>
        <pt x="890" y="1108" on="0"/>
        <pt x="782" y="1108" on="1"/>
        <pt x="699" y="1108" on="0"/>
        <pt x="569" y="1042" on="0"/>
        <pt x="491" y="932" on="0"/>
        <pt x="451" y="798" on="0"/>
        <pt x="451" y="725" on="1"/>
        <pt x="451" y="650" on="0"/>
        <pt x="492" y="515" on="0"/>
        <pt x="572" y="406" on="0"/>
        <pt x="702" y="342" on="0"/>
      </contour>
      <contour>
        <pt x="606" y="-438" on="1"/>
        <pt x="606" y="-131" on="1"/>
        <pt x="954" y="-131" on="1"/>
        <pt x="954" y="-438" on="1"/>
      </contour>
    </TTGlyph>
    <TTGlyph name="Ohorngrave" xMin="45" yMin="-12" xMax="1522" yMax="1872">
      <contour>
        <pt x="930" y="1581" on="1"/>
        <pt x="684" y="1516" on="1"/>
        <pt x="481" y="1872" on="1"/>
        <pt x="827" y="1872" on="1"/>
      </contour>
      <contour>
        <pt x="1270" y="1280" on="1"/>
        <pt x="1390" y="1173" on="0"/>
        <pt x="1522" y="878" on="0"/>
        <pt x="1522" y="721" on="1"/>
        <pt x="1522" y="579" on="0"/>
        <pt x="1411" y="313" on="0"/>
        <pt x="1218" y="110" on="0"/>
        <pt x="938" y="-12" on="0"/>
        <pt x="780" y="-12" on="1"/>
        <pt x="620" y="-12" on="0"/>
        <pt x="341" y="114" on="0"/>
        <pt x="153" y="322" on="0"/>
        <pt x="45" y="589" on="0"/>
        <pt x="45" y="729" on="1"/>
        <pt x="45" y="872" on="0"/>
        <pt x="157" y="1139" on="0"/>
        <pt x="351" y="1341" on="0"/>
        <pt x="630" y="1462" on="0"/>
        <pt x="788" y="1462" on="1"/>
        <pt x="845" y="1462" on="0"/>
        <pt x="913" y="1452" on="1"/>
        <pt x="989" y="1452" on="0"/>
        <pt x="1083" y="1472" on="0"/>
        <pt x="1110" y="1499" on="1"/>
        <pt x="1121" y="1510" on="0"/>
        <pt x="1135" y="1535" on="0"/>
        <pt x="1142" y="1572" on="0"/>
        <pt x="1144" y="1590" on="0"/>
        <pt x="1145" y="1640" on="0"/>
        <pt x="1145" y="1645" on="1"/>
        <pt x="1409" y="1645" on="1"/>
        <pt x="1409" y="1590" on="0"/>
        <pt x="1405" y="1527" on="0"/>
        <pt x="1387" y="1425" on="0"/>
        <pt x="1341" y="1340" on="0"/>
        <pt x="1303" y="1305" on="1"/>
        <pt x="1294" y="1296" on="0"/>
      </contour>
      <contour>
        <pt x="784" y="342" on="1"/>
        <pt x="867" y="342" on="0"/>
        <pt x="998" y="409" on="0"/>
        <pt x="1076" y="521" on="0"/>
        <pt x="1116" y="655" on="0"/>
        <pt x="1116" y="729" on="1"/>
        <pt x="1116" y="831" on="0"/>
        <pt x="1045" y="999" on="0"/>
        <pt x="890" y="1108" on="0"/>
        <pt x="782" y="1108" on="1"/>
        <pt x="699" y="1108" on="0"/>
        <pt x="569" y="1042" on="0"/>
        <pt x="491" y="932" on="0"/>
        <pt x="451" y="798" on="0"/>
        <pt x="451" y="725" on="1"/>
        <pt x="451" y="650" on="0"/>
        <pt x="492" y="515" on="0"/>
        <pt x="572" y="406" on="0"/>
        <pt x="702" y="342" on="0"/>
      </contour>
    </TTGlyph>
</ttFont>
